SplineFontDB: 3.2
FontName: Kilroy3W50-8ptRegular
FullName: Kilroy3W50 8pt Regular
FamilyName: Kilroy3W50 8pt
Weight: Regular
Copyright: Copyright 2020 The Roboto Serif Project Authors (https://github.com/googlefonts/RobotoSerif) OFL
Version: 1.008
ItalicAngle: 0
UnderlinePosition: -200
UnderlineWidth: 100
Ascent: 800
Descent: 200
InvalidEm: 0
sfntRevision: 0x0001020c
LayerCount: 2
Layer: 0 1 "Back" 1
Layer: 1 1 "Fore" 0
XUID: [1021 1018 -1064020043 17406]
StyleMap: 0x0040
FSType: 0
OS2Version: 4
OS2_WeightWidthSlopeOnly: 0
OS2_UseTypoMetrics: 1
CreationTime: 1586430965
ModificationTime: 1751860178
PfmFamily: 81
TTFWeight: 450
TTFWidth: 1
LineGap: 0
VLineGap: 0
Panose: 0 0 0 0 0 0 0 0 0 0
OS2TypoAscent: 927
OS2TypoAOffset: 0
OS2TypoDescent: -244
OS2TypoDOffset: 0
OS2TypoLinegap: 0
OS2WinAscent: 1048
OS2WinAOffset: 0
OS2WinDescent: 251
OS2WinDOffset: 0
HheadAscent: 927
HheadAOffset: 0
HheadDescent: -244
HheadDOffset: 0
OS2SubXSize: 650
OS2SubYSize: 600
OS2SubXOff: 0
OS2SubYOff: 75
OS2SupXSize: 650
OS2SupYSize: 600
OS2SupXOff: 0
OS2SupYOff: 350
OS2StrikeYSize: 100
OS2StrikeYPos: 311
OS2CapHeight: 710
OS2XHeight: 518
OS2Vendor: 'COMM'
OS2CodePages: 20000193.00000000
OS2UnicodeRanges: a10000ef.4000267a.00000000.00000000
Lookup: 5 0 0 "'locl' Localized Forms in Latin lookup 0" { "'locl' Localized Forms in Latin lookup 0 subtable"  } ['locl' ('latn' <'AZE ' 'CRT ' 'TRK ' > ) ]
Lookup: 1 0 0 "Single Substitution lookup 1" { "Single Substitution lookup 1 subtable"  } []
Lookup: 5 0 0 "'locl' Localized Forms in Latin lookup 2" { "'locl' Localized Forms in Latin lookup 2 subtable"  } ['locl' ('latn' <'PLK ' > ) ]
Lookup: 1 0 0 "Single Substitution lookup 3" { "Single Substitution lookup 3 subtable"  } []
Lookup: 6 0 0 "'locl' Localized Forms in Latin lookup 4" { "'locl' Localized Forms in Latin lookup 4 subtable"  } ['locl' ('latn' <'CAT ' > ) ]
Lookup: 4 0 0 "Ligature Substitution lookup 5" { "Ligature Substitution lookup 5 subtable"  } []

StartChar: .notdef
Encoding: 65536 -1 0
Width: 400
GlyphClass: 1
Flags: W
LayerCount: 2
Fore
SplineSet
0 0 m 1,0,-1
 0 700 l 1,1,-1
 400 700 l 1,2,-1
 400 0 l 1,3,-1
 0 0 l 1,0,-1
50 650 m 1,4,-1
 50 50 l 1,5,-1
 350 50 l 1,6,-1
 350 650 l 1,7,-1
 50 650 l 1,4,-1
EndSplineSet
EndChar

StartChar: A
Encoding: 65 65 6
Width: 626
GlyphClass: 2
Flags: W
AnchorPoint: "Anchor-2" 495 0 basechar 0
AnchorPoint: "Anchor-1" 313 0 basechar 0
AnchorPoint: "Anchor-0" 313 721 basechar 0
LayerCount: 2
Fore
SplineSet
182 306 m 1,0,-1
 405 306 l 1,1,-1
 419 224 l 1,2,-1
 168 224 l 1,3,-1
 182 306 l 1,0,-1
280 691 m 1,4,-1
 318 687 l 1,5,-1
 158 103 l 2,6,7
 158 97 158 97 165 92 c 128,-1,8
 172 87 172 87 184.5 84 c 128,-1,9
 197 81 197 81 213 81 c 2,10,-1
 221 81 l 1,11,-1
 221 0 l 1,12,-1
 16 0 l 1,13,-1
 16 81 l 1,14,-1
 20 81 l 2,15,16
 37 81 37 81 51.5 93 c 128,-1,17
 66 105 66 105 77 145 c 2,18,-1
 242 722 l 1,19,-1
 380 722 l 1,20,-1
 544 145 l 2,21,22
 555 105 555 105 571.5 93 c 128,-1,23
 588 81 588 81 609 81 c 2,24,-1
 612 81 l 1,25,-1
 612 0 l 1,26,-1
 374 0 l 1,27,-1
 374 81 l 1,28,-1
 382 81 l 2,29,30
 402 81 402 81 415.5 82.5 c 128,-1,31
 429 84 429 84 436.5 86.5 c 128,-1,32
 444 89 444 89 444 92 c 2,33,-1
 280 691 l 1,4,-1
EndSplineSet
EndChar

StartChar: Aogonek
Encoding: 260 260 15
Width: 626
GlyphClass: 1
Flags: W
LayerCount: 2
Fore
SplineSet
182 304 m 1,0,-1
 405 304 l 1,1,-1
 419 226 l 1,2,-1
 168 226 l 1,3,-1
 182 304 l 1,0,-1
496 40 m 1,4,-1
 527 6 l 1,5,6
 487 -32 487 -32 464.5 -56 c 128,-1,7
 442 -80 442 -80 432.5 -100 c 128,-1,8
 423 -120 423 -120 423 -145 c 0,9,10
 423 -162 423 -162 431.5 -173.5 c 128,-1,11
 440 -185 440 -185 458 -185 c 0,12,13
 481 -185 481 -185 497.5 -172 c 128,-1,14
 514 -159 514 -159 525 -142 c 1,15,-1
 568 -181 l 1,16,17
 546 -212 546 -212 515 -232 c 128,-1,18
 484 -252 484 -252 435 -252 c 0,19,20
 381 -252 381 -252 346 -230 c 128,-1,21
 311 -208 311 -208 311 -156 c 0,22,23
 311 -130 311 -130 318.5 -110 c 128,-1,24
 326 -90 326 -90 346.5 -69.5 c 128,-1,25
 367 -49 367 -49 403.5 -23.5 c 128,-1,26
 440 2 440 2 496 40 c 1,4,-1
612 0 m 1,27,-1
 471 0 l 1,28,-1
 280 691 l 1,29,-1
 314 668 l 1,30,-1
 161 104 l 2,31,32
 161 98 161 98 167.5 92.5 c 128,-1,33
 174 87 174 87 186.5 84 c 128,-1,34
 199 81 199 81 216 81 c 2,35,-1
 223 81 l 1,36,-1
 223 0 l 1,37,-1
 16 0 l 1,38,-1
 16 81 l 1,39,-1
 21 81 l 2,40,41
 36 81 36 81 51 93 c 128,-1,42
 66 105 66 105 77 145 c 2,43,-1
 242 722 l 1,44,-1
 380 722 l 1,45,-1
 544 145 l 2,46,47
 555 105 555 105 571 93 c 128,-1,48
 587 81 587 81 608 81 c 2,49,-1
 612 81 l 1,50,-1
 612 0 l 1,27,-1
EndSplineSet
EndChar

StartChar: Acaron
Encoding: 461 461 16
Width: 626
GlyphClass: 1
Flags: W
LayerCount: 2
Fore
SplineSet
274 805 m 1,0,-1
 349 805 l 1,1,-1
 463 959 l 1,2,-1
 463 982 l 1,3,-1
 408 982 l 1,4,-1
 258 847 l 1,5,-1
 371 848 l 1,6,-1
 222 982 l 1,7,-1
 159 982 l 1,8,-1
 159 959 l 1,9,-1
 274 805 l 1,0,-1
182 306 m 1,10,-1
 405 306 l 1,11,-1
 419 224 l 1,12,-1
 168 224 l 1,13,-1
 182 306 l 1,10,-1
280 691 m 1,14,-1
 318 687 l 1,15,-1
 158 103 l 2,16,17
 158 97 158 97 165 92 c 128,-1,18
 172 87 172 87 184.5 84 c 128,-1,19
 197 81 197 81 213 81 c 2,20,-1
 221 81 l 1,21,-1
 221 0 l 1,22,-1
 16 0 l 1,23,-1
 16 81 l 1,24,-1
 21 81 l 2,25,26
 37 81 37 81 51.5 93 c 128,-1,27
 66 105 66 105 77 145 c 2,28,-1
 242 722 l 1,29,-1
 380 722 l 1,30,-1
 544 145 l 2,31,32
 555 105 555 105 571 93 c 128,-1,33
 587 81 587 81 608 81 c 2,34,-1
 612 81 l 1,35,-1
 612 0 l 1,36,-1
 374 0 l 1,37,-1
 374 81 l 1,38,-1
 382 81 l 2,39,40
 401 81 401 81 415 82.5 c 128,-1,41
 429 84 429 84 436.5 86.5 c 128,-1,42
 444 89 444 89 444 92 c 2,43,-1
 280 691 l 1,14,-1
EndSplineSet
EndChar

StartChar: Adblgrave
Encoding: 512 512 18
Width: 626
GlyphClass: 1
Flags: W
LayerCount: 2
Fore
SplineSet
402 925 m 2,0,-1
 439 827 l 1,1,-1
 439 792 l 1,2,-1
 396 792 l 1,3,-1
 330 857 l 2,4,5
 311 876 311 876 300 895 c 128,-1,6
 289 914 289 914 289 935 c 0,7,8
 289 954 289 954 302.5 967 c 128,-1,9
 316 980 316 980 339 980 c 0,10,11
 356 980 356 980 368 972 c 128,-1,12
 380 964 380 964 388 951.5 c 128,-1,13
 396 939 396 939 402 925 c 2,0,-1
228 925 m 2,14,-1
 263 827 l 1,15,-1
 263 792 l 1,16,-1
 220 792 l 1,17,-1
 155 857 l 2,18,19
 135 876 135 876 124 895 c 128,-1,20
 113 914 113 914 113 935 c 0,21,22
 113 954 113 954 126.5 967 c 128,-1,23
 140 980 140 980 163 980 c 0,24,25
 180 980 180 980 192.5 972 c 128,-1,26
 205 964 205 964 214.5 951.5 c 128,-1,27
 224 939 224 939 228 925 c 2,14,-1
182 306 m 1,28,-1
 405 306 l 1,29,-1
 419 224 l 1,30,-1
 168 224 l 1,31,-1
 182 306 l 1,28,-1
280 691 m 1,32,-1
 318 687 l 1,33,-1
 158 103 l 2,34,35
 158 97 158 97 165 92 c 128,-1,36
 172 87 172 87 184.5 84 c 128,-1,37
 197 81 197 81 213 81 c 2,38,-1
 221 81 l 1,39,-1
 221 0 l 1,40,-1
 16 0 l 1,41,-1
 16 81 l 1,42,-1
 21 81 l 2,43,44
 37 81 37 81 51.5 93 c 128,-1,45
 66 105 66 105 77 145 c 2,46,-1
 242 722 l 1,47,-1
 380 722 l 1,48,-1
 544 145 l 2,49,50
 555 105 555 105 571 93 c 128,-1,51
 587 81 587 81 608 81 c 2,52,-1
 612 81 l 1,53,-1
 612 0 l 1,54,-1
 374 0 l 1,55,-1
 374 81 l 1,56,-1
 382 81 l 2,57,58
 401 81 401 81 415 82.5 c 128,-1,59
 429 84 429 84 436.5 86.5 c 128,-1,60
 444 89 444 89 444 92 c 2,61,-1
 280 691 l 1,32,-1
EndSplineSet
EndChar

StartChar: Ainvertedbreve
Encoding: 514 514 19
Width: 626
GlyphClass: 1
Flags: W
LayerCount: 2
Fore
SplineSet
315 933 m 0,0,1
 262 933 262 933 227 917 c 128,-1,2
 192 901 192 901 174 864.5 c 128,-1,3
 156 828 156 828 155 767 c 1,4,-1
 230 767 l 1,5,6
 233 802 233 802 240 821 c 128,-1,7
 247 840 247 840 265 847.5 c 128,-1,8
 283 855 283 855 315 855 c 0,9,10
 342 855 342 855 359.5 847.5 c 128,-1,11
 377 840 377 840 385.5 821.5 c 128,-1,12
 394 803 394 803 395 767 c 1,13,-1
 475 767 l 1,14,15
 474 828 474 828 455 864.5 c 128,-1,16
 436 901 436 901 400.5 917 c 128,-1,17
 365 933 365 933 315 933 c 0,0,1
182 306 m 1,18,-1
 405 306 l 1,19,-1
 419 224 l 1,20,-1
 168 224 l 1,21,-1
 182 306 l 1,18,-1
280 691 m 1,22,-1
 318 687 l 1,23,-1
 158 103 l 2,24,25
 158 97 158 97 165 92 c 128,-1,26
 172 87 172 87 184.5 84 c 128,-1,27
 197 81 197 81 213 81 c 2,28,-1
 221 81 l 1,29,-1
 221 0 l 1,30,-1
 16 0 l 1,31,-1
 16 81 l 1,32,-1
 20 81 l 2,33,34
 37 81 37 81 51.5 93 c 128,-1,35
 66 105 66 105 77 145 c 2,36,-1
 242 722 l 1,37,-1
 380 722 l 1,38,-1
 544 145 l 2,39,40
 555 105 555 105 571.5 93 c 128,-1,41
 588 81 588 81 608 81 c 2,42,-1
 612 81 l 1,43,-1
 612 0 l 1,44,-1
 374 0 l 1,45,-1
 374 81 l 1,46,-1
 382 81 l 2,47,48
 401 81 401 81 415 82.5 c 128,-1,49
 429 84 429 84 436.5 86.5 c 128,-1,50
 444 89 444 89 444 92 c 2,51,-1
 280 691 l 1,22,-1
EndSplineSet
EndChar

StartChar: B
Encoding: 66 66 32
Width: 609
GlyphClass: 2
Flags: W
AnchorPoint: "Anchor-0" 319 741 basechar 0
LayerCount: 2
Fore
SplineSet
326 710 m 2,0,1
 377 710 377 710 416 699.5 c 128,-1,2
 455 689 455 689 481.5 667.5 c 128,-1,3
 508 646 508 646 521.5 612.5 c 128,-1,4
 535 579 535 579 535 534 c 0,5,6
 535 490 535 490 517 454 c 128,-1,7
 499 418 499 418 463 397.5 c 128,-1,8
 427 377 427 377 374 374 c 1,9,-1
 380 390 l 1,10,-1
 380 353 l 1,11,-1
 374 372 l 1,12,13
 434 368 434 368 475.5 346 c 128,-1,14
 517 324 517 324 538.5 286.5 c 128,-1,15
 560 249 560 249 560 196 c 0,16,17
 560 146 560 146 545.5 109 c 128,-1,18
 531 72 531 72 502 48 c 128,-1,19
 473 24 473 24 431 12 c 128,-1,20
 389 0 389 0 334 0 c 2,21,-1
 48 0 l 1,22,-1
 48 81 l 1,23,-1
 57 81 l 2,24,25
 77 81 77 81 94 88 c 128,-1,26
 111 95 111 95 111 117 c 2,27,-1
 111 593 l 2,28,29
 111 615 111 615 94 622 c 128,-1,30
 77 629 77 629 57 629 c 2,31,-1
 48 629 l 1,32,-1
 48 710 l 1,33,-1
 326 710 l 2,0,1
186 409 m 1,34,-1
 313 409 l 2,35,36
 352 409 352 409 375.5 422 c 128,-1,37
 399 435 399 435 409.5 461 c 128,-1,38
 420 487 420 487 420 527 c 0,39,40
 420 561 420 561 410 584 c 128,-1,41
 400 607 400 607 376.5 619 c 128,-1,42
 353 631 353 631 314 631 c 2,43,-1
 223 631 l 1,44,-1
 223 79 l 1,45,-1
 320 79 l 2,46,47
 364 79 364 79 391 93 c 128,-1,48
 418 107 418 107 430.5 135 c 128,-1,49
 443 163 443 163 443 203 c 0,50,51
 443 245 443 245 429.5 274.5 c 128,-1,52
 416 304 416 304 387 319 c 128,-1,53
 358 334 358 334 311 334 c 2,54,-1
 186 334 l 1,55,-1
 186 409 l 1,34,-1
EndSplineSet
EndChar

StartChar: C
Encoding: 67 67 33
Width: 632
GlyphClass: 2
Flags: W
AnchorPoint: "Anchor-1" 334 0 basechar 0
AnchorPoint: "Anchor-0" 334 741 basechar 0
LayerCount: 2
Fore
SplineSet
327 653 m 0,0,1
 285 653 285 653 255 635.5 c 128,-1,2
 225 618 225 618 205.5 582.5 c 128,-1,3
 186 547 186 547 177 490.5 c 128,-1,4
 168 434 168 434 168 357 c 0,5,6
 168 279 168 279 177.5 222 c 128,-1,7
 187 165 187 165 207 128.5 c 128,-1,8
 227 92 227 92 259 74.5 c 128,-1,9
 291 57 291 57 336 57 c 0,10,11
 389 57 389 57 422.5 81.5 c 128,-1,12
 456 106 456 106 476.5 145 c 128,-1,13
 497 184 497 184 509 227 c 1,14,-1
 581 197 l 1,15,16
 562 131 562 131 529 81.5 c 128,-1,17
 496 32 496 32 446 4.5 c 128,-1,18
 396 -23 396 -23 327 -23 c 0,19,20
 264 -23 264 -23 213 1 c 128,-1,21
 162 25 162 25 125 73 c 128,-1,22
 88 121 88 121 68 192 c 128,-1,23
 48 263 48 263 48 357 c 0,24,25
 48 450 48 450 68 520.5 c 128,-1,26
 88 591 88 591 124.5 638.5 c 128,-1,27
 161 686 161 686 210.5 709.5 c 128,-1,28
 260 733 260 733 320 733 c 0,29,30
 374 733 374 733 413.5 707.5 c 128,-1,31
 453 682 453 682 477.5 632 c 128,-1,32
 502 582 502 582 507 505 c 1,33,-1
 482 533 l 1,34,-1
 497 719 l 1,35,-1
 574 719 l 1,36,-1
 574 473 l 1,37,-1
 487 473 l 1,38,39
 471 531 471 531 449 571 c 128,-1,40
 427 611 427 611 397 632 c 128,-1,41
 367 653 367 653 327 653 c 0,0,1
EndSplineSet
EndChar

StartChar: Ccaron
Encoding: 268 268 38
Width: 632
GlyphClass: 1
Flags: W
LayerCount: 2
Fore
SplineSet
281 805 m 1,0,-1
 357 805 l 1,1,-1
 470 959 l 1,2,-1
 470 982 l 1,3,-1
 416 982 l 1,4,-1
 266 847 l 1,5,-1
 379 848 l 1,6,-1
 229 982 l 1,7,-1
 167 982 l 1,8,-1
 167 959 l 1,9,-1
 281 805 l 1,0,-1
327 653 m 0,10,11
 285 653 285 653 255 635.5 c 128,-1,12
 225 618 225 618 205.5 582.5 c 128,-1,13
 186 547 186 547 177 490.5 c 128,-1,14
 168 434 168 434 168 357 c 0,15,16
 168 279 168 279 177.5 222 c 128,-1,17
 187 165 187 165 207 128.5 c 128,-1,18
 227 92 227 92 259 74.5 c 128,-1,19
 291 57 291 57 336 57 c 0,20,21
 389 57 389 57 422.5 81.5 c 128,-1,22
 456 106 456 106 476.5 145 c 128,-1,23
 497 184 497 184 509 227 c 1,24,-1
 581 197 l 1,25,26
 562 131 562 131 529 81.5 c 128,-1,27
 496 32 496 32 446 4.5 c 128,-1,28
 396 -23 396 -23 327 -23 c 0,29,30
 264 -23 264 -23 213 1 c 128,-1,31
 162 25 162 25 125 73 c 128,-1,32
 88 121 88 121 68 192 c 128,-1,33
 48 263 48 263 48 357 c 0,34,35
 48 450 48 450 68 520.5 c 128,-1,36
 88 591 88 591 124.5 638.5 c 128,-1,37
 161 686 161 686 210.5 709.5 c 128,-1,38
 260 733 260 733 320 733 c 0,39,40
 374 733 374 733 413.5 707.5 c 128,-1,41
 453 682 453 682 477.5 632 c 128,-1,42
 502 582 502 582 507 505 c 1,43,-1
 482 533 l 1,44,-1
 497 719 l 1,45,-1
 574 719 l 1,46,-1
 574 473 l 1,47,-1
 487 473 l 1,48,49
 471 531 471 531 449 571 c 128,-1,50
 427 611 427 611 397 632 c 128,-1,51
 367 653 367 653 327 653 c 0,10,11
EndSplineSet
EndChar

StartChar: D
Encoding: 68 68 40
Width: 664
GlyphClass: 2
Flags: W
AnchorPoint: "Anchor-1" 335 0 basechar 0
AnchorPoint: "Anchor-0" 335 741 basechar 0
LayerCount: 2
Fore
SplineSet
48 629 m 1,0,-1
 48 710 l 1,1,-1
 306 710 l 2,2,3
 378 710 378 710 435.5 689 c 128,-1,4
 493 668 493 668 533.5 625 c 128,-1,5
 574 582 574 582 595 515.5 c 128,-1,6
 616 449 616 449 616 359 c 256,7,8
 616 269 616 269 595 201.5 c 128,-1,9
 574 134 574 134 533.5 89.5 c 128,-1,10
 493 45 493 45 435.5 22.5 c 128,-1,11
 378 0 378 0 306 0 c 2,12,-1
 48 0 l 1,13,-1
 48 81 l 1,14,-1
 57 81 l 2,15,16
 77 81 77 81 94 88 c 128,-1,17
 111 95 111 95 111 117 c 2,18,-1
 111 593 l 2,19,20
 111 615 111 615 94 622 c 128,-1,21
 77 629 77 629 57 629 c 2,22,-1
 48 629 l 1,0,-1
298 631 m 2,23,-1
 223 631 l 1,24,-1
 223 79 l 1,25,-1
 298 79 l 2,26,27
 349 79 349 79 386.5 96 c 128,-1,28
 424 113 424 113 449 147.5 c 128,-1,29
 474 182 474 182 485.5 235 c 128,-1,30
 497 288 497 288 497 359 c 256,31,32
 497 430 497 430 485.5 482 c 128,-1,33
 474 534 474 534 449 566.5 c 128,-1,34
 424 599 424 599 386.5 615 c 128,-1,35
 349 631 349 631 298 631 c 2,23,-1
EndSplineSet
EndChar

StartChar: Dcaron
Encoding: 270 270 41
Width: 664
GlyphClass: 1
Flags: W
LayerCount: 2
Fore
SplineSet
289 805 m 1,0,-1
 365 805 l 1,1,-1
 479 959 l 1,2,-1
 479 982 l 1,3,-1
 424 982 l 1,4,-1
 274 847 l 1,5,-1
 387 848 l 1,6,-1
 237 982 l 1,7,-1
 175 982 l 1,8,-1
 175 959 l 1,9,-1
 289 805 l 1,0,-1
48 629 m 1,10,-1
 48 710 l 1,11,-1
 306 710 l 2,12,13
 378 710 378 710 435.5 689 c 128,-1,14
 493 668 493 668 533.5 625 c 128,-1,15
 574 582 574 582 595 515.5 c 128,-1,16
 616 449 616 449 616 359 c 256,17,18
 616 269 616 269 595 201.5 c 128,-1,19
 574 134 574 134 533.5 89.5 c 128,-1,20
 493 45 493 45 435.5 22.5 c 128,-1,21
 378 0 378 0 306 0 c 2,22,-1
 48 0 l 1,23,-1
 48 81 l 1,24,-1
 57 81 l 2,25,26
 77 81 77 81 94 88 c 128,-1,27
 111 95 111 95 111 117 c 2,28,-1
 111 593 l 2,29,30
 111 615 111 615 94 622 c 128,-1,31
 77 629 77 629 57 629 c 2,32,-1
 48 629 l 1,10,-1
298 631 m 2,33,-1
 223 631 l 1,34,-1
 223 79 l 1,35,-1
 298 79 l 2,36,37
 349 79 349 79 386.5 96 c 128,-1,38
 424 113 424 113 449 147.5 c 128,-1,39
 474 182 474 182 485.5 235 c 128,-1,40
 497 288 497 288 497 359 c 256,41,42
 497 430 497 430 485.5 482 c 128,-1,43
 474 534 474 534 449 566.5 c 128,-1,44
 424 599 424 599 386.5 615 c 128,-1,45
 349 631 349 631 298 631 c 2,33,-1
EndSplineSet
EndChar

StartChar: E
Encoding: 69 69 44
Width: 595
GlyphClass: 2
Flags: W
AnchorPoint: "Anchor-2" 412 0 basechar 0
AnchorPoint: "Anchor-1" 352 0 basechar 0
AnchorPoint: "Anchor-0" 352 741 basechar 0
LayerCount: 2
Fore
SplineSet
539 223 m 1,0,-1
 539 0 l 1,1,-1
 48 0 l 1,2,-1
 48 81 l 1,3,-1
 57 81 l 2,4,5
 77 81 77 81 94 88 c 128,-1,6
 111 95 111 95 111 118 c 2,7,-1
 111 593 l 2,8,9
 111 615 111 615 94 622 c 128,-1,10
 77 629 77 629 57 629 c 2,11,-1
 48 629 l 1,12,-1
 48 710 l 1,13,-1
 521 710 l 1,14,-1
 521 512 l 1,15,-1
 442 512 l 1,16,-1
 432 586 l 2,17,18
 429 604 429 604 419 613.5 c 128,-1,19
 409 623 409 623 389 627 c 128,-1,20
 369 631 369 631 338 631 c 2,21,-1
 223 631 l 1,22,-1
 223 79 l 1,23,-1
 350 79 l 2,24,25
 375 79 375 79 393 81 c 128,-1,26
 411 83 411 83 422 88 c 128,-1,27
 433 93 433 93 439.5 102 c 128,-1,28
 446 111 446 111 447 124 c 2,29,-1
 458 223 l 1,30,-1
 539 223 l 1,0,-1
210 401 m 1,31,32
 249 404 249 404 288 406.5 c 128,-1,33
 327 409 327 409 366 411.5 c 128,-1,34
 405 414 405 414 444 416 c 1,35,-1
 444 315 l 1,36,37
 405 317 405 317 366.5 319 c 128,-1,38
 328 321 328 321 288.5 323.5 c 128,-1,39
 249 326 249 326 210 329 c 1,40,-1
 210 401 l 1,31,32
EndSplineSet
Substitution2: "'ss01' Style Set 1 lookup 61 subtable" E.alt
EndChar

StartChar: Ecaron
Encoding: 282 282 53
Width: 595
GlyphClass: 1
Flags: W
LayerCount: 2
Fore
SplineSet
268 805 m 1,0,-1
 343 805 l 1,1,-1
 457 959 l 1,2,-1
 457 982 l 1,3,-1
 403 982 l 1,4,-1
 252 847 l 1,5,-1
 365 848 l 1,6,-1
 216 982 l 1,7,-1
 154 982 l 1,8,-1
 154 959 l 1,9,-1
 268 805 l 1,0,-1
539 223 m 1,10,-1
 539 0 l 1,11,-1
 48 0 l 1,12,-1
 48 81 l 1,13,-1
 57 81 l 2,14,15
 77 81 77 81 94 88 c 128,-1,16
 111 95 111 95 111 118 c 2,17,-1
 111 593 l 2,18,19
 111 615 111 615 94 622 c 128,-1,20
 77 629 77 629 57 629 c 2,21,-1
 48 629 l 1,22,-1
 48 710 l 1,23,-1
 521 710 l 1,24,-1
 521 512 l 1,25,-1
 442 512 l 1,26,-1
 432 586 l 2,27,28
 429 604 429 604 419 613.5 c 128,-1,29
 409 623 409 623 389 627 c 128,-1,30
 369 631 369 631 338 631 c 2,31,-1
 223 631 l 1,32,-1
 223 79 l 1,33,-1
 350 79 l 2,34,35
 375 79 375 79 393 81 c 128,-1,36
 411 83 411 83 422 88 c 128,-1,37
 433 93 433 93 439.5 102 c 128,-1,38
 446 111 446 111 447 124 c 2,39,-1
 458 223 l 1,40,-1
 539 223 l 1,10,-1
210 401 m 1,41,42
 249 404 249 404 288 406.5 c 128,-1,43
 327 409 327 409 366 411.5 c 128,-1,44
 405 414 405 414 444 416 c 1,45,-1
 444 315 l 1,46,47
 405 317 405 317 366.5 319 c 128,-1,48
 328 321 328 321 288.5 323.5 c 128,-1,49
 249 326 249 326 210 329 c 1,50,-1
 210 401 l 1,41,42
EndSplineSet
Substitution2: "'ss01' Style Set 1 lookup 61 subtable" Ecaron.alt
EndChar

StartChar: Edblgrave
Encoding: 516 516 54
Width: 595
GlyphClass: 1
Flags: W
LayerCount: 2
Fore
SplineSet
381 925 m 2,0,-1
 418 828 l 1,1,-1
 418 792 l 1,2,-1
 375 792 l 1,3,-1
 309 857 l 2,4,5
 290 876 290 876 279.5 895 c 128,-1,6
 269 914 269 914 269 935 c 0,7,8
 269 954 269 954 282 967 c 128,-1,9
 295 980 295 980 318 980 c 0,10,11
 335 980 335 980 347 972 c 128,-1,12
 359 964 359 964 367.5 951.5 c 128,-1,13
 376 939 376 939 381 925 c 2,0,-1
208 925 m 2,14,-1
 242 828 l 1,15,-1
 242 792 l 1,16,-1
 199 792 l 1,17,-1
 134 857 l 2,18,19
 115 876 115 876 104 895 c 128,-1,20
 93 914 93 914 93 935 c 0,21,22
 93 954 93 954 106 967 c 128,-1,23
 119 980 119 980 143 980 c 0,24,25
 160 980 160 980 172 972 c 128,-1,26
 184 964 184 964 193.5 951.5 c 128,-1,27
 203 939 203 939 208 925 c 2,14,-1
539 223 m 1,28,-1
 539 0 l 1,29,-1
 48 0 l 1,30,-1
 48 81 l 1,31,-1
 57 81 l 2,32,33
 77 81 77 81 94 88 c 128,-1,34
 111 95 111 95 111 117 c 2,35,-1
 111 593 l 2,36,37
 111 615 111 615 94 622 c 128,-1,38
 77 629 77 629 57 629 c 2,39,-1
 48 629 l 1,40,-1
 48 710 l 1,41,-1
 521 710 l 1,42,-1
 521 512 l 1,43,-1
 442 512 l 1,44,-1
 432 586 l 2,45,46
 429 604 429 604 419 613.5 c 128,-1,47
 409 623 409 623 389.5 627 c 128,-1,48
 370 631 370 631 338 631 c 2,49,-1
 223 631 l 1,50,-1
 223 79 l 1,51,-1
 350 79 l 2,52,53
 375 79 375 79 393 81 c 128,-1,54
 411 83 411 83 422 88 c 128,-1,55
 433 93 433 93 439.5 102 c 128,-1,56
 446 111 446 111 447 124 c 2,57,-1
 458 223 l 1,58,-1
 539 223 l 1,28,-1
210 401 m 1,59,60
 249 404 249 404 288 406.5 c 128,-1,61
 327 409 327 409 366 411.5 c 128,-1,62
 405 414 405 414 444 416 c 1,63,-1
 444 315 l 1,64,65
 405 316 405 316 366 318.5 c 128,-1,66
 327 321 327 321 288 323.5 c 128,-1,67
 249 326 249 326 210 329 c 1,68,-1
 210 401 l 1,59,60
EndSplineSet
Substitution2: "'ss01' Style Set 1 lookup 61 subtable" Edblgrave.alt
EndChar

StartChar: Einvertedbreve
Encoding: 518 518 55
Width: 595
GlyphClass: 1
Flags: W
LayerCount: 2
Fore
SplineSet
294 933 m 0,0,1
 240 933 240 933 205.5 917 c 128,-1,2
 171 901 171 901 153 864.5 c 128,-1,3
 135 828 135 828 134 767 c 1,4,-1
 209 767 l 1,5,6
 212 802 212 802 219 821 c 128,-1,7
 226 840 226 840 244 847.5 c 128,-1,8
 262 855 262 855 293 855 c 0,9,10
 321 855 321 855 338.5 847.5 c 128,-1,11
 356 840 356 840 364.5 821.5 c 128,-1,12
 373 803 373 803 374 767 c 1,13,-1
 454 767 l 1,14,15
 453 828 453 828 434 864.5 c 128,-1,16
 415 901 415 901 379.5 917 c 128,-1,17
 344 933 344 933 294 933 c 0,0,1
539 223 m 1,18,-1
 539 0 l 1,19,-1
 48 0 l 1,20,-1
 48 81 l 1,21,-1
 57 81 l 2,22,23
 77 81 77 81 94 88 c 128,-1,24
 111 95 111 95 111 118 c 2,25,-1
 111 593 l 2,26,27
 111 615 111 615 94 622 c 128,-1,28
 77 629 77 629 57 629 c 2,29,-1
 48 629 l 1,30,-1
 48 710 l 1,31,-1
 521 710 l 1,32,-1
 521 512 l 1,33,-1
 442 512 l 1,34,-1
 432 586 l 2,35,36
 429 604 429 604 419 613.5 c 128,-1,37
 409 623 409 623 389 627 c 128,-1,38
 369 631 369 631 338 631 c 2,39,-1
 223 631 l 1,40,-1
 223 79 l 1,41,-1
 350 79 l 2,42,43
 375 79 375 79 393 81 c 128,-1,44
 411 83 411 83 422 88 c 128,-1,45
 433 93 433 93 439.5 102 c 128,-1,46
 446 111 446 111 447 124 c 2,47,-1
 458 223 l 1,48,-1
 539 223 l 1,18,-1
210 401 m 1,49,50
 249 404 249 404 288 406.5 c 128,-1,51
 327 409 327 409 366.5 411.5 c 128,-1,52
 406 414 406 414 444 416 c 1,53,-1
 444 315 l 1,54,55
 405 316 405 316 366 318.5 c 128,-1,56
 327 321 327 321 288 323.5 c 128,-1,57
 249 326 249 326 210 329 c 1,58,-1
 210 401 l 1,49,50
EndSplineSet
Substitution2: "'ss01' Style Set 1 lookup 61 subtable" Einvertedbreve.alt
EndChar

StartChar: F
Encoding: 70 70 67
Width: 571
GlyphClass: 2
Flags: W
AnchorPoint: "Anchor-0" 312 741 basechar 0
LayerCount: 2
Fore
SplineSet
223 631 m 1,0,-1
 223 91 l 2,1,2
 223 88 223 88 229.5 86.5 c 128,-1,3
 236 85 236 85 246 83.5 c 128,-1,4
 256 82 256 82 269 81.5 c 128,-1,5
 282 81 282 81 296 81 c 2,6,-1
 311 81 l 1,7,-1
 311 0 l 1,8,-1
 48 0 l 1,9,-1
 48 81 l 1,10,-1
 57 81 l 2,11,12
 77 81 77 81 94 88 c 128,-1,13
 111 95 111 95 111 118 c 2,14,-1
 111 593 l 2,15,16
 111 615 111 615 94 622 c 128,-1,17
 77 629 77 629 57 629 c 2,18,-1
 48 629 l 1,19,-1
 48 710 l 1,20,-1
 521 710 l 1,21,-1
 521 508 l 1,22,-1
 442 508 l 1,23,-1
 432 586 l 2,24,25
 430 604 430 604 419.5 613.5 c 128,-1,26
 409 623 409 623 389 627 c 128,-1,27
 369 631 369 631 338 631 c 2,28,-1
 223 631 l 1,0,-1
210 394 m 1,29,30
 249 396 249 396 288.5 398.5 c 128,-1,31
 328 401 328 401 366.5 404 c 128,-1,32
 405 407 405 407 444 408 c 1,33,-1
 444 307 l 1,34,35
 405 310 405 310 366.5 312 c 128,-1,36
 328 314 328 314 288.5 316.5 c 128,-1,37
 249 319 249 319 210 321 c 1,38,-1
 210 394 l 1,29,30
EndSplineSet
Substitution2: "'ss01' Style Set 1 lookup 61 subtable" F.alt
EndChar

StartChar: G
Encoding: 71 71 68
Width: 670
GlyphClass: 2
Flags: W
AnchorPoint: "Anchor-1" 341 0 basechar 0
AnchorPoint: "Anchor-0" 341 741 basechar 0
LayerCount: 2
Fore
SplineSet
576 229 m 2,0,-1
 576 80 l 1,1,2
 557 58 557 58 532 39 c 128,-1,3
 507 20 507 20 477 6.5 c 128,-1,4
 447 -7 447 -7 413 -15 c 128,-1,5
 379 -23 379 -23 341 -23 c 0,6,7
 274 -23 274 -23 219.5 1 c 128,-1,8
 165 25 165 25 127 73 c 128,-1,9
 89 121 89 121 68.5 192 c 128,-1,10
 48 263 48 263 48 357 c 0,11,12
 48 450 48 450 69 520.5 c 128,-1,13
 90 591 90 591 127.5 638.5 c 128,-1,14
 165 686 165 686 216.5 709.5 c 128,-1,15
 268 733 268 733 328 733 c 0,16,17
 383 733 383 733 421 710.5 c 128,-1,18
 459 688 459 688 481.5 643 c 128,-1,19
 504 598 504 598 514 529 c 1,20,-1
 488 556 l 1,21,-1
 501 719 l 1,22,-1
 577 719 l 1,23,-1
 577 502 l 1,24,-1
 497 502 l 1,25,26
 483 547 483 547 461 581 c 128,-1,27
 439 615 439 615 408.5 634 c 128,-1,28
 378 653 378 653 335 653 c 0,29,30
 293 653 293 653 262 635.5 c 128,-1,31
 231 618 231 618 210 582 c 128,-1,32
 189 546 189 546 178.5 490 c 128,-1,33
 168 434 168 434 168 357 c 0,34,35
 168 278 168 278 178.5 221 c 128,-1,36
 189 164 189 164 210 127.5 c 128,-1,37
 231 91 231 91 265 74 c 128,-1,38
 299 57 299 57 344 57 c 0,39,40
 370 57 370 57 393.5 64 c 128,-1,41
 417 71 417 71 436 82.5 c 128,-1,42
 455 94 455 94 469 108 c 1,43,-1
 469 229 l 2,44,45
 469 254 469 254 448 261.5 c 128,-1,46
 427 269 427 269 397 269 c 2,47,-1
 372 269 l 1,48,-1
 372 349 l 1,49,-1
 650 349 l 1,50,-1
 650 269 l 1,51,-1
 630 269 l 2,52,53
 604 269 604 269 590 261.5 c 128,-1,54
 576 254 576 254 576 229 c 2,0,-1
EndSplineSet
EndChar

StartChar: Gcaron
Encoding: 486 486 73
Width: 670
GlyphClass: 1
Flags: W
LayerCount: 2
Fore
SplineSet
299 805 m 1,0,-1
 375 805 l 1,1,-1
 489 959 l 1,2,-1
 489 982 l 1,3,-1
 434 982 l 1,4,-1
 284 847 l 1,5,-1
 397 848 l 1,6,-1
 247 982 l 1,7,-1
 185 982 l 1,8,-1
 185 959 l 1,9,-1
 299 805 l 1,0,-1
576 229 m 2,10,-1
 576 80 l 1,11,12
 557 58 557 58 532 39 c 128,-1,13
 507 20 507 20 477 6.5 c 128,-1,14
 447 -7 447 -7 413 -15 c 128,-1,15
 379 -23 379 -23 341 -23 c 0,16,17
 274 -23 274 -23 219.5 1 c 128,-1,18
 165 25 165 25 127 73 c 128,-1,19
 89 121 89 121 68.5 192 c 128,-1,20
 48 263 48 263 48 357 c 0,21,22
 48 450 48 450 69 520.5 c 128,-1,23
 90 591 90 591 127.5 638.5 c 128,-1,24
 165 686 165 686 216.5 709.5 c 128,-1,25
 268 733 268 733 328 733 c 0,26,27
 383 733 383 733 421 710.5 c 128,-1,28
 459 688 459 688 481.5 643 c 128,-1,29
 504 598 504 598 514 529 c 1,30,-1
 488 556 l 1,31,-1
 501 719 l 1,32,-1
 577 719 l 1,33,-1
 577 502 l 1,34,-1
 497 502 l 1,35,36
 483 547 483 547 461 581 c 128,-1,37
 439 615 439 615 408.5 634 c 128,-1,38
 378 653 378 653 335 653 c 0,39,40
 293 653 293 653 262 635.5 c 128,-1,41
 231 618 231 618 210 582 c 128,-1,42
 189 546 189 546 178.5 490 c 128,-1,43
 168 434 168 434 168 357 c 0,44,45
 168 278 168 278 178.5 221 c 128,-1,46
 189 164 189 164 210 127.5 c 128,-1,47
 231 91 231 91 265 74 c 128,-1,48
 299 57 299 57 344 57 c 0,49,50
 370 57 370 57 393.5 64 c 128,-1,51
 417 71 417 71 436 82.5 c 128,-1,52
 455 94 455 94 469 108 c 1,53,-1
 469 229 l 2,54,55
 469 254 469 254 448 261.5 c 128,-1,56
 427 269 427 269 397 269 c 2,57,-1
 372 269 l 1,58,-1
 372 349 l 1,59,-1
 650 349 l 1,60,-1
 650 269 l 1,61,-1
 630 269 l 2,62,63
 604 269 604 269 590 261.5 c 128,-1,64
 576 254 576 254 576 229 c 2,10,-1
EndSplineSet
EndChar

StartChar: H
Encoding: 72 72 75
Width: 720
GlyphClass: 2
Flags: W
AnchorPoint: "Anchor-1" 360 0 basechar 0
AnchorPoint: "Anchor-0" 360 741 basechar 0
LayerCount: 2
Fore
SplineSet
187 407 m 1,0,-1
 528 407 l 1,1,-1
 528 325 l 1,2,-1
 187 325 l 1,3,-1
 187 407 l 1,0,-1
48 0 m 1,4,-1
 48 81 l 1,5,-1
 57 81 l 2,6,7
 77 81 77 81 94 88 c 128,-1,8
 111 95 111 95 111 118 c 2,9,-1
 111 593 l 2,10,11
 111 615 111 615 94 622 c 128,-1,12
 77 629 77 629 57 629 c 2,13,-1
 48 629 l 1,14,-1
 48 710 l 1,15,-1
 294 710 l 1,16,-1
 294 630 l 1,17,-1
 287 630 l 2,18,19
 276 630 276 630 265 629 c 128,-1,20
 254 628 254 628 245 626.5 c 128,-1,21
 236 625 236 625 229.5 623.5 c 128,-1,22
 223 622 223 622 223 619 c 2,23,-1
 223 90 l 2,24,25
 223 87 223 87 229.5 86 c 128,-1,26
 236 85 236 85 245.5 83.5 c 128,-1,27
 255 82 255 82 266 81.5 c 128,-1,28
 277 81 277 81 286 81 c 2,29,-1
 294 81 l 1,30,-1
 294 0 l 1,31,-1
 48 0 l 1,4,-1
427 0 m 1,32,-1
 427 80 l 1,33,-1
 434 80 l 2,34,35
 444 80 444 80 455 81 c 128,-1,36
 466 82 466 82 475.5 83.5 c 128,-1,37
 485 85 485 85 491 86.5 c 128,-1,38
 497 88 497 88 497 91 c 2,39,-1
 497 620 l 2,40,41
 497 623 497 623 491 624 c 128,-1,42
 485 625 485 625 475.5 626.5 c 128,-1,43
 466 628 466 628 455 628.5 c 128,-1,44
 444 629 444 629 434 629 c 2,45,-1
 427 629 l 1,46,-1
 427 710 l 1,47,-1
 672 710 l 1,48,-1
 672 629 l 1,49,-1
 663 629 l 2,50,51
 644 629 644 629 627 622 c 128,-1,52
 610 615 610 615 610 592 c 2,53,-1
 610 117 l 2,54,55
 610 95 610 95 627 88 c 128,-1,56
 644 81 644 81 663 81 c 2,57,-1
 672 81 l 1,58,-1
 672 0 l 1,59,-1
 427 0 l 1,32,-1
EndSplineSet
EndChar

StartChar: I
Encoding: 73 73 79
Width: 352
GlyphClass: 2
Flags: W
AnchorPoint: "Anchor-2" 231 0 basechar 0
AnchorPoint: "Anchor-1" 176 0 basechar 0
AnchorPoint: "Anchor-0" 176 741 basechar 0
LayerCount: 2
Fore
SplineSet
120 118 m 2,0,-1
 120 593 l 2,1,2
 120 615 120 615 102.5 622 c 128,-1,3
 85 629 85 629 61 629 c 2,4,-1
 45 629 l 1,5,-1
 45 710 l 1,6,-1
 307 710 l 1,7,-1
 307 629 l 1,8,-1
 291 629 l 2,9,10
 267 629 267 629 250 622 c 128,-1,11
 233 615 233 615 233 592 c 2,12,-1
 233 117 l 2,13,14
 233 95 233 95 250 88 c 128,-1,15
 267 81 267 81 291 81 c 2,16,-1
 307 81 l 1,17,-1
 307 0 l 1,18,-1
 45 0 l 1,19,-1
 45 81 l 1,20,-1
 61 81 l 2,21,22
 85 81 85 81 102.5 88 c 128,-1,23
 120 95 120 95 120 118 c 2,0,-1
EndSplineSet
EndChar

StartChar: Icaron
Encoding: 463 463 89
Width: 352
GlyphClass: 1
Flags: W
LayerCount: 2
Fore
SplineSet
139 805 m 1,0,-1
 214 805 l 1,1,-1
 328 959 l 1,2,-1
 328 982 l 1,3,-1
 273 982 l 1,4,-1
 123 847 l 1,5,-1
 236 848 l 1,6,-1
 87 982 l 1,7,-1
 24 982 l 1,8,-1
 24 959 l 1,9,-1
 139 805 l 1,0,-1
120 118 m 2,10,-1
 120 593 l 2,11,12
 120 615 120 615 102.5 622 c 128,-1,13
 85 629 85 629 61 629 c 2,14,-1
 45 629 l 1,15,-1
 45 710 l 1,16,-1
 307 710 l 1,17,-1
 307 629 l 1,18,-1
 291 629 l 2,19,20
 267 629 267 629 250 622 c 128,-1,21
 233 615 233 615 233 592 c 2,22,-1
 233 117 l 2,23,24
 233 95 233 95 250 88 c 128,-1,25
 267 81 267 81 291 81 c 2,26,-1
 307 81 l 1,27,-1
 307 0 l 1,28,-1
 45 0 l 1,29,-1
 45 81 l 1,30,-1
 61 81 l 2,31,32
 85 81 85 81 102.5 88 c 128,-1,33
 120 95 120 95 120 118 c 2,10,-1
EndSplineSet
EndChar

StartChar: Idblgrave
Encoding: 520 520 90
Width: 352
GlyphClass: 1
Flags: W
LayerCount: 2
Fore
SplineSet
264 925 m 2,0,-1
 301 828 l 1,1,-1
 301 792 l 1,2,-1
 258 792 l 1,3,-1
 192 857 l 2,4,5
 173 876 173 876 162.5 895 c 128,-1,6
 152 914 152 914 152 935 c 0,7,8
 152 954 152 954 165 967 c 128,-1,9
 178 980 178 980 201 980 c 0,10,11
 218 980 218 980 230 972 c 128,-1,12
 242 964 242 964 250 951.5 c 128,-1,13
 258 939 258 939 264 925 c 2,0,-1
90 925 m 2,14,-1
 125 828 l 1,15,-1
 125 792 l 1,16,-1
 82 792 l 1,17,-1
 17 857 l 2,18,19
 -2 876 -2 876 -13.5 895 c 128,-1,20
 -25 914 -25 914 -25 935 c 0,21,22
 -25 954 -25 954 -11 967 c 128,-1,23
 3 980 3 980 25 980 c 0,24,25
 43 980 43 980 55 972 c 128,-1,26
 67 964 67 964 76.5 951.5 c 128,-1,27
 86 939 86 939 90 925 c 2,14,-1
120 117 m 2,28,-1
 120 593 l 2,29,30
 120 615 120 615 102.5 622 c 128,-1,31
 85 629 85 629 61 629 c 2,32,-1
 45 629 l 1,33,-1
 45 710 l 1,34,-1
 307 710 l 1,35,-1
 307 629 l 1,36,-1
 291 629 l 2,37,38
 267 629 267 629 250 622 c 128,-1,39
 233 615 233 615 233 593 c 2,40,-1
 233 117 l 2,41,42
 233 95 233 95 250 88 c 128,-1,43
 267 81 267 81 291 81 c 2,44,-1
 307 81 l 1,45,-1
 307 0 l 1,46,-1
 45 0 l 1,47,-1
 45 81 l 1,48,-1
 61 81 l 2,49,50
 85 81 85 81 102.5 88 c 128,-1,51
 120 95 120 95 120 117 c 2,28,-1
EndSplineSet
EndChar

StartChar: Iinvertedbreve
Encoding: 522 522 91
Width: 352
GlyphClass: 1
Flags: W
LayerCount: 2
Fore
SplineSet
176 933 m 0,0,1
 123 933 123 933 88.5 917 c 128,-1,2
 54 901 54 901 35.5 864.5 c 128,-1,3
 17 828 17 828 17 767 c 1,4,-1
 92 767 l 1,5,6
 94 802 94 802 101.5 821 c 128,-1,7
 109 840 109 840 127 847.5 c 128,-1,8
 145 855 145 855 176 855 c 0,9,10
 204 855 204 855 221.5 847.5 c 128,-1,11
 239 840 239 840 247.5 821.5 c 128,-1,12
 256 803 256 803 257 767 c 1,13,-1
 337 767 l 1,14,15
 336 828 336 828 317 864.5 c 128,-1,16
 298 901 298 901 262.5 917 c 128,-1,17
 227 933 227 933 176 933 c 0,0,1
120 118 m 2,18,-1
 120 593 l 2,19,20
 120 615 120 615 102.5 622 c 128,-1,21
 85 629 85 629 61 629 c 2,22,-1
 45 629 l 1,23,-1
 45 710 l 1,24,-1
 307 710 l 1,25,-1
 307 629 l 1,26,-1
 291 629 l 2,27,28
 267 629 267 629 250 622 c 128,-1,29
 233 615 233 615 233 592 c 2,30,-1
 233 117 l 2,31,32
 233 95 233 95 250 88 c 128,-1,33
 267 81 267 81 291 81 c 2,34,-1
 307 81 l 1,35,-1
 307 0 l 1,36,-1
 45 0 l 1,37,-1
 45 81 l 1,38,-1
 61 81 l 2,39,40
 85 81 85 81 102.5 88 c 128,-1,41
 120 95 120 95 120 118 c 2,18,-1
EndSplineSet
EndChar

StartChar: J
Encoding: 74 74 94
Width: 560
GlyphClass: 2
Flags: W
AnchorPoint: "Anchor-0" 377 741 basechar 0
LayerCount: 2
Fore
SplineSet
255 710 m 1,0,-1
 524 710 l 1,1,-1
 524 629 l 1,2,-1
 507 629 l 2,3,4
 486 629 486 629 470 622 c 128,-1,5
 454 615 454 615 454 593 c 2,6,-1
 454 203 l 2,7,8
 454 142 454 142 436.5 98.5 c 128,-1,9
 419 55 419 55 389 28.5 c 128,-1,10
 359 2 359 2 318.5 -10.5 c 128,-1,11
 278 -23 278 -23 231 -23 c 0,12,13
 181 -23 181 -23 143.5 -11 c 128,-1,14
 106 1 106 1 81.5 17 c 128,-1,15
 57 33 57 33 43 44 c 1,16,-1
 43 214 l 1,17,-1
 157 214 l 1,18,-1
 157 32 l 1,19,20
 144 38 144 38 132.5 49 c 128,-1,21
 121 60 121 60 114 72.5 c 128,-1,22
 107 85 107 85 106.5 95 c 128,-1,23
 106 105 106 105 114 107 c 1,24,25
 126 97 126 97 142.5 85.5 c 128,-1,26
 159 74 159 74 180 66 c 128,-1,27
 201 58 201 58 228 58 c 0,28,29
 264 58 264 58 289.5 70.5 c 128,-1,30
 315 83 315 83 328 115.5 c 128,-1,31
 341 148 341 148 341 206 c 2,32,-1
 341 593 l 2,33,34
 341 608 341 608 332 615.5 c 128,-1,35
 323 623 323 623 308.5 626 c 128,-1,36
 294 629 294 629 276 629 c 2,37,-1
 255 629 l 1,38,-1
 255 710 l 1,0,-1
EndSplineSet
EndChar

StartChar: K
Encoding: 75 75 96
Width: 665
GlyphClass: 2
Flags: W
AnchorPoint: "Anchor-1" 343 0 basechar 0
AnchorPoint: "Anchor-0" 343 741 basechar 0
LayerCount: 2
Fore
SplineSet
48 0 m 1,0,-1
 48 81 l 1,1,-1
 57 81 l 2,2,3
 77 81 77 81 94 88 c 128,-1,4
 111 95 111 95 111 118 c 2,5,-1
 111 593 l 2,6,7
 111 615 111 615 94 622 c 128,-1,8
 77 629 77 629 57 629 c 2,9,-1
 48 629 l 1,10,-1
 48 710 l 1,11,-1
 293 710 l 1,12,-1
 293 629 l 1,13,-1
 285 629 l 2,14,15
 275 629 275 629 264 628.5 c 128,-1,16
 253 628 253 628 243.5 626.5 c 128,-1,17
 234 625 234 625 228.5 623.5 c 128,-1,18
 223 622 223 622 223 619 c 2,19,-1
 223 90 l 2,20,21
 223 88 223 88 228.5 86.5 c 128,-1,22
 234 85 234 85 243 83.5 c 128,-1,23
 252 82 252 82 263 81.5 c 128,-1,24
 274 81 274 81 282 81 c 2,25,-1
 289 81 l 1,26,-1
 289 0 l 1,27,-1
 48 0 l 1,0,-1
386 0 m 1,28,-1
 386 81 l 1,29,-1
 393 81 l 2,30,31
 408 81 408 81 421.5 82 c 128,-1,32
 435 83 435 83 444 85.5 c 128,-1,33
 453 88 453 88 453 91 c 2,34,-1
 260 349 l 1,35,-1
 260 370 l 1,36,-1
 467 618 l 2,37,38
 467 622 467 622 458 624 c 128,-1,39
 449 626 449 626 436 627.5 c 128,-1,40
 423 629 423 629 409 629 c 2,41,-1
 401 629 l 1,42,-1
 401 710 l 1,43,-1
 623 710 l 1,44,-1
 623 629 l 1,45,-1
 604 629 l 2,46,47
 594 629 594 629 587 626.5 c 128,-1,48
 580 624 580 624 572 618.5 c 128,-1,49
 564 613 564 613 555 601 c 2,50,-1
 347 353 l 1,51,-1
 351 404 l 1,52,-1
 574 105 l 2,53,54
 582 95 582 95 590.5 89.5 c 128,-1,55
 599 84 599 84 608 82.5 c 128,-1,56
 617 81 617 81 626 81 c 2,57,-1
 647 81 l 1,58,-1
 647 0 l 1,59,-1
 386 0 l 1,28,-1
EndSplineSet
EndChar

StartChar: L
Encoding: 76 76 98
Width: 560
GlyphClass: 2
Flags: W
AnchorPoint: "Anchor-2" 427 710 basechar 0
AnchorPoint: "Anchor-1" 343 0 basechar 0
AnchorPoint: "Anchor-0" 343 741 basechar 0
LayerCount: 2
Fore
SplineSet
306 710 m 1,0,-1
 48 710 l 1,1,-1
 48 629 l 1,2,-1
 57 629 l 2,3,4
 77 629 77 629 94 622 c 128,-1,5
 111 615 111 615 111 592 c 2,6,-1
 111 117 l 2,7,8
 111 95 111 95 94 88 c 128,-1,9
 77 81 77 81 57 81 c 2,10,-1
 48 81 l 1,11,-1
 48 0 l 1,12,-1
 517 0 l 1,13,-1
 517 237 l 1,14,-1
 436 237 l 1,15,-1
 424 124 l 2,16,17
 423 106 423 106 413 96 c 128,-1,18
 403 86 403 86 382.5 82.5 c 128,-1,19
 362 79 362 79 328 79 c 2,20,-1
 223 79 l 1,21,-1
 223 593 l 2,22,23
 223 615 223 615 242.5 622 c 128,-1,24
 262 629 262 629 292 629 c 2,25,-1
 306 629 l 1,26,-1
 306 710 l 1,0,-1
EndSplineSet
EndChar

StartChar: M
Encoding: 77 77 104
Width: 837
GlyphClass: 2
Flags: W
AnchorPoint: "Anchor-1" 409 0 basechar 0
LayerCount: 2
Fore
SplineSet
47 0 m 1,0,-1
 47 81 l 1,1,-1
 56 81 l 2,2,3
 69 81 69 81 81 84 c 128,-1,4
 93 87 93 87 101 95 c 128,-1,5
 109 103 109 103 109 118 c 2,6,-1
 109 593 l 2,7,8
 109 608 109 608 101 615.5 c 128,-1,9
 93 623 93 623 81 626 c 128,-1,10
 69 629 69 629 56 629 c 2,11,-1
 47 629 l 1,12,-1
 47 710 l 1,13,-1
 286 710 l 1,14,-1
 442 118 l 1,15,-1
 375 90 l 1,16,-1
 549 710 l 1,17,-1
 790 710 l 1,18,-1
 790 629 l 1,19,-1
 781 629 l 2,20,21
 759 629 759 629 740.5 622 c 128,-1,22
 722 615 722 615 722 592 c 2,23,-1
 722 117 l 2,24,25
 722 95 722 95 740.5 88 c 128,-1,26
 759 81 759 81 781 81 c 2,27,-1
 790 81 l 1,28,-1
 790 0 l 1,29,-1
 550 0 l 1,30,-1
 550 81 l 1,31,-1
 557 81 l 2,32,33
 568 81 568 81 579.5 82 c 128,-1,34
 591 83 591 83 600 85.5 c 128,-1,35
 609 88 609 88 609 91 c 2,36,-1
 609 694 l 1,37,-1
 632 701 l 1,38,-1
 429 -2 l 1,39,-1
 370 -2 l 1,40,-1
 176 703 l 1,41,-1
 195 691 l 1,42,-1
 195 91 l 2,43,44
 195 88 195 88 204 85.5 c 128,-1,45
 213 83 213 83 224 82 c 128,-1,46
 235 81 235 81 239 81 c 2,47,-1
 242 81 l 1,48,-1
 242 0 l 1,49,-1
 47 0 l 1,0,-1
EndSplineSet
EndChar

StartChar: N
Encoding: 78 78 106
Width: 693
GlyphClass: 2
Flags: W
AnchorPoint: "Anchor-1" 354 0 basechar 0
AnchorPoint: "Anchor-0" 354 741 basechar 0
LayerCount: 2
Fore
SplineSet
47 0 m 1,0,-1
 47 81 l 1,1,-1
 56 81 l 2,2,3
 70 81 70 81 82 84 c 128,-1,4
 94 87 94 87 102 95 c 128,-1,5
 110 103 110 103 110 118 c 2,6,-1
 110 593 l 2,7,8
 110 608 110 608 102 615.5 c 128,-1,9
 94 623 94 623 82 626 c 128,-1,10
 70 629 70 629 56 629 c 2,11,-1
 47 629 l 1,12,-1
 47 710 l 1,13,-1
 258 710 l 1,14,-1
 545 84 l 1,15,-1
 504 80 l 1,16,-1
 504 619 l 2,17,18
 504 623 504 623 494.5 625 c 128,-1,19
 485 627 485 627 473.5 628 c 128,-1,20
 462 629 462 629 455 629 c 2,21,-1
 444 629 l 1,22,-1
 444 710 l 1,23,-1
 655 710 l 1,24,-1
 655 629 l 1,25,-1
 646 629 l 2,26,27
 632 629 632 629 620 626 c 128,-1,28
 608 623 608 623 600.5 615.5 c 128,-1,29
 593 608 593 608 593 593 c 2,30,-1
 593 0 l 1,31,-1
 473 0 l 1,32,-1
 156 676 l 1,33,-1
 198 673 l 1,34,-1
 198 91 l 2,35,36
 198 88 198 88 207 85.5 c 128,-1,37
 216 83 216 83 228 82 c 128,-1,38
 240 81 240 81 248 81 c 2,39,-1
 259 81 l 1,40,-1
 259 0 l 1,41,-1
 47 0 l 1,0,-1
EndSplineSet
EndChar

StartChar: Ncaron
Encoding: 327 327 110
Width: 693
GlyphClass: 1
Flags: W
LayerCount: 2
Fore
SplineSet
317 805 m 1,0,-1
 392 805 l 1,1,-1
 506 959 l 1,2,-1
 506 982 l 1,3,-1
 452 982 l 1,4,-1
 301 847 l 1,5,-1
 414 848 l 1,6,-1
 265 982 l 1,7,-1
 203 982 l 1,8,-1
 203 959 l 1,9,-1
 317 805 l 1,0,-1
47 0 m 1,10,-1
 47 81 l 1,11,-1
 56 81 l 2,12,13
 70 81 70 81 82 84 c 128,-1,14
 94 87 94 87 102 95 c 128,-1,15
 110 103 110 103 110 118 c 2,16,-1
 110 593 l 2,17,18
 110 608 110 608 102 615.5 c 128,-1,19
 94 623 94 623 82 626 c 128,-1,20
 70 629 70 629 56 629 c 2,21,-1
 47 629 l 1,22,-1
 47 710 l 1,23,-1
 258 710 l 1,24,-1
 545 84 l 1,25,-1
 504 80 l 1,26,-1
 504 619 l 2,27,28
 504 623 504 623 494.5 625 c 128,-1,29
 485 627 485 627 473.5 628 c 128,-1,30
 462 629 462 629 455 629 c 2,31,-1
 444 629 l 1,32,-1
 444 710 l 1,33,-1
 655 710 l 1,34,-1
 655 629 l 1,35,-1
 646 629 l 2,36,37
 632 629 632 629 620 626 c 128,-1,38
 608 623 608 623 600.5 615.5 c 128,-1,39
 593 608 593 608 593 593 c 2,40,-1
 593 0 l 1,41,-1
 473 0 l 1,42,-1
 156 676 l 1,43,-1
 198 673 l 1,44,-1
 198 91 l 2,45,46
 198 88 198 88 207 85.5 c 128,-1,47
 216 83 216 83 228 82 c 128,-1,48
 240 81 240 81 248 81 c 2,49,-1
 259 81 l 1,50,-1
 259 0 l 1,51,-1
 47 0 l 1,10,-1
EndSplineSet
EndChar

StartChar: O
Encoding: 79 79 114
Width: 669
GlyphClass: 2
Flags: W
AnchorPoint: "Anchor-2" 368 0 basechar 0
AnchorPoint: "Anchor-1" 334 0 basechar 0
AnchorPoint: "Anchor-0" 334 741 basechar 0
LayerCount: 2
Fore
SplineSet
335 -23 m 256,0,1
 270 -23 270 -23 217.5 1.5 c 128,-1,2
 165 26 165 26 127 74 c 128,-1,3
 89 122 89 122 68.5 192.5 c 128,-1,4
 48 263 48 263 48 355 c 0,5,6
 48 448 48 448 68.5 518.5 c 128,-1,7
 89 589 89 589 127 636.5 c 128,-1,8
 165 684 165 684 217.5 708.5 c 128,-1,9
 270 733 270 733 335 733 c 256,10,11
 400 733 400 733 452.5 708.5 c 128,-1,12
 505 684 505 684 542.5 636.5 c 128,-1,13
 580 589 580 589 600.5 518.5 c 128,-1,14
 621 448 621 448 621 355 c 0,15,16
 621 263 621 263 600.5 192.5 c 128,-1,17
 580 122 580 122 542.5 74 c 128,-1,18
 505 26 505 26 452.5 1.5 c 128,-1,19
 400 -23 400 -23 335 -23 c 256,0,1
335 59 m 256,20,21
 377 59 377 59 408.5 76 c 128,-1,22
 440 93 440 93 460 129 c 128,-1,23
 480 165 480 165 490.5 220.5 c 128,-1,24
 501 276 501 276 501 355 c 0,25,26
 501 433 501 433 490.5 489 c 128,-1,27
 480 545 480 545 460 581 c 128,-1,28
 440 617 440 617 408.5 634 c 128,-1,29
 377 651 377 651 335 651 c 256,30,31
 293 651 293 651 261.5 634 c 128,-1,32
 230 617 230 617 209.5 581 c 128,-1,33
 189 545 189 545 178.5 489 c 128,-1,34
 168 433 168 433 168 355 c 256,35,36
 168 277 168 277 178.5 221 c 128,-1,37
 189 165 189 165 209.5 129 c 128,-1,38
 230 93 230 93 261.5 76 c 128,-1,39
 293 59 293 59 335 59 c 256,20,21
EndSplineSet
EndChar

StartChar: Ohorn
Encoding: 416 416 123
Width: 722
GlyphClass: 2
Flags: W
AnchorPoint: "Anchor-1" 359 -35 basechar 0
AnchorPoint: "Anchor-0" 359 742 basechar 0
LayerCount: 2
Fore
SplineSet
335 59 m 0,0,1
 377 59 377 59 409 75.5 c 128,-1,2
 441 92 441 92 461 127.5 c 128,-1,3
 481 163 481 163 491 219 c 128,-1,4
 501 275 501 275 501 355 c 256,5,6
 501 435 501 435 491 491 c 128,-1,7
 481 547 481 547 461 582.5 c 128,-1,8
 441 618 441 618 409.5 634.5 c 128,-1,9
 378 651 378 651 335 651 c 256,10,11
 292 651 292 651 260.5 634.5 c 128,-1,12
 229 618 229 618 209 582.5 c 128,-1,13
 189 547 189 547 178.5 491 c 128,-1,14
 168 435 168 435 168 355 c 256,15,16
 168 275 168 275 178.5 219 c 128,-1,17
 189 163 189 163 209 127.5 c 128,-1,18
 229 92 229 92 260.5 75.5 c 128,-1,19
 292 59 292 59 335 59 c 0,0,1
502 631 m 1,20,-1
 471 673 l 1,21,22
 503 652 503 652 530.5 623 c 128,-1,23
 558 594 558 594 578 555.5 c 128,-1,24
 598 517 598 517 609.5 467.5 c 128,-1,25
 621 418 621 418 621 354 c 0,26,27
 621 262 621 262 600.5 191 c 128,-1,28
 580 120 580 120 542.5 72.5 c 128,-1,29
 505 25 505 25 452.5 1 c 128,-1,30
 400 -23 400 -23 335 -23 c 0,31,32
 271 -23 271 -23 218 1 c 128,-1,33
 165 25 165 25 127 72.5 c 128,-1,34
 89 120 89 120 68.5 191 c 128,-1,35
 48 262 48 262 48 355 c 0,36,37
 48 449 48 449 68.5 519.5 c 128,-1,38
 89 590 89 590 127 637.5 c 128,-1,39
 165 685 165 685 218 709 c 128,-1,40
 271 733 271 733 335 733 c 0,41,42
 371 733 371 733 399 727 c 128,-1,43
 427 721 427 721 450 714.5 c 128,-1,44
 473 708 473 708 492.5 702.5 c 128,-1,45
 512 697 512 697 532 697 c 0,46,47
 556 697 556 697 572.5 709.5 c 128,-1,48
 589 722 589 722 600 746.5 c 128,-1,49
 611 771 611 771 617 809 c 128,-1,50
 623 847 623 847 627 898 c 1,51,-1
 729 898 l 1,52,53
 727 822 727 822 713.5 768.5 c 128,-1,54
 700 715 700 715 679 681.5 c 128,-1,55
 658 648 658 648 631 632 c 128,-1,56
 604 616 604 616 575 616 c 0,57,58
 561 616 561 616 547 620.5 c 128,-1,59
 533 625 533 625 519.5 632.5 c 128,-1,60
 506 640 506 640 491.5 650 c 128,-1,61
 477 660 477 660 461 670 c 1,62,-1
 502 671 l 1,63,-1
 502 631 l 1,20,-1
EndSplineSet
EndChar

StartChar: Ocaron
Encoding: 465 465 124
Width: 669
GlyphClass: 1
Flags: W
LayerCount: 2
Fore
SplineSet
297 805 m 1,0,-1
 372 805 l 1,1,-1
 486 959 l 1,2,-1
 486 982 l 1,3,-1
 431 982 l 1,4,-1
 281 847 l 1,5,-1
 394 848 l 1,6,-1
 245 982 l 1,7,-1
 182 982 l 1,8,-1
 182 959 l 1,9,-1
 297 805 l 1,0,-1
335 -23 m 256,10,11
 270 -23 270 -23 217.5 1.5 c 128,-1,12
 165 26 165 26 127 74 c 128,-1,13
 89 122 89 122 68.5 192.5 c 128,-1,14
 48 263 48 263 48 355 c 0,15,16
 48 448 48 448 68.5 518.5 c 128,-1,17
 89 589 89 589 127 636.5 c 128,-1,18
 165 684 165 684 217.5 708.5 c 128,-1,19
 270 733 270 733 335 733 c 256,20,21
 400 733 400 733 452.5 708.5 c 128,-1,22
 505 684 505 684 542.5 636.5 c 128,-1,23
 580 589 580 589 600.5 518.5 c 128,-1,24
 621 448 621 448 621 355 c 0,25,26
 621 263 621 263 600.5 192.5 c 128,-1,27
 580 122 580 122 542.5 74 c 128,-1,28
 505 26 505 26 452.5 1.5 c 128,-1,29
 400 -23 400 -23 335 -23 c 256,10,11
335 59 m 256,30,31
 377 59 377 59 408.5 76 c 128,-1,32
 440 93 440 93 460 129 c 128,-1,33
 480 165 480 165 490.5 221 c 128,-1,34
 501 277 501 277 501 355 c 256,35,36
 501 433 501 433 490.5 489 c 128,-1,37
 480 545 480 545 460 581 c 128,-1,38
 440 617 440 617 408.5 634 c 128,-1,39
 377 651 377 651 335 651 c 256,40,41
 293 651 293 651 261.5 634 c 128,-1,42
 230 617 230 617 209.5 581 c 128,-1,43
 189 545 189 545 178.5 489 c 128,-1,44
 168 433 168 433 168 355 c 256,45,46
 168 277 168 277 178.5 221 c 128,-1,47
 189 165 189 165 209.5 129 c 128,-1,48
 230 93 230 93 261.5 76 c 128,-1,49
 293 59 293 59 335 59 c 256,30,31
EndSplineSet
EndChar

StartChar: Oogonek
Encoding: 490 490 125
Width: 669
GlyphClass: 1
Flags: W
LayerCount: 2
Fore
SplineSet
335 59 m 0,0,1
 378 59 378 59 409.5 75.5 c 128,-1,2
 441 92 441 92 461 127.5 c 128,-1,3
 481 163 481 163 491 219 c 128,-1,4
 501 275 501 275 501 355 c 256,5,6
 501 435 501 435 491 491 c 128,-1,7
 481 547 481 547 461 582.5 c 128,-1,8
 441 618 441 618 409.5 634.5 c 128,-1,9
 378 651 378 651 335 651 c 0,10,11
 293 651 293 651 261.5 634.5 c 128,-1,12
 230 618 230 618 209.5 582.5 c 128,-1,13
 189 547 189 547 178.5 491 c 128,-1,14
 168 435 168 435 168 355 c 256,15,16
 168 275 168 275 178.5 219 c 128,-1,17
 189 163 189 163 209.5 127.5 c 128,-1,18
 230 92 230 92 261.5 75.5 c 128,-1,19
 293 59 293 59 335 59 c 0,0,1
538 70 m 0,20,21
 520 47 520 47 497.5 24.5 c 128,-1,22
 475 2 475 2 452 -20 c 128,-1,23
 429 -42 429 -42 410 -64.5 c 128,-1,24
 391 -87 391 -87 379 -107.5 c 128,-1,25
 367 -128 367 -128 367 -147 c 0,26,27
 367 -163 367 -163 375.5 -174 c 128,-1,28
 384 -185 384 -185 404 -185 c 0,29,30
 426 -185 426 -185 442 -170.5 c 128,-1,31
 458 -156 458 -156 468 -141 c 1,32,-1
 514 -181 l 1,33,34
 499 -201 499 -201 480.5 -217 c 128,-1,35
 462 -233 462 -233 437 -242.5 c 128,-1,36
 412 -252 412 -252 378 -252 c 0,37,38
 341 -252 341 -252 311.5 -242 c 128,-1,39
 282 -232 282 -232 265.5 -211.5 c 128,-1,40
 249 -191 249 -191 249 -159 c 0,41,42
 249 -136 249 -136 258.5 -116 c 128,-1,43
 268 -96 268 -96 290 -75 c 128,-1,44
 312 -54 312 -54 349 -27 c 128,-1,45
 386 0 386 0 441 38 c 1,46,-1
 432 -4 l 1,47,48
 417 -10 417 -10 401.5 -14.5 c 128,-1,49
 386 -19 386 -19 370 -21 c 128,-1,50
 354 -23 354 -23 335 -23 c 0,51,52
 271 -23 271 -23 218 1 c 128,-1,53
 165 25 165 25 127 72.5 c 128,-1,54
 89 120 89 120 68.5 191 c 128,-1,55
 48 262 48 262 48 355 c 0,56,57
 48 449 48 449 68.5 519.5 c 128,-1,58
 89 590 89 590 127 637.5 c 128,-1,59
 165 685 165 685 218 709 c 128,-1,60
 271 733 271 733 335 733 c 256,61,62
 399 733 399 733 451.5 709 c 128,-1,63
 504 685 504 685 542 637.5 c 128,-1,64
 580 590 580 590 600.5 519.5 c 128,-1,65
 621 449 621 449 621 355 c 0,66,67
 621 293 621 293 611 240 c 128,-1,68
 601 187 601 187 582.5 145 c 128,-1,69
 564 103 564 103 538 70 c 0,20,21
EndSplineSet
EndChar

StartChar: Odblgrave
Encoding: 524 524 126
Width: 669
GlyphClass: 1
Flags: W
LayerCount: 2
Fore
SplineSet
432 925 m 2,0,-1
 469 827 l 1,1,-1
 469 792 l 1,2,-1
 426 792 l 1,3,-1
 360 857 l 2,4,5
 341 876 341 876 330.5 895 c 128,-1,6
 320 914 320 914 320 935 c 0,7,8
 320 954 320 954 333 967 c 128,-1,9
 346 980 346 980 369 980 c 0,10,11
 386 980 386 980 398 972 c 128,-1,12
 410 964 410 964 418.5 951.5 c 128,-1,13
 427 939 427 939 432 925 c 2,0,-1
259 925 m 2,14,-1
 293 827 l 1,15,-1
 293 792 l 1,16,-1
 250 792 l 1,17,-1
 185 857 l 2,18,19
 166 876 166 876 155 895 c 128,-1,20
 144 914 144 914 144 935 c 0,21,22
 144 954 144 954 157.5 967 c 128,-1,23
 171 980 171 980 194 980 c 0,24,25
 211 980 211 980 223 972 c 128,-1,26
 235 964 235 964 244.5 951.5 c 128,-1,27
 254 939 254 939 259 925 c 2,14,-1
335 -23 m 256,28,29
 270 -23 270 -23 217.5 1.5 c 128,-1,30
 165 26 165 26 127 74 c 128,-1,31
 89 122 89 122 68.5 192.5 c 128,-1,32
 48 263 48 263 48 355 c 0,33,34
 48 448 48 448 68.5 518.5 c 128,-1,35
 89 589 89 589 127 636.5 c 128,-1,36
 165 684 165 684 217.5 708.5 c 128,-1,37
 270 733 270 733 335 733 c 256,38,39
 400 733 400 733 452.5 708.5 c 128,-1,40
 505 684 505 684 542.5 636.5 c 128,-1,41
 580 589 580 589 600.5 518.5 c 128,-1,42
 621 448 621 448 621 355 c 0,43,44
 621 263 621 263 600.5 192.5 c 128,-1,45
 580 122 580 122 542.5 74 c 128,-1,46
 505 26 505 26 452.5 1.5 c 128,-1,47
 400 -23 400 -23 335 -23 c 256,28,29
335 59 m 256,48,49
 377 59 377 59 408.5 76 c 128,-1,50
 440 93 440 93 460 129 c 128,-1,51
 480 165 480 165 490.5 221 c 128,-1,52
 501 277 501 277 501 355 c 256,53,54
 501 433 501 433 490.5 489 c 128,-1,55
 480 545 480 545 460 581 c 128,-1,56
 440 617 440 617 408.5 634 c 128,-1,57
 377 651 377 651 335 651 c 256,58,59
 293 651 293 651 261.5 634 c 128,-1,60
 230 617 230 617 209.5 581 c 128,-1,61
 189 545 189 545 178.5 489 c 128,-1,62
 168 433 168 433 168 355 c 256,63,64
 168 277 168 277 178.5 221 c 128,-1,65
 189 165 189 165 209.5 129 c 128,-1,66
 230 93 230 93 261.5 76 c 128,-1,67
 293 59 293 59 335 59 c 256,48,49
EndSplineSet
EndChar

StartChar: Oinvertedbreve
Encoding: 526 526 127
Width: 669
GlyphClass: 1
Flags: W
LayerCount: 2
Fore
SplineSet
335 933 m 0,0,1
 282 933 282 933 247 917 c 128,-1,2
 212 901 212 901 194 864.5 c 128,-1,3
 176 828 176 828 175 767 c 1,4,-1
 251 767 l 1,5,6
 253 802 253 802 260.5 821 c 128,-1,7
 268 840 268 840 285.5 847.5 c 128,-1,8
 303 855 303 855 334 855 c 0,9,10
 363 855 363 855 380.5 847.5 c 128,-1,11
 398 840 398 840 406 821.5 c 128,-1,12
 414 803 414 803 415 767 c 1,13,-1
 495 767 l 1,14,15
 495 828 495 828 475.5 864.5 c 128,-1,16
 456 901 456 901 420.5 917 c 128,-1,17
 385 933 385 933 335 933 c 0,0,1
335 -23 m 256,18,19
 270 -23 270 -23 217.5 1.5 c 128,-1,20
 165 26 165 26 127 74 c 128,-1,21
 89 122 89 122 68.5 192.5 c 128,-1,22
 48 263 48 263 48 355 c 0,23,24
 48 448 48 448 68.5 518.5 c 128,-1,25
 89 589 89 589 127 636.5 c 128,-1,26
 165 684 165 684 217.5 708.5 c 128,-1,27
 270 733 270 733 335 733 c 256,28,29
 400 733 400 733 452.5 708.5 c 128,-1,30
 505 684 505 684 542.5 636.5 c 128,-1,31
 580 589 580 589 600.5 518.5 c 128,-1,32
 621 448 621 448 621 355 c 0,33,34
 621 263 621 263 600.5 192.5 c 128,-1,35
 580 122 580 122 542.5 74 c 128,-1,36
 505 26 505 26 452.5 1.5 c 128,-1,37
 400 -23 400 -23 335 -23 c 256,18,19
335 59 m 256,38,39
 377 59 377 59 408.5 76 c 128,-1,40
 440 93 440 93 460 129 c 128,-1,41
 480 165 480 165 490.5 221 c 128,-1,42
 501 277 501 277 501 355 c 256,43,44
 501 433 501 433 490.5 489 c 128,-1,45
 480 545 480 545 460 581 c 128,-1,46
 440 617 440 617 408.5 634 c 128,-1,47
 377 651 377 651 335 651 c 256,48,49
 293 651 293 651 261.5 634 c 128,-1,50
 230 617 230 617 209.5 581 c 128,-1,51
 189 545 189 545 178.5 489 c 128,-1,52
 168 433 168 433 168 355 c 256,53,54
 168 277 168 277 178.5 221 c 128,-1,55
 189 165 189 165 209.5 129 c 128,-1,56
 230 93 230 93 261.5 76 c 128,-1,57
 293 59 293 59 335 59 c 256,38,39
EndSplineSet
EndChar

StartChar: P
Encoding: 80 80 147
Width: 588
GlyphClass: 2
Flags: W
AnchorPoint: "Anchor-0" 319 741 basechar 0
LayerCount: 2
Fore
SplineSet
223 91 m 2,0,-1
 223 631 l 1,1,-1
 317 631 l 2,2,3
 354 631 354 631 380 614.5 c 128,-1,4
 406 598 406 598 420 568 c 128,-1,5
 434 538 434 538 434 495 c 256,6,7
 434 452 434 452 420 420 c 128,-1,8
 406 388 406 388 380 371 c 128,-1,9
 354 354 354 354 317 354 c 2,10,-1
 211 354 l 1,11,-1
 211 275 l 1,12,-1
 327 275 l 2,13,14
 390 275 390 275 440.5 301 c 128,-1,15
 491 327 491 327 520.5 377.5 c 128,-1,16
 550 428 550 428 550 500 c 0,17,18
 550 603 550 603 488 656.5 c 128,-1,19
 426 710 426 710 327 710 c 2,20,-1
 48 710 l 1,21,-1
 48 630 l 1,22,-1
 56 630 l 2,23,24
 77 630 77 630 94 623 c 128,-1,25
 111 616 111 616 111 593 c 2,26,-1
 111 117 l 2,27,28
 111 94 111 94 94 87 c 128,-1,29
 77 80 77 80 57 80 c 2,30,-1
 48 80 l 1,31,-1
 48 0 l 1,32,-1
 311 0 l 1,33,-1
 311 81 l 1,34,-1
 293 81 l 2,35,36
 279 81 279 81 266.5 81.5 c 128,-1,37
 254 82 254 82 244.5 83.5 c 128,-1,38
 235 85 235 85 229 86.5 c 128,-1,39
 223 88 223 88 223 91 c 2,0,-1
EndSplineSet
EndChar

StartChar: Q
Encoding: 81 81 148
Width: 669
GlyphClass: 1
Flags: W
LayerCount: 2
Fore
SplineSet
293 -3 m 1,0,-1
 381 12 l 1,1,2
 382 -45 382 -45 392.5 -79.5 c 128,-1,3
 403 -114 403 -114 425.5 -129 c 128,-1,4
 448 -144 448 -144 485 -144 c 0,5,6
 509 -144 509 -144 530.5 -140 c 128,-1,7
 552 -136 552 -136 571.5 -130 c 128,-1,8
 591 -124 591 -124 609 -118 c 1,9,-1
 609 -226 l 1,10,11
 586 -232 586 -232 554.5 -237 c 128,-1,12
 523 -242 523 -242 494 -242 c 0,13,14
 426 -242 426 -242 381 -215.5 c 128,-1,15
 336 -189 336 -189 314.5 -135.5 c 128,-1,16
 293 -82 293 -82 293 -3 c 1,0,-1
335 -23 m 256,17,18
 270 -23 270 -23 217.5 1.5 c 128,-1,19
 165 26 165 26 127 74 c 128,-1,20
 89 122 89 122 68.5 192.5 c 128,-1,21
 48 263 48 263 48 355 c 0,22,23
 48 448 48 448 68.5 518.5 c 128,-1,24
 89 589 89 589 127 636.5 c 128,-1,25
 165 684 165 684 217.5 708.5 c 128,-1,26
 270 733 270 733 335 733 c 256,27,28
 400 733 400 733 452.5 708.5 c 128,-1,29
 505 684 505 684 542.5 636.5 c 128,-1,30
 580 589 580 589 600.5 518.5 c 128,-1,31
 621 448 621 448 621 355 c 0,32,33
 621 263 621 263 600.5 192.5 c 128,-1,34
 580 122 580 122 542.5 74 c 128,-1,35
 505 26 505 26 452.5 1.5 c 128,-1,36
 400 -23 400 -23 335 -23 c 256,17,18
335 59 m 256,37,38
 377 59 377 59 409.5 76 c 128,-1,39
 442 93 442 93 464.5 129 c 128,-1,40
 487 165 487 165 498.5 220.5 c 128,-1,41
 510 276 510 276 510 355 c 0,42,43
 510 433 510 433 498.5 489 c 128,-1,44
 487 545 487 545 465 581 c 128,-1,45
 443 617 443 617 410 634 c 128,-1,46
 377 651 377 651 335 651 c 256,47,48
 293 651 293 651 261.5 634 c 128,-1,49
 230 617 230 617 209.5 581 c 128,-1,50
 189 545 189 545 178.5 489 c 128,-1,51
 168 433 168 433 168 355 c 256,52,53
 168 277 168 277 178.5 221 c 128,-1,54
 189 165 189 165 209.5 129 c 128,-1,55
 230 93 230 93 261.5 76 c 128,-1,56
 293 59 293 59 335 59 c 256,37,38
EndSplineSet
EndChar

StartChar: R
Encoding: 82 82 149
Width: 641
GlyphClass: 2
Flags: W
AnchorPoint: "Anchor-1" 359 0 basechar 0
AnchorPoint: "Anchor-0" 359 741 basechar 0
LayerCount: 2
Fore
SplineSet
325 323 m 1,0,-1
 474 0 l 1,1,-1
 621 0 l 1,2,-1
 621 81 l 1,3,-1
 613 81 l 2,4,5
 595 81 595 81 580 86 c 128,-1,6
 565 91 565 91 552.5 104.5 c 128,-1,7
 540 118 540 118 527 143 c 2,8,-1
 417 371 l 1,9,-1
 325 323 l 1,0,-1
223 91 m 2,10,-1
 223 631 l 1,11,-1
 322 631 l 2,12,13
 364 631 364 631 391 617.5 c 128,-1,14
 418 604 418 604 431 576.5 c 128,-1,15
 444 549 444 549 444 509 c 0,16,17
 444 470 444 470 432.5 438 c 128,-1,18
 421 406 421 406 393.5 387.5 c 128,-1,19
 366 369 366 369 317 369 c 2,20,-1
 210 369 l 1,21,-1
 210 294 l 1,22,-1
 356 294 l 2,23,24
 362 295 362 295 366 296 c 128,-1,25
 370 297 370 297 375.5 300.5 c 128,-1,26
 381 304 381 304 388 309 c 0,27,28
 438 320 438 320 474.5 346.5 c 128,-1,29
 511 373 511 373 531 416 c 128,-1,30
 551 459 551 459 551 520 c 0,31,32
 551 583 551 583 525 625.5 c 128,-1,33
 499 668 499 668 450 689 c 128,-1,34
 401 710 401 710 331 710 c 2,35,-1
 48 710 l 1,36,-1
 48 629 l 1,37,-1
 57 629 l 2,38,39
 77 629 77 629 94 622 c 128,-1,40
 111 615 111 615 111 592 c 2,41,-1
 111 117 l 2,42,43
 111 95 111 95 94 88 c 128,-1,44
 77 81 77 81 57 81 c 2,45,-1
 48 81 l 1,46,-1
 48 0 l 1,47,-1
 309 0 l 1,48,-1
 309 81 l 1,49,-1
 293 81 l 2,50,51
 280 81 280 81 267.5 81.5 c 128,-1,52
 255 82 255 82 245 83.5 c 128,-1,53
 235 85 235 85 229 86.5 c 128,-1,54
 223 88 223 88 223 91 c 2,10,-1
EndSplineSet
EndChar

StartChar: Rcaron
Encoding: 344 344 152
Width: 641
GlyphClass: 1
Flags: W
LayerCount: 2
Fore
SplineSet
279 805 m 1,0,-1
 354 805 l 1,1,-1
 468 959 l 1,2,-1
 468 982 l 1,3,-1
 413 982 l 1,4,-1
 263 847 l 1,5,-1
 376 848 l 1,6,-1
 226 982 l 1,7,-1
 164 982 l 1,8,-1
 164 959 l 1,9,-1
 279 805 l 1,0,-1
325 323 m 1,10,-1
 474 0 l 1,11,-1
 621 0 l 1,12,-1
 621 81 l 1,13,-1
 613 81 l 2,14,15
 595 81 595 81 580 86 c 128,-1,16
 565 91 565 91 552.5 104.5 c 128,-1,17
 540 118 540 118 527 143 c 2,18,-1
 417 371 l 1,19,-1
 325 323 l 1,10,-1
223 91 m 2,20,-1
 223 631 l 1,21,-1
 322 631 l 2,22,23
 364 631 364 631 391 617.5 c 128,-1,24
 418 604 418 604 431 576.5 c 128,-1,25
 444 549 444 549 444 509 c 0,26,27
 444 470 444 470 432.5 438 c 128,-1,28
 421 406 421 406 393.5 387.5 c 128,-1,29
 366 369 366 369 317 369 c 2,30,-1
 210 369 l 1,31,-1
 210 294 l 1,32,-1
 356 294 l 2,33,34
 362 295 362 295 366 296 c 128,-1,35
 370 297 370 297 375.5 300.5 c 128,-1,36
 381 304 381 304 388 309 c 0,37,38
 438 320 438 320 474.5 346.5 c 128,-1,39
 511 373 511 373 531 416 c 128,-1,40
 551 459 551 459 551 520 c 0,41,42
 551 583 551 583 525 625.5 c 128,-1,43
 499 668 499 668 450 689 c 128,-1,44
 401 710 401 710 331 710 c 2,45,-1
 48 710 l 1,46,-1
 48 629 l 1,47,-1
 57 629 l 2,48,49
 77 629 77 629 94 622 c 128,-1,50
 111 615 111 615 111 592 c 2,51,-1
 111 117 l 2,52,53
 111 95 111 95 94 88 c 128,-1,54
 77 81 77 81 57 81 c 2,55,-1
 48 81 l 1,56,-1
 48 0 l 1,57,-1
 309 0 l 1,58,-1
 309 81 l 1,59,-1
 293 81 l 2,60,61
 280 81 280 81 267.5 81.5 c 128,-1,62
 255 82 255 82 245 83.5 c 128,-1,63
 235 85 235 85 229 86.5 c 128,-1,64
 223 88 223 88 223 91 c 2,20,-1
EndSplineSet
EndChar

StartChar: Rdblgrave
Encoding: 528 528 153
Width: 641
GlyphClass: 1
Flags: W
LayerCount: 2
Fore
SplineSet
408 925 m 2,0,-1
 445 828 l 1,1,-1
 445 792 l 1,2,-1
 401 792 l 1,3,-1
 336 857 l 2,4,5
 317 876 317 876 306 895 c 128,-1,6
 295 914 295 914 295 935 c 0,7,8
 295 954 295 954 308.5 967 c 128,-1,9
 322 980 322 980 344 980 c 0,10,11
 362 980 362 980 374 972 c 128,-1,12
 386 964 386 964 394 951.5 c 128,-1,13
 402 939 402 939 408 925 c 2,0,-1
234 925 m 2,14,-1
 269 828 l 1,15,-1
 269 792 l 1,16,-1
 226 792 l 1,17,-1
 161 857 l 2,18,19
 141 876 141 876 130 895 c 128,-1,20
 119 914 119 914 119 935 c 0,21,22
 119 954 119 954 132.5 967 c 128,-1,23
 146 980 146 980 169 980 c 0,24,25
 186 980 186 980 198.5 972 c 128,-1,26
 211 964 211 964 220.5 951.5 c 128,-1,27
 230 939 230 939 234 925 c 2,14,-1
325 323 m 1,28,-1
 474 0 l 1,29,-1
 621 0 l 1,30,-1
 621 81 l 1,31,-1
 613 81 l 2,32,33
 595 81 595 81 580 86 c 128,-1,34
 565 91 565 91 552.5 104.5 c 128,-1,35
 540 118 540 118 527 143 c 2,36,-1
 417 371 l 1,37,-1
 325 323 l 1,28,-1
223 91 m 2,38,-1
 223 631 l 1,39,-1
 322 631 l 2,40,41
 364 631 364 631 391 617.5 c 128,-1,42
 418 604 418 604 431 576.5 c 128,-1,43
 444 549 444 549 444 509 c 0,44,45
 444 470 444 470 432.5 438 c 128,-1,46
 421 406 421 406 393.5 387.5 c 128,-1,47
 366 369 366 369 317 369 c 2,48,-1
 210 369 l 1,49,-1
 210 294 l 1,50,-1
 356 294 l 2,51,52
 362 295 362 295 366 296 c 128,-1,53
 370 297 370 297 375 300.5 c 128,-1,54
 380 304 380 304 388 309 c 0,55,56
 438 320 438 320 474.5 346.5 c 128,-1,57
 511 373 511 373 531 416 c 128,-1,58
 551 459 551 459 551 520 c 0,59,60
 551 583 551 583 525 625.5 c 128,-1,61
 499 668 499 668 450 689 c 128,-1,62
 401 710 401 710 331 710 c 2,63,-1
 48 710 l 1,64,-1
 48 629 l 1,65,-1
 57 629 l 2,66,67
 77 629 77 629 94 622 c 128,-1,68
 111 615 111 615 111 593 c 2,69,-1
 111 117 l 2,70,71
 111 95 111 95 94 88 c 128,-1,72
 77 81 77 81 57 81 c 2,73,-1
 48 81 l 1,74,-1
 48 0 l 1,75,-1
 309 0 l 1,76,-1
 309 81 l 1,77,-1
 293 81 l 2,78,79
 280 81 280 81 267 81.5 c 128,-1,80
 254 82 254 82 244.5 83.5 c 128,-1,81
 235 85 235 85 229 86.5 c 128,-1,82
 223 88 223 88 223 91 c 2,38,-1
EndSplineSet
EndChar

StartChar: Rinvertedbreve
Encoding: 530 530 154
Width: 641
GlyphClass: 1
Flags: W
LayerCount: 2
Fore
SplineSet
317 933 m 0,0,1
 264 933 264 933 229 917 c 128,-1,2
 194 901 194 901 176 864.5 c 128,-1,3
 158 828 158 828 157 767 c 1,4,-1
 233 767 l 1,5,6
 235 802 235 802 242.5 821 c 128,-1,7
 250 840 250 840 267.5 847.5 c 128,-1,8
 285 855 285 855 317 855 c 0,9,10
 345 855 345 855 362 847.5 c 128,-1,11
 379 840 379 840 387.5 821.5 c 128,-1,12
 396 803 396 803 397 767 c 1,13,-1
 477 767 l 1,14,15
 476 828 476 828 457 864.5 c 128,-1,16
 438 901 438 901 402.5 917 c 128,-1,17
 367 933 367 933 317 933 c 0,0,1
325 323 m 1,18,-1
 474 0 l 1,19,-1
 621 0 l 1,20,-1
 621 81 l 1,21,-1
 613 81 l 2,22,23
 595 81 595 81 580 86 c 128,-1,24
 565 91 565 91 552.5 104.5 c 128,-1,25
 540 118 540 118 527 143 c 2,26,-1
 417 371 l 1,27,-1
 325 323 l 1,18,-1
223 91 m 2,28,-1
 223 631 l 1,29,-1
 322 631 l 2,30,31
 364 631 364 631 391 617.5 c 128,-1,32
 418 604 418 604 431 576.5 c 128,-1,33
 444 549 444 549 444 509 c 0,34,35
 444 470 444 470 432.5 438 c 128,-1,36
 421 406 421 406 393.5 387.5 c 128,-1,37
 366 369 366 369 317 369 c 2,38,-1
 210 369 l 1,39,-1
 210 294 l 1,40,-1
 356 294 l 2,41,42
 362 295 362 295 366 296 c 128,-1,43
 370 297 370 297 375.5 300.5 c 128,-1,44
 381 304 381 304 388 309 c 0,45,46
 438 320 438 320 474.5 346.5 c 128,-1,47
 511 373 511 373 531 416 c 128,-1,48
 551 459 551 459 551 520 c 0,49,50
 551 583 551 583 525 625.5 c 128,-1,51
 499 668 499 668 450 689 c 128,-1,52
 401 710 401 710 331 710 c 2,53,-1
 48 710 l 1,54,-1
 48 629 l 1,55,-1
 57 629 l 2,56,57
 77 629 77 629 94 622 c 128,-1,58
 111 615 111 615 111 592 c 2,59,-1
 111 117 l 2,60,61
 111 95 111 95 94 88 c 128,-1,62
 77 81 77 81 57 81 c 2,63,-1
 48 81 l 1,64,-1
 48 0 l 1,65,-1
 309 0 l 1,66,-1
 309 81 l 1,67,-1
 293 81 l 2,68,69
 280 81 280 81 267.5 81.5 c 128,-1,70
 255 82 255 82 245 83.5 c 128,-1,71
 235 85 235 85 229 86.5 c 128,-1,72
 223 88 223 88 223 91 c 2,28,-1
EndSplineSet
EndChar

StartChar: S
Encoding: 83 83 157
Width: 551
GlyphClass: 2
Flags: W
AnchorPoint: "Anchor-1" 303 0 basechar 0
AnchorPoint: "Anchor-0" 303 741 basechar 0
LayerCount: 2
Fore
SplineSet
298 55 m 0,0,1
 335 55 335 55 358.5 66.5 c 128,-1,2
 382 78 382 78 393.5 103 c 128,-1,3
 405 128 405 128 405 171 c 0,4,5
 405 208 405 208 393.5 232 c 128,-1,6
 382 256 382 256 360.5 271.5 c 128,-1,7
 339 287 339 287 311 297.5 c 128,-1,8
 283 308 283 308 250 317 c 0,9,10
 211 329 211 329 177 343 c 128,-1,11
 143 357 143 357 118 380.5 c 128,-1,12
 93 404 93 404 78.5 443 c 128,-1,13
 64 482 64 482 64 544 c 0,14,15
 64 605 64 605 86 647 c 128,-1,16
 108 689 108 689 150.5 711 c 128,-1,17
 193 733 193 733 254 733 c 0,18,19
 309 733 309 733 345.5 712.5 c 128,-1,20
 382 692 382 692 401 648.5 c 128,-1,21
 420 605 420 605 421 537 c 1,22,-1
 394 585 l 1,23,-1
 409 719 l 1,24,-1
 479 719 l 1,25,-1
 479 512 l 1,26,-1
 402 512 l 1,27,28
 393 557 393 557 375.5 589 c 128,-1,29
 358 621 358 621 330 638.5 c 128,-1,30
 302 656 302 656 259 656 c 0,31,32
 230 656 230 656 209 645 c 128,-1,33
 188 634 188 634 176.5 611 c 128,-1,34
 165 588 165 588 165 550 c 0,35,36
 165 516 165 516 174.5 494.5 c 128,-1,37
 184 473 184 473 202.5 460 c 128,-1,38
 221 447 221 447 248 437 c 128,-1,39
 275 427 275 427 311 415 c 0,40,41
 348 404 348 404 383.5 389.5 c 128,-1,42
 419 375 419 375 447.5 351 c 128,-1,43
 476 327 476 327 492.5 287.5 c 128,-1,44
 509 248 509 248 509 187 c 0,45,46
 509 115 509 115 483.5 68.5 c 128,-1,47
 458 22 458 22 412 -0.5 c 128,-1,48
 366 -23 366 -23 303 -23 c 0,49,50
 243 -23 243 -23 200 0 c 128,-1,51
 157 23 157 23 132.5 72 c 128,-1,52
 108 121 108 121 103 201 c 1,53,-1
 132 161 l 1,54,-1
 118 -5 l 1,55,-1
 50 -5 l 1,56,-1
 50 228 l 1,57,-1
 131 228 l 1,58,59
 142 170 142 170 162.5 131.5 c 128,-1,60
 183 93 183 93 216 74 c 128,-1,61
 249 55 249 55 298 55 c 0,0,1
EndSplineSet
EndChar

StartChar: Scaron
Encoding: 352 352 161
Width: 551
GlyphClass: 1
Flags: W
LayerCount: 2
Fore
SplineSet
241 805 m 1,0,-1
 317 805 l 1,1,-1
 430 959 l 1,2,-1
 430 982 l 1,3,-1
 376 982 l 1,4,-1
 226 847 l 1,5,-1
 338 848 l 1,6,-1
 189 982 l 1,7,-1
 127 982 l 1,8,-1
 127 959 l 1,9,-1
 241 805 l 1,0,-1
298 55 m 0,10,11
 335 55 335 55 358.5 66.5 c 128,-1,12
 382 78 382 78 393.5 103 c 128,-1,13
 405 128 405 128 405 171 c 0,14,15
 405 208 405 208 393.5 232 c 128,-1,16
 382 256 382 256 360.5 271.5 c 128,-1,17
 339 287 339 287 311 297.5 c 128,-1,18
 283 308 283 308 250 317 c 0,19,20
 211 329 211 329 177 343 c 128,-1,21
 143 357 143 357 118 380.5 c 128,-1,22
 93 404 93 404 78.5 443 c 128,-1,23
 64 482 64 482 64 544 c 0,24,25
 64 605 64 605 86 647 c 128,-1,26
 108 689 108 689 150.5 711 c 128,-1,27
 193 733 193 733 254 733 c 0,28,29
 309 733 309 733 345.5 712.5 c 128,-1,30
 382 692 382 692 401 648.5 c 128,-1,31
 420 605 420 605 421 537 c 1,32,-1
 394 585 l 1,33,-1
 409 719 l 1,34,-1
 479 719 l 1,35,-1
 479 512 l 1,36,-1
 402 512 l 1,37,38
 393 557 393 557 375.5 589 c 128,-1,39
 358 621 358 621 330 638.5 c 128,-1,40
 302 656 302 656 259 656 c 0,41,42
 230 656 230 656 209 645 c 128,-1,43
 188 634 188 634 176.5 611 c 128,-1,44
 165 588 165 588 165 550 c 0,45,46
 165 516 165 516 174.5 494.5 c 128,-1,47
 184 473 184 473 202.5 460 c 128,-1,48
 221 447 221 447 248 437 c 128,-1,49
 275 427 275 427 311 415 c 0,50,51
 348 404 348 404 383.5 389.5 c 128,-1,52
 419 375 419 375 447.5 351 c 128,-1,53
 476 327 476 327 492.5 287.5 c 128,-1,54
 509 248 509 248 509 187 c 0,55,56
 509 115 509 115 483.5 68.5 c 128,-1,57
 458 22 458 22 412 -0.5 c 128,-1,58
 366 -23 366 -23 303 -23 c 0,59,60
 243 -23 243 -23 200 0 c 128,-1,61
 157 23 157 23 132.5 72 c 128,-1,62
 108 121 108 121 103 201 c 1,63,-1
 132 161 l 1,64,-1
 118 -5 l 1,65,-1
 50 -5 l 1,66,-1
 50 228 l 1,67,-1
 131 228 l 1,68,69
 142 170 142 170 162.5 131.5 c 128,-1,70
 183 93 183 93 216 74 c 128,-1,71
 249 55 249 55 298 55 c 0,10,11
EndSplineSet
EndChar

StartChar: Scarondotaccent
Encoding: 7782 7782 166
Width: 551
GlyphClass: 1
Flags: W
LayerCount: 2
Fore
SplineSet
241 805 m 1,0,-1
 317 805 l 1,1,-1
 430 959 l 1,2,-1
 430 982 l 1,3,-1
 376 982 l 1,4,-1
 226 847 l 1,5,-1
 338 848 l 1,6,-1
 189 982 l 1,7,-1
 127 982 l 1,8,-1
 127 959 l 1,9,-1
 241 805 l 1,0,-1
298 55 m 0,10,11
 335 55 335 55 358.5 66.5 c 128,-1,12
 382 78 382 78 393.5 103 c 128,-1,13
 405 128 405 128 405 171 c 0,14,15
 405 208 405 208 393.5 232 c 128,-1,16
 382 256 382 256 360.5 271.5 c 128,-1,17
 339 287 339 287 311 297.5 c 128,-1,18
 283 308 283 308 250 317 c 0,19,20
 211 329 211 329 177 343 c 128,-1,21
 143 357 143 357 118 380.5 c 128,-1,22
 93 404 93 404 78.5 443 c 128,-1,23
 64 482 64 482 64 544 c 0,24,25
 64 605 64 605 86 647 c 128,-1,26
 108 689 108 689 150.5 711 c 128,-1,27
 193 733 193 733 254 733 c 0,28,29
 309 733 309 733 345.5 712.5 c 128,-1,30
 382 692 382 692 401 648.5 c 128,-1,31
 420 605 420 605 421 537 c 1,32,-1
 394 585 l 1,33,-1
 409 719 l 1,34,-1
 479 719 l 1,35,-1
 479 512 l 1,36,-1
 402 512 l 1,37,38
 393 557 393 557 375.5 589 c 128,-1,39
 358 621 358 621 330 638.5 c 128,-1,40
 302 656 302 656 259 656 c 0,41,42
 230 656 230 656 209 645 c 128,-1,43
 188 634 188 634 176.5 611 c 128,-1,44
 165 588 165 588 165 550 c 0,45,46
 165 516 165 516 174.5 494.5 c 128,-1,47
 184 473 184 473 202.5 460 c 128,-1,48
 221 447 221 447 248 437 c 128,-1,49
 275 427 275 427 311 415 c 0,50,51
 348 404 348 404 383.5 389.5 c 128,-1,52
 419 375 419 375 447.5 351 c 128,-1,53
 476 327 476 327 492.5 287.5 c 128,-1,54
 509 248 509 248 509 187 c 0,55,56
 509 115 509 115 483.5 68.5 c 128,-1,57
 458 22 458 22 412 -0.5 c 128,-1,58
 366 -23 366 -23 303 -23 c 0,59,60
 243 -23 243 -23 200 0 c 128,-1,61
 157 23 157 23 132.5 72 c 128,-1,62
 108 121 108 121 103 201 c 1,63,-1
 132 161 l 1,64,-1
 118 -5 l 1,65,-1
 50 -5 l 1,66,-1
 50 228 l 1,67,-1
 131 228 l 1,68,69
 142 170 142 170 162.5 131.5 c 128,-1,70
 183 93 183 93 216 74 c 128,-1,71
 249 55 249 55 298 55 c 0,10,11
279 1011 m 256,72,73
 242 1011 242 1011 222 1030 c 128,-1,74
 202 1049 202 1049 202 1085 c 0,75,76
 202 1120 202 1120 222 1139.5 c 128,-1,77
 242 1159 242 1159 279 1159 c 256,78,79
 316 1159 316 1159 336 1139.5 c 128,-1,80
 356 1120 356 1120 356 1085 c 0,81,82
 356 1049 356 1049 336 1030 c 128,-1,83
 316 1011 316 1011 279 1011 c 256,72,73
EndSplineSet
EndChar

StartChar: T
Encoding: 84 84 168
Width: 617
GlyphClass: 2
Flags: W
AnchorPoint: "Anchor-1" 313 0 basechar 0
AnchorPoint: "Anchor-0" 313 741 basechar 0
LayerCount: 2
Fore
SplineSet
252 118 m 2,0,-1
 252 631 l 1,1,-1
 204 631 l 2,2,3
 172 631 172 631 157 625 c 128,-1,4
 142 619 142 619 137 605.5 c 128,-1,5
 132 592 132 592 129 571 c 2,6,-1
 119 473 l 1,7,-1
 41 473 l 1,8,-1
 41 710 l 1,9,-1
 575 710 l 1,10,-1
 575 473 l 1,11,-1
 498 473 l 1,12,-1
 487 571 l 2,13,14
 485 592 485 592 480 605.5 c 128,-1,15
 475 619 475 619 459.5 625 c 128,-1,16
 444 631 444 631 412 631 c 2,17,-1
 364 631 l 1,18,-1
 364 117 l 2,19,20
 364 95 364 95 383.5 88 c 128,-1,21
 403 81 403 81 427 81 c 2,22,-1
 443 81 l 1,23,-1
 443 0 l 1,24,-1
 174 0 l 1,25,-1
 174 81 l 1,26,-1
 189 81 l 2,27,28
 213 81 213 81 232.5 88 c 128,-1,29
 252 95 252 95 252 118 c 2,0,-1
EndSplineSet
EndChar

StartChar: Tcaron
Encoding: 356 356 170
Width: 617
GlyphClass: 1
Flags: W
LayerCount: 2
Fore
SplineSet
265 805 m 1,0,-1
 340 805 l 1,1,-1
 454 959 l 1,2,-1
 454 982 l 1,3,-1
 400 982 l 1,4,-1
 249 847 l 1,5,-1
 362 848 l 1,6,-1
 213 982 l 1,7,-1
 151 982 l 1,8,-1
 151 959 l 1,9,-1
 265 805 l 1,0,-1
252 117 m 2,10,-1
 252 631 l 1,11,-1
 204 631 l 2,12,13
 172 631 172 631 157 625 c 128,-1,14
 142 619 142 619 137 605.5 c 128,-1,15
 132 592 132 592 129 571 c 2,16,-1
 119 473 l 1,17,-1
 41 473 l 1,18,-1
 41 710 l 1,19,-1
 575 710 l 1,20,-1
 575 473 l 1,21,-1
 498 473 l 1,22,-1
 487 571 l 2,23,24
 485 592 485 592 480 605.5 c 128,-1,25
 475 619 475 619 459.5 625 c 128,-1,26
 444 631 444 631 412 631 c 2,27,-1
 364 631 l 1,28,-1
 364 117 l 2,29,30
 364 95 364 95 383.5 88 c 128,-1,31
 403 81 403 81 427 81 c 2,32,-1
 443 81 l 1,33,-1
 443 0 l 1,34,-1
 174 0 l 1,35,-1
 174 81 l 1,36,-1
 189 81 l 2,37,38
 213 81 213 81 232.5 88 c 128,-1,39
 252 95 252 95 252 117 c 2,10,-1
EndSplineSet
EndChar

StartChar: U
Encoding: 85 85 174
Width: 674
GlyphClass: 2
Flags: W
AnchorPoint: "Anchor-2" 386 0 basechar 0
AnchorPoint: "Anchor-1" 340 0 basechar 0
AnchorPoint: "Anchor-0" 340 741 basechar 0
LayerCount: 2
Fore
SplineSet
214 232 m 2,0,1
 214 185 214 185 224.5 151.5 c 128,-1,2
 235 118 235 118 253.5 98.5 c 128,-1,3
 272 79 272 79 298 70 c 128,-1,4
 324 61 324 61 355 61 c 256,5,6
 386 61 386 61 410.5 70 c 128,-1,7
 435 79 435 79 452.5 98.5 c 128,-1,8
 470 118 470 118 479.5 151 c 128,-1,9
 489 184 489 184 489 232 c 2,10,-1
 489 610 l 2,11,12
 489 615 489 615 483 618.5 c 128,-1,13
 477 622 477 622 469 624 c 128,-1,14
 461 626 461 626 451.5 627.5 c 128,-1,15
 442 629 442 629 434 629 c 2,16,-1
 426 629 l 1,17,-1
 426 710 l 1,18,-1
 635 710 l 1,19,-1
 635 629 l 1,20,-1
 627 629 l 2,21,22
 615 629 615 629 603 625 c 128,-1,23
 591 621 591 621 584 611.5 c 128,-1,24
 577 602 577 602 577 585 c 2,25,-1
 577 212 l 2,26,27
 577 148 577 148 558.5 103 c 128,-1,28
 540 58 540 58 507 30.5 c 128,-1,29
 474 3 474 3 431.5 -10 c 128,-1,30
 389 -23 389 -23 343 -23 c 0,31,32
 292 -23 292 -23 248 -10 c 128,-1,33
 204 3 204 3 171 31 c 128,-1,34
 138 59 138 59 119.5 104 c 128,-1,35
 101 149 101 149 101 213 c 2,36,-1
 101 593 l 2,37,38
 101 615 101 615 84.5 622 c 128,-1,39
 68 629 68 629 47 629 c 2,40,-1
 37 629 l 1,41,-1
 37 710 l 1,42,-1
 286 710 l 1,43,-1
 286 629 l 1,44,-1
 278 629 l 2,45,46
 268 629 268 629 256.5 628.5 c 128,-1,47
 245 628 245 628 235.5 626.5 c 128,-1,48
 226 625 226 625 220 623.5 c 128,-1,49
 214 622 214 622 214 619 c 2,50,-1
 214 232 l 2,0,1
EndSplineSet
EndChar

StartChar: Uogonek
Encoding: 370 370 184
Width: 674
GlyphClass: 1
Flags: W
LayerCount: 2
Fore
SplineSet
443 42 m 1,0,-1
 441 -2 l 1,1,2
 419 -14 419 -14 394.5 -18.5 c 128,-1,3
 370 -23 370 -23 343 -23 c 0,4,5
 290 -23 290 -23 246 -10 c 128,-1,6
 202 3 202 3 168.5 31 c 128,-1,7
 135 59 135 59 118 104 c 128,-1,8
 101 149 101 149 101 213 c 2,9,-1
 101 593 l 2,10,11
 101 615 101 615 87.5 622 c 128,-1,12
 74 629 74 629 47 629 c 2,13,-1
 37 629 l 1,14,-1
 37 710 l 1,15,-1
 286 710 l 1,16,-1
 286 630 l 1,17,-1
 279 630 l 2,18,19
 268 630 268 630 256.5 629 c 128,-1,20
 245 628 245 628 235.5 626.5 c 128,-1,21
 226 625 226 625 220 623.5 c 128,-1,22
 214 622 214 622 214 620 c 2,23,-1
 214 218 l 2,24,25
 214 173 214 173 224.5 143.5 c 128,-1,26
 235 114 235 114 253.5 96 c 128,-1,27
 272 78 272 78 298.5 70.5 c 128,-1,28
 325 63 325 63 357 63 c 0,29,30
 388 63 388 63 413 70.5 c 128,-1,31
 438 78 438 78 455.5 96 c 128,-1,32
 473 114 473 114 482 144 c 128,-1,33
 491 174 491 174 491 218 c 2,34,-1
 491 610 l 2,35,36
 491 615 491 615 486 618.5 c 128,-1,37
 481 622 481 622 473.5 624 c 128,-1,38
 466 626 466 626 455.5 627.5 c 128,-1,39
 445 629 445 629 434 629 c 2,40,-1
 426 629 l 1,41,-1
 426 710 l 1,42,-1
 635 710 l 1,43,-1
 635 629 l 1,44,-1
 627 629 l 2,45,46
 610 629 610 629 598 625 c 128,-1,47
 586 621 586 621 580.5 611.5 c 128,-1,48
 575 602 575 602 575 585 c 2,49,-1
 575 212 l 2,50,51
 575 172 575 172 566 139.5 c 128,-1,52
 557 107 557 107 543.5 81.5 c 128,-1,53
 530 56 530 56 514 37 c 0,54,55
 493 12 493 12 468.5 -9.5 c 128,-1,56
 444 -31 444 -31 421.5 -52 c 128,-1,57
 399 -73 399 -73 384.5 -96 c 128,-1,58
 370 -119 370 -119 370 -147 c 0,59,60
 370 -159 370 -159 377 -170 c 128,-1,61
 384 -181 384 -181 404 -181 c 0,62,63
 428 -181 428 -181 443 -168 c 128,-1,64
 458 -155 458 -155 468 -140 c 1,65,-1
 513 -181 l 1,66,67
 490 -212 490 -212 459 -232 c 128,-1,68
 428 -252 428 -252 377 -252 c 0,69,70
 343 -252 343 -252 315 -242.5 c 128,-1,71
 287 -233 287 -233 271 -212.5 c 128,-1,72
 255 -192 255 -192 255 -159 c 0,73,74
 255 -137 255 -137 264 -116.5 c 128,-1,75
 273 -96 273 -96 293.5 -75 c 128,-1,76
 314 -54 314 -54 351 -25.5 c 128,-1,77
 388 3 388 3 443 42 c 1,0,-1
EndSplineSet
EndChar

StartChar: Uhorn
Encoding: 431 431 185
Width: 776
GlyphClass: 2
Flags: W
AnchorPoint: "Anchor-1" 391 -35 basechar 0
AnchorPoint: "Anchor-0" 391 663 basechar 0
LayerCount: 2
Fore
SplineSet
101 213 m 2,0,-1
 101 593 l 2,1,2
 101 615 101 615 87.5 622 c 128,-1,3
 74 629 74 629 47 629 c 2,4,-1
 37 629 l 1,5,-1
 37 710 l 1,6,-1
 286 710 l 1,7,-1
 286 630 l 1,8,-1
 279 630 l 2,9,10
 268 630 268 630 256.5 629 c 128,-1,11
 245 628 245 628 235.5 626.5 c 128,-1,12
 226 625 226 625 220 623.5 c 128,-1,13
 214 622 214 622 214 620 c 2,14,-1
 214 219 l 2,15,16
 214 174 214 174 224.5 144 c 128,-1,17
 235 114 235 114 254 96 c 128,-1,18
 273 78 273 78 299.5 70 c 128,-1,19
 326 62 326 62 358 62 c 0,20,21
 397 62 397 62 426.5 76.5 c 128,-1,22
 456 91 456 91 473.5 125.5 c 128,-1,23
 491 160 491 160 491 219 c 2,24,-1
 491 610 l 2,25,26
 491 615 491 615 486 618.5 c 128,-1,27
 481 622 481 622 473.5 624 c 128,-1,28
 466 626 466 626 455.5 627.5 c 128,-1,29
 445 629 445 629 434 629 c 2,30,-1
 426 629 l 1,31,-1
 426 710 l 1,32,-1
 603 710 l 2,33,34
 631 710 631 710 650 722.5 c 128,-1,35
 669 735 669 735 680.5 759 c 128,-1,36
 692 783 692 783 698.5 818 c 128,-1,37
 705 853 705 853 707 898 c 1,38,-1
 807 898 l 1,39,40
 806 844 806 844 800 802.5 c 128,-1,41
 794 761 794 761 780.5 730.5 c 128,-1,42
 767 700 767 700 746.5 680 c 128,-1,43
 726 660 726 660 695 648 c 128,-1,44
 664 636 664 636 620 631 c 0,45,46
 605 630 605 630 595 626 c 128,-1,47
 585 622 585 622 580 613 c 128,-1,48
 575 604 575 604 575 588 c 2,49,-1
 575 212 l 2,50,51
 575 148 575 148 557.5 103.5 c 128,-1,52
 540 59 540 59 507.5 31 c 128,-1,53
 475 3 475 3 433 -10 c 128,-1,54
 391 -23 391 -23 343 -23 c 0,55,56
 290 -23 290 -23 246 -10 c 128,-1,57
 202 3 202 3 168.5 31 c 128,-1,58
 135 59 135 59 118 104 c 128,-1,59
 101 149 101 149 101 213 c 2,0,-1
EndSplineSet
EndChar

StartChar: Ucaron
Encoding: 467 467 186
Width: 674
GlyphClass: 1
Flags: W
LayerCount: 2
Fore
SplineSet
310 805 m 1,0,-1
 385 805 l 1,1,-1
 499 959 l 1,2,-1
 499 982 l 1,3,-1
 444 982 l 1,4,-1
 294 847 l 1,5,-1
 407 848 l 1,6,-1
 257 982 l 1,7,-1
 195 982 l 1,8,-1
 195 959 l 1,9,-1
 310 805 l 1,0,-1
214 232 m 2,10,11
 214 185 214 185 224.5 151.5 c 128,-1,12
 235 118 235 118 253.5 98.5 c 128,-1,13
 272 79 272 79 298 70 c 128,-1,14
 324 61 324 61 355 61 c 256,15,16
 386 61 386 61 410.5 70 c 128,-1,17
 435 79 435 79 452.5 98.5 c 128,-1,18
 470 118 470 118 479.5 151 c 128,-1,19
 489 184 489 184 489 232 c 2,20,-1
 489 610 l 2,21,22
 489 615 489 615 483.5 618.5 c 128,-1,23
 478 622 478 622 469.5 624 c 128,-1,24
 461 626 461 626 451.5 627.5 c 128,-1,25
 442 629 442 629 434 629 c 2,26,-1
 426 629 l 1,27,-1
 426 710 l 1,28,-1
 635 710 l 1,29,-1
 635 629 l 1,30,-1
 627 629 l 2,31,32
 614 629 614 629 602.5 625 c 128,-1,33
 591 621 591 621 584 611.5 c 128,-1,34
 577 602 577 602 577 585 c 2,35,-1
 577 212 l 2,36,37
 577 148 577 148 558.5 103.5 c 128,-1,38
 540 59 540 59 506.5 31 c 128,-1,39
 473 3 473 3 431 -10 c 128,-1,40
 389 -23 389 -23 343 -23 c 0,41,42
 292 -23 292 -23 248 -10 c 128,-1,43
 204 3 204 3 171 31 c 128,-1,44
 138 59 138 59 119.5 104 c 128,-1,45
 101 149 101 149 101 213 c 2,46,-1
 101 593 l 2,47,48
 101 615 101 615 84 622 c 128,-1,49
 67 629 67 629 47 629 c 2,50,-1
 37 629 l 1,51,-1
 37 710 l 1,52,-1
 286 710 l 1,53,-1
 286 629 l 1,54,-1
 279 629 l 2,55,56
 268 629 268 629 256.5 628.5 c 128,-1,57
 245 628 245 628 235.5 626.5 c 128,-1,58
 226 625 226 625 220 623.5 c 128,-1,59
 214 622 214 622 214 619 c 2,60,-1
 214 232 l 2,10,11
EndSplineSet
EndChar

StartChar: Udieresiscaron
Encoding: 473 473 187
Width: 674
GlyphClass: 1
Flags: W
LayerCount: 2
Fore
SplineSet
303 965 m 1,0,-1
 379 965 l 1,1,-1
 492 1120 l 1,2,-1
 492 1143 l 1,3,-1
 438 1143 l 1,4,-1
 288 1008 l 1,5,-1
 400 1009 l 1,6,-1
 251 1143 l 1,7,-1
 189 1143 l 1,8,-1
 189 1120 l 1,9,-1
 303 965 l 1,0,-1
214 232 m 2,10,11
 214 185 214 185 224.5 151.5 c 128,-1,12
 235 118 235 118 253.5 98.5 c 128,-1,13
 272 79 272 79 298 70 c 128,-1,14
 324 61 324 61 355 61 c 256,15,16
 386 61 386 61 410.5 70 c 128,-1,17
 435 79 435 79 452.5 98.5 c 128,-1,18
 470 118 470 118 479.5 151 c 128,-1,19
 489 184 489 184 489 232 c 2,20,-1
 489 610 l 2,21,22
 489 615 489 615 483.5 618.5 c 128,-1,23
 478 622 478 622 469.5 624 c 128,-1,24
 461 626 461 626 451.5 627.5 c 128,-1,25
 442 629 442 629 434 629 c 2,26,-1
 426 629 l 1,27,-1
 426 710 l 1,28,-1
 635 710 l 1,29,-1
 635 629 l 1,30,-1
 627 629 l 2,31,32
 614 629 614 629 602.5 625 c 128,-1,33
 591 621 591 621 584 611.5 c 128,-1,34
 577 602 577 602 577 585 c 2,35,-1
 577 212 l 2,36,37
 577 148 577 148 558.5 103.5 c 128,-1,38
 540 59 540 59 507 31 c 128,-1,39
 474 3 474 3 431.5 -10 c 128,-1,40
 389 -23 389 -23 343 -23 c 0,41,42
 292 -23 292 -23 248 -10 c 128,-1,43
 204 3 204 3 171 31 c 128,-1,44
 138 59 138 59 119.5 104 c 128,-1,45
 101 149 101 149 101 213 c 2,46,-1
 101 593 l 2,47,48
 101 615 101 615 84 622 c 128,-1,49
 67 629 67 629 47 629 c 2,50,-1
 37 629 l 1,51,-1
 37 710 l 1,52,-1
 286 710 l 1,53,-1
 286 629 l 1,54,-1
 279 629 l 2,55,56
 268 629 268 629 256.5 628.5 c 128,-1,57
 245 628 245 628 235.5 626.5 c 128,-1,58
 226 625 226 625 220 623.5 c 128,-1,59
 214 622 214 622 214 619 c 2,60,-1
 214 232 l 2,10,11
300 861 m 0,61,62
 300 823 300 823 280.5 807 c 128,-1,63
 261 791 261 791 228 791 c 0,64,65
 194 791 194 791 174.5 807 c 128,-1,66
 155 823 155 823 155 861 c 0,67,68
 155 898 155 898 174.5 914 c 128,-1,69
 194 930 194 930 228 930 c 0,70,71
 261 930 261 930 280.5 914 c 128,-1,72
 300 898 300 898 300 861 c 0,61,62
524 861 m 0,73,74
 524 823 524 823 504.5 807 c 128,-1,75
 485 791 485 791 452 791 c 256,76,77
 419 791 419 791 399 807 c 128,-1,78
 379 823 379 823 379 861 c 0,79,80
 379 898 379 898 399 914 c 128,-1,81
 419 930 419 930 452 930 c 256,82,83
 485 930 485 930 504.5 914 c 128,-1,84
 524 898 524 898 524 861 c 0,73,74
EndSplineSet
EndChar

StartChar: Udblgrave
Encoding: 532 532 188
Width: 674
GlyphClass: 1
Flags: W
LayerCount: 2
Fore
SplineSet
426 925 m 2,0,-1
 462 827 l 1,1,-1
 462 792 l 1,2,-1
 419 792 l 1,3,-1
 354 857 l 2,4,5
 334 876 334 876 323.5 895 c 128,-1,6
 313 914 313 914 313 935 c 0,7,8
 313 954 313 954 326 967 c 128,-1,9
 339 980 339 980 363 980 c 0,10,11
 379 980 379 980 391 972 c 128,-1,12
 403 964 403 964 411.5 951.5 c 128,-1,13
 420 939 420 939 426 925 c 2,0,-1
252 925 m 2,14,-1
 286 827 l 1,15,-1
 286 792 l 1,16,-1
 244 792 l 1,17,-1
 179 857 l 2,18,19
 159 876 159 876 148 895 c 128,-1,20
 137 914 137 914 137 935 c 0,21,22
 137 954 137 954 150.5 967 c 128,-1,23
 164 980 164 980 187 980 c 0,24,25
 204 980 204 980 216.5 972 c 128,-1,26
 229 964 229 964 238 951.5 c 128,-1,27
 247 939 247 939 252 925 c 2,14,-1
214 232 m 2,28,29
 214 185 214 185 224.5 151.5 c 128,-1,30
 235 118 235 118 253.5 98.5 c 128,-1,31
 272 79 272 79 298 70 c 128,-1,32
 324 61 324 61 355 61 c 256,33,34
 386 61 386 61 410.5 70 c 128,-1,35
 435 79 435 79 452.5 98.5 c 128,-1,36
 470 118 470 118 479.5 151 c 128,-1,37
 489 184 489 184 489 232 c 2,38,-1
 489 610 l 2,39,40
 489 615 489 615 483.5 618.5 c 128,-1,41
 478 622 478 622 469.5 624 c 128,-1,42
 461 626 461 626 451.5 627.5 c 128,-1,43
 442 629 442 629 434 629 c 2,44,-1
 426 629 l 1,45,-1
 426 710 l 1,46,-1
 635 710 l 1,47,-1
 635 629 l 1,48,-1
 627 629 l 2,49,50
 614 629 614 629 602.5 625 c 128,-1,51
 591 621 591 621 584 611.5 c 128,-1,52
 577 602 577 602 577 585 c 2,53,-1
 577 212 l 2,54,55
 577 148 577 148 558.5 103.5 c 128,-1,56
 540 59 540 59 506.5 31 c 128,-1,57
 473 3 473 3 431 -10 c 128,-1,58
 389 -23 389 -23 343 -23 c 0,59,60
 292 -23 292 -23 248 -10 c 128,-1,61
 204 3 204 3 171 31 c 128,-1,62
 138 59 138 59 119.5 104 c 128,-1,63
 101 149 101 149 101 213 c 2,64,-1
 101 593 l 2,65,66
 101 615 101 615 84 622 c 128,-1,67
 67 629 67 629 47 629 c 2,68,-1
 37 629 l 1,69,-1
 37 710 l 1,70,-1
 286 710 l 1,71,-1
 286 629 l 1,72,-1
 279 629 l 2,73,74
 268 629 268 629 256.5 628.5 c 128,-1,75
 245 628 245 628 235.5 626.5 c 128,-1,76
 226 625 226 625 220 623.5 c 128,-1,77
 214 622 214 622 214 619 c 2,78,-1
 214 232 l 2,28,29
EndSplineSet
EndChar

StartChar: Uinvertedbreve
Encoding: 534 534 189
Width: 674
GlyphClass: 1
Flags: W
LayerCount: 2
Fore
SplineSet
341 933 m 0,0,1
 288 933 288 933 253 917 c 128,-1,2
 218 901 218 901 200 864.5 c 128,-1,3
 182 828 182 828 181 767 c 1,4,-1
 257 767 l 1,5,6
 259 802 259 802 266.5 821 c 128,-1,7
 274 840 274 840 291.5 847.5 c 128,-1,8
 309 855 309 855 341 855 c 0,9,10
 369 855 369 855 386.5 847.5 c 128,-1,11
 404 840 404 840 412 821.5 c 128,-1,12
 420 803 420 803 422 767 c 1,13,-1
 501 767 l 1,14,15
 501 828 501 828 481.5 864.5 c 128,-1,16
 462 901 462 901 426.5 917 c 128,-1,17
 391 933 391 933 341 933 c 0,0,1
214 232 m 2,18,19
 214 185 214 185 224.5 151.5 c 128,-1,20
 235 118 235 118 253.5 98.5 c 128,-1,21
 272 79 272 79 298 70 c 128,-1,22
 324 61 324 61 355 61 c 256,23,24
 386 61 386 61 410.5 70 c 128,-1,25
 435 79 435 79 452.5 98.5 c 128,-1,26
 470 118 470 118 479.5 151 c 128,-1,27
 489 184 489 184 489 232 c 2,28,-1
 489 610 l 2,29,30
 489 615 489 615 483.5 618.5 c 128,-1,31
 478 622 478 622 469.5 624 c 128,-1,32
 461 626 461 626 451.5 627.5 c 128,-1,33
 442 629 442 629 434 629 c 2,34,-1
 426 629 l 1,35,-1
 426 710 l 1,36,-1
 635 710 l 1,37,-1
 635 629 l 1,38,-1
 627 629 l 2,39,40
 614 629 614 629 602.5 625 c 128,-1,41
 591 621 591 621 584 611.5 c 128,-1,42
 577 602 577 602 577 585 c 2,43,-1
 577 212 l 2,44,45
 577 148 577 148 558.5 103.5 c 128,-1,46
 540 59 540 59 506.5 31 c 128,-1,47
 473 3 473 3 431 -10 c 128,-1,48
 389 -23 389 -23 343 -23 c 0,49,50
 292 -23 292 -23 248 -10 c 128,-1,51
 204 3 204 3 171 31 c 128,-1,52
 138 59 138 59 119.5 104 c 128,-1,53
 101 149 101 149 101 213 c 2,54,-1
 101 593 l 2,55,56
 101 615 101 615 84 622 c 128,-1,57
 67 629 67 629 47 629 c 2,58,-1
 37 629 l 1,59,-1
 37 710 l 1,60,-1
 286 710 l 1,61,-1
 286 629 l 1,62,-1
 279 629 l 2,63,64
 268 629 268 629 256.5 628.5 c 128,-1,65
 245 628 245 628 235.5 626.5 c 128,-1,66
 226 625 226 625 220 623.5 c 128,-1,67
 214 622 214 622 214 619 c 2,68,-1
 214 232 l 2,18,19
EndSplineSet
EndChar

StartChar: V
Encoding: 86 86 199
Width: 628
GlyphClass: 2
Flags: W
AnchorPoint: "Anchor-0" 360 741 basechar 0
LayerCount: 2
Fore
SplineSet
344 20 m 1,0,-1
 311 29 l 1,1,-1
 467 606 l 2,2,3
 467 613 467 613 460.5 618 c 128,-1,4
 454 623 454 623 441 626 c 128,-1,5
 428 629 428 629 411 629 c 2,6,-1
 403 629 l 1,7,-1
 403 710 l 1,8,-1
 611 710 l 1,9,-1
 611 629 l 1,10,-1
 606 629 l 2,11,12
 590 629 590 629 574.5 617 c 128,-1,13
 559 605 559 605 549 565 c 2,14,-1
 385 -12 l 1,15,-1
 245 -12 l 1,16,-1
 81 565 l 2,17,18
 70 605 70 605 54.5 617 c 128,-1,19
 39 629 39 629 21 629 c 2,20,-1
 18 629 l 1,21,-1
 18 710 l 1,22,-1
 258 710 l 1,23,-1
 258 629 l 1,24,-1
 248 629 l 2,25,26
 226 629 226 629 211 627.5 c 128,-1,27
 196 626 196 626 189 624 c 128,-1,28
 182 622 182 622 182 618 c 2,29,-1
 344 20 l 1,0,-1
EndSplineSet
EndChar

StartChar: W
Encoding: 87 87 200
Width: 875
GlyphClass: 2
Flags: W
AnchorPoint: "Anchor-0" 450 741 basechar 0
LayerCount: 2
Fore
SplineSet
19 710 m 1,0,-1
 247 710 l 1,1,-1
 247 629 l 1,2,-1
 235 629 l 2,3,4
 224 629 224 629 210.5 627.5 c 128,-1,5
 197 626 197 626 187.5 624 c 128,-1,6
 178 622 178 622 178 618 c 2,7,-1
 300 36 l 1,8,-1
 250 34 l 1,9,-1
 401 710 l 1,10,-1
 516 710 l 1,11,-1
 661 38 l 1,12,-1
 615 36 l 1,13,-1
 736 606 l 2,14,15
 736 613 736 613 729 618 c 128,-1,16
 722 623 722 623 711.5 626 c 128,-1,17
 701 629 701 629 690 629 c 2,18,-1
 679 629 l 1,19,-1
 679 710 l 1,20,-1
 859 710 l 1,21,-1
 859 629 l 1,22,-1
 853 629 l 2,23,24
 840 629 840 629 828 618 c 128,-1,25
 816 607 816 607 810 577 c 2,26,-1
 686 -5 l 1,27,-1
 568 -5 l 1,28,-1
 423 649 l 1,29,-1
 473 655 l 1,30,-1
 324 -5 l 1,31,-1
 205 -5 l 1,32,-1
 74 584 l 2,33,34
 69 615 69 615 56.5 622 c 128,-1,35
 44 629 44 629 25 629 c 2,36,-1
 19 629 l 1,37,-1
 19 710 l 1,0,-1
EndSplineSet
EndChar

StartChar: X
Encoding: 88 88 205
Width: 632
GlyphClass: 2
Flags: W
AnchorPoint: "Anchor-1" 355 0 basechar 0
AnchorPoint: "Anchor-0" 378 741 basechar 0
LayerCount: 2
Fore
SplineSet
32 629 m 1,0,-1
 32 710 l 1,1,-1
 280 710 l 1,2,-1
 280 629 l 1,3,-1
 267 629 l 2,4,5
 252 629 252 629 240 628 c 128,-1,6
 228 627 228 627 220 625 c 128,-1,7
 212 623 212 623 212 620 c 2,8,-1
 354 392 l 1,9,-1
 368 386 l 1,10,-1
 537 115 l 2,11,12
 551 93 551 93 565.5 87 c 128,-1,13
 580 81 580 81 595 81 c 2,14,-1
 610 81 l 1,15,-1
 610 0 l 1,16,-1
 357 0 l 1,17,-1
 357 81 l 1,18,-1
 371 81 l 2,19,20
 386 81 386 81 398.5 82 c 128,-1,21
 411 83 411 83 418.5 85.5 c 128,-1,22
 426 88 426 88 426 90 c 2,23,-1
 272 341 l 1,24,-1
 258 346 l 1,25,-1
 101 595 l 2,26,27
 88 618 88 618 73 623.5 c 128,-1,28
 58 629 58 629 43 629 c 2,29,-1
 32 629 l 1,0,-1
23 0 m 1,30,-1
 23 81 l 1,31,-1
 39 81 l 2,32,33
 50 81 50 81 62 90.5 c 128,-1,34
 74 100 74 100 89 126 c 2,35,-1
 246 381 l 1,36,-1
 318 342 l 1,37,-1
 169 97 l 2,38,39
 169 93 169 93 177.5 89.5 c 128,-1,40
 186 86 186 86 197 83.5 c 128,-1,41
 208 81 208 81 218 81 c 2,42,-1
 232 81 l 1,43,-1
 232 0 l 1,44,-1
 23 0 l 1,30,-1
379 349 m 1,45,-1
 312 392 l 1,46,-1
 452 612 l 2,47,48
 452 618 452 618 443 621.5 c 128,-1,49
 434 625 434 625 422.5 627 c 128,-1,50
 411 629 411 629 399 629 c 2,51,-1
 389 629 l 1,52,-1
 389 710 l 1,53,-1
 595 710 l 1,54,-1
 595 629 l 1,55,-1
 584 629 l 2,56,57
 572 629 572 629 560.5 620 c 128,-1,58
 549 611 549 611 531 585 c 2,59,-1
 379 349 l 1,45,-1
EndSplineSet
EndChar

StartChar: Y
Encoding: 89 89 206
Width: 596
GlyphClass: 2
Flags: W
AnchorPoint: "Anchor-1" 301 0 basechar 0
AnchorPoint: "Anchor-0" 301 741 basechar 0
LayerCount: 2
Fore
SplineSet
243 293 m 1,0,-1
 248 257 l 1,1,-1
 81 581 l 2,2,3
 71 599 71 599 63.5 610 c 128,-1,4
 56 621 56 621 48 625 c 128,-1,5
 40 629 40 629 30 629 c 2,6,-1
 21 629 l 1,7,-1
 21 710 l 1,8,-1
 249 710 l 1,9,-1
 249 629 l 1,10,-1
 236 629 l 2,11,12
 222 629 222 629 209.5 627.5 c 128,-1,13
 197 626 197 626 188.5 624 c 128,-1,14
 180 622 180 622 180 618 c 2,15,-1
 344 298 l 1,16,-1
 283 298 l 1,17,-1
 434 607 l 2,18,19
 434 614 434 614 426.5 618.5 c 128,-1,20
 419 623 419 623 409.5 626 c 128,-1,21
 400 629 400 629 392 629 c 2,22,-1
 382 629 l 1,23,-1
 382 710 l 1,24,-1
 570 710 l 1,25,-1
 570 629 l 1,26,-1
 561 629 l 2,27,28
 554 629 554 629 545 624 c 128,-1,29
 536 619 536 619 527 607 c 128,-1,30
 518 595 518 595 508 575 c 2,31,-1
 349 257 l 1,32,-1
 356 293 l 1,33,-1
 356 117 l 2,34,35
 356 95 356 95 374 88 c 128,-1,36
 392 81 392 81 416 81 c 2,37,-1
 433 81 l 1,38,-1
 433 0 l 1,39,-1
 165 0 l 1,40,-1
 165 81 l 1,41,-1
 182 81 l 2,42,43
 206 81 206 81 224.5 88 c 128,-1,44
 243 95 243 95 243 117 c 2,45,-1
 243 293 l 1,0,-1
EndSplineSet
EndChar

StartChar: Z
Encoding: 90 90 216
Width: 569
GlyphClass: 2
Flags: W
AnchorPoint: "Anchor-1" 302 0 basechar 0
AnchorPoint: "Anchor-0" 302 741 basechar 0
LayerCount: 2
Fore
SplineSet
226 631 m 2,0,1
 202 631 202 631 188 629 c 128,-1,2
 174 627 174 627 167 622 c 128,-1,3
 160 617 160 617 157 608.5 c 128,-1,4
 154 600 154 600 152 586 c 2,5,-1
 141 504 l 1,6,-1
 63 504 l 1,7,-1
 63 710 l 1,8,-1
 507 710 l 1,9,-1
 507 627 l 1,10,-1
 135 20 l 1,11,-1
 112 79 l 1,12,-1
 350 79 l 2,13,14
 384 79 384 79 400 82.5 c 128,-1,15
 416 86 416 86 421.5 96 c 128,-1,16
 427 106 427 106 429 124 c 2,17,-1
 441 232 l 1,18,-1
 521 232 l 1,19,-1
 521 0 l 1,20,-1
 50 0 l 1,21,-1
 50 86 l 1,22,-1
 413 678 l 1,23,-1
 436 631 l 1,24,-1
 226 631 l 2,0,1
EndSplineSet
EndChar

StartChar: Zcaron
Encoding: 381 381 219
Width: 569
GlyphClass: 1
Flags: W
LayerCount: 2
Fore
SplineSet
244 805 m 1,0,-1
 319 805 l 1,1,-1
 433 959 l 1,2,-1
 433 982 l 1,3,-1
 379 982 l 1,4,-1
 228 847 l 1,5,-1
 341 848 l 1,6,-1
 192 982 l 1,7,-1
 130 982 l 1,8,-1
 130 959 l 1,9,-1
 244 805 l 1,0,-1
226 631 m 2,10,11
 202 631 202 631 188 629 c 128,-1,12
 174 627 174 627 167 622 c 128,-1,13
 160 617 160 617 157 608.5 c 128,-1,14
 154 600 154 600 152 586 c 2,15,-1
 141 504 l 1,16,-1
 63 504 l 1,17,-1
 63 710 l 1,18,-1
 507 710 l 1,19,-1
 507 627 l 1,20,-1
 135 20 l 1,21,-1
 112 79 l 1,22,-1
 350 79 l 2,23,24
 384 79 384 79 400 82.5 c 128,-1,25
 416 86 416 86 421.5 96 c 128,-1,26
 427 106 427 106 429 124 c 2,27,-1
 441 232 l 1,28,-1
 521 232 l 1,29,-1
 521 0 l 1,30,-1
 50 0 l 1,31,-1
 50 86 l 1,32,-1
 413 678 l 1,33,-1
 436 631 l 1,34,-1
 226 631 l 2,10,11
EndSplineSet
EndChar

StartChar: AE
Encoding: 198 198 221
Width: 911
GlyphClass: 2
Flags: W
AnchorPoint: "Anchor-0" 562 741 basechar 0
LayerCount: 2
Fore
SplineSet
196 306 m 1,0,-1
 468 306 l 1,1,-1
 481 224 l 1,2,-1
 182 224 l 1,3,-1
 196 306 l 1,0,-1
526 402 m 1,4,5
 565 405 565 405 605 407 c 128,-1,6
 645 409 645 409 684.5 412 c 128,-1,7
 724 415 724 415 762 417 c 1,8,-1
 762 314 l 1,9,10
 723 316 723 316 683.5 318.5 c 128,-1,11
 644 321 644 321 605 323.5 c 128,-1,12
 566 326 566 326 526 329 c 1,13,-1
 526 402 l 1,4,5
366 0 m 1,14,-1
 366 81 l 1,15,-1
 375 81 l 2,16,17
 393 81 393 81 406 84 c 128,-1,18
 419 87 419 87 425.5 95 c 128,-1,19
 432 103 432 103 432 117 c 2,20,-1
 432 653 l 1,21,-1
 409 635 l 1,22,-1
 158 104 l 2,23,24
 158 98 158 98 161.5 92.5 c 128,-1,25
 165 87 165 87 176.5 84 c 128,-1,26
 188 81 188 81 209 81 c 2,27,-1
 216 81 l 1,28,-1
 216 0 l 1,29,-1
 5 0 l 1,30,-1
 5 81 l 1,31,-1
 10 81 l 2,32,33
 26 81 26 81 37.5 87 c 128,-1,34
 49 93 49 93 60 107.5 c 128,-1,35
 71 122 71 122 83 145 c 2,36,-1
 298 599 l 1,37,38
 298 613 298 613 295 619.5 c 128,-1,39
 292 626 292 626 283.5 627.5 c 128,-1,40
 275 629 275 629 257 629 c 2,41,-1
 248 629 l 1,42,-1
 248 710 l 1,43,-1
 839 710 l 1,44,-1
 839 512 l 1,45,-1
 760 512 l 1,46,-1
 750 587 l 2,47,48
 748 604 748 604 737.5 613.5 c 128,-1,49
 727 623 727 623 707.5 627 c 128,-1,50
 688 631 688 631 657 631 c 2,51,-1
 545 631 l 1,52,-1
 545 79 l 1,53,-1
 669 79 l 2,54,55
 694 79 694 79 712.5 81 c 128,-1,56
 731 83 731 83 742 88 c 128,-1,57
 753 93 753 93 758.5 102 c 128,-1,58
 764 111 764 111 765 124 c 2,59,-1
 777 223 l 1,60,-1
 858 223 l 1,61,-1
 858 0 l 1,62,-1
 366 0 l 1,14,-1
EndSplineSet
EndChar

StartChar: Eth
Encoding: 208 208 223
Width: 664
GlyphClass: 1
Flags: W
LayerCount: 2
Fore
SplineSet
41 400 m 1,0,-1
 374 400 l 1,1,-1
 374 322 l 1,2,-1
 41 322 l 1,3,-1
 41 400 l 1,0,-1
48 629 m 1,4,-1
 48 710 l 1,5,-1
 306 710 l 2,6,7
 378 710 378 710 435.5 689 c 128,-1,8
 493 668 493 668 533.5 625 c 128,-1,9
 574 582 574 582 595 515.5 c 128,-1,10
 616 449 616 449 616 360 c 0,11,12
 616 269 616 269 595 201.5 c 128,-1,13
 574 134 574 134 533.5 89.5 c 128,-1,14
 493 45 493 45 435.5 22.5 c 128,-1,15
 378 0 378 0 306 0 c 2,16,-1
 48 0 l 1,17,-1
 48 81 l 1,18,-1
 57 81 l 2,19,20
 77 81 77 81 94 88 c 128,-1,21
 111 95 111 95 111 117 c 2,22,-1
 111 593 l 2,23,24
 111 615 111 615 94 622 c 128,-1,25
 77 629 77 629 57 629 c 2,26,-1
 48 629 l 1,4,-1
298 631 m 2,27,-1
 223 631 l 1,28,-1
 223 79 l 1,29,-1
 298 79 l 2,30,31
 349 79 349 79 386.5 96 c 128,-1,32
 424 113 424 113 449 147.5 c 128,-1,33
 474 182 474 182 485.5 235 c 128,-1,34
 497 288 497 288 497 359 c 256,35,36
 497 430 497 430 485.5 482 c 128,-1,37
 474 534 474 534 449 566.5 c 128,-1,38
 424 599 424 599 386.5 615 c 128,-1,39
 349 631 349 631 298 631 c 2,27,-1
EndSplineSet
EndChar

StartChar: Oslash
Encoding: 216 216 224
Width: 669
GlyphClass: 2
Flags: W
AnchorPoint: "Anchor-0" 334 731 basechar 0
LayerCount: 2
Fore
SplineSet
335 651 m 256,0,1
 293 651 293 651 262 633.5 c 128,-1,2
 231 616 231 616 210 580 c 128,-1,3
 189 544 189 544 179 488 c 128,-1,4
 169 432 169 432 169 355 c 0,5,6
 169 273 169 273 179 216.5 c 128,-1,7
 189 160 189 160 209.5 125 c 128,-1,8
 230 90 230 90 261.5 74.5 c 128,-1,9
 293 59 293 59 335 59 c 256,10,11
 377 59 377 59 408 76 c 128,-1,12
 439 93 439 93 459.5 129 c 128,-1,13
 480 165 480 165 490 221 c 128,-1,14
 500 277 500 277 500 355 c 0,15,16
 500 437 500 437 490 493.5 c 128,-1,17
 480 550 480 550 459.5 585 c 128,-1,18
 439 620 439 620 408 635.5 c 128,-1,19
 377 651 377 651 335 651 c 256,0,1
335 -23 m 256,20,21
 271 -23 271 -23 218 2 c 128,-1,22
 165 27 165 27 127 75 c 128,-1,23
 89 123 89 123 68.5 193.5 c 128,-1,24
 48 264 48 264 48 355 c 0,25,26
 48 449 48 449 68.5 519.5 c 128,-1,27
 89 590 89 590 127 637.5 c 128,-1,28
 165 685 165 685 218 709 c 128,-1,29
 271 733 271 733 335 733 c 0,30,31
 398 733 398 733 450.5 708.5 c 128,-1,32
 503 684 503 684 541 636.5 c 128,-1,33
 579 589 579 589 600 518.5 c 128,-1,34
 621 448 621 448 621 355 c 256,35,36
 621 262 621 262 600.5 191 c 128,-1,37
 580 120 580 120 542 72.5 c 128,-1,38
 504 25 504 25 451.5 1 c 128,-1,39
 399 -23 399 -23 335 -23 c 256,20,21
-3 -20 m 1,40,-1
 582 730 l 1,41,-1
 672 730 l 1,42,-1
 86 -20 l 1,43,-1
 -3 -20 l 1,40,-1
EndSplineSet
EndChar

StartChar: Thorn
Encoding: 222 222 226
Width: 614
GlyphClass: 1
Flags: W
LayerCount: 2
Fore
SplineSet
311 710 m 1,0,-1
 48 710 l 1,1,-1
 48 630 l 1,2,-1
 56 630 l 2,3,4
 84 630 84 630 97.5 623 c 128,-1,5
 111 616 111 616 111 593 c 2,6,-1
 111 117 l 2,7,8
 111 94 111 94 97.5 87 c 128,-1,9
 84 80 84 80 57 80 c 2,10,-1
 48 80 l 1,11,-1
 48 0 l 1,12,-1
 311 0 l 1,13,-1
 311 80 l 1,14,-1
 293 80 l 2,15,16
 279 80 279 80 266.5 81 c 128,-1,17
 254 82 254 82 244.5 83.5 c 128,-1,18
 235 85 235 85 229 86.5 c 128,-1,19
 223 88 223 88 223 91 c 2,20,-1
 223 620 l 2,21,22
 223 622 223 622 229 623.5 c 128,-1,23
 235 625 235 625 244.5 626.5 c 128,-1,24
 254 628 254 628 266.5 628.5 c 128,-1,25
 279 629 279 629 293 629 c 2,26,-1
 311 629 l 1,27,-1
 311 710 l 1,0,-1
567 367 m 256,28,29
 567 428 567 428 539 470 c 128,-1,30
 511 512 511 512 462 533.5 c 128,-1,31
 413 555 413 555 347 555 c 2,32,-1
 186 555 l 1,33,-1
 186 478 l 1,34,-1
 335 478 l 2,35,36
 374 478 374 478 399.5 466 c 128,-1,37
 425 454 425 454 437.5 429.5 c 128,-1,38
 450 405 450 405 450 365 c 0,39,40
 450 329 450 329 437.5 303 c 128,-1,41
 425 277 425 277 399 263.5 c 128,-1,42
 373 250 373 250 334 250 c 2,43,-1
 193 250 l 1,44,-1
 193 173 l 1,45,-1
 345 173 l 2,46,47
 410 173 410 173 460 196.5 c 128,-1,48
 510 220 510 220 538.5 263 c 128,-1,49
 567 306 567 306 567 367 c 256,28,29
EndSplineSet
EndChar

StartChar: Hbar
Encoding: 294 294 228
Width: 714
GlyphClass: 1
Flags: W
LayerCount: 2
Fore
SplineSet
183 373 m 1,0,-1
 524 373 l 1,1,-1
 524 301 l 1,2,-1
 183 301 l 1,3,-1
 183 373 l 1,0,-1
45 0 m 1,4,-1
 45 81 l 1,5,-1
 54 81 l 2,6,7
 74 81 74 81 91 88 c 128,-1,8
 108 95 108 95 108 118 c 2,9,-1
 108 593 l 2,10,11
 108 615 108 615 91 622 c 128,-1,12
 74 629 74 629 54 629 c 2,13,-1
 45 629 l 1,14,-1
 45 710 l 1,15,-1
 291 710 l 1,16,-1
 291 630 l 1,17,-1
 284 630 l 2,18,19
 274 630 274 630 262.5 629 c 128,-1,20
 251 628 251 628 241.5 626.5 c 128,-1,21
 232 625 232 625 226.5 623.5 c 128,-1,22
 221 622 221 622 221 619 c 2,23,-1
 221 90 l 2,24,25
 221 87 221 87 226.5 86 c 128,-1,26
 232 85 232 85 241.5 83.5 c 128,-1,27
 251 82 251 82 262.5 81.5 c 128,-1,28
 274 81 274 81 284 81 c 2,29,-1
 291 81 l 1,30,-1
 291 0 l 1,31,-1
 45 0 l 1,4,-1
424 0 m 1,32,-1
 424 80 l 1,33,-1
 431 80 l 2,34,35
 441 80 441 80 452 81 c 128,-1,36
 463 82 463 82 472 83.5 c 128,-1,37
 481 85 481 85 487.5 86.5 c 128,-1,38
 494 88 494 88 494 91 c 2,39,-1
 494 620 l 2,40,41
 494 623 494 623 487.5 624 c 128,-1,42
 481 625 481 625 471.5 626.5 c 128,-1,43
 462 628 462 628 451.5 628.5 c 128,-1,44
 441 629 441 629 431 629 c 2,45,-1
 424 629 l 1,46,-1
 424 710 l 1,47,-1
 669 710 l 1,48,-1
 669 629 l 1,49,-1
 660 629 l 2,50,51
 640 629 640 629 623.5 622 c 128,-1,52
 607 615 607 615 607 592 c 2,53,-1
 607 117 l 2,54,55
 607 95 607 95 623.5 88 c 128,-1,56
 640 81 640 81 660 81 c 2,57,-1
 669 81 l 1,58,-1
 669 0 l 1,59,-1
 424 0 l 1,32,-1
36 468 m 1,60,-1
 36 539 l 1,61,-1
 678 539 l 1,62,-1
 678 468 l 1,63,-1
 36 468 l 1,60,-1
EndSplineSet
EndChar

StartChar: Ldot
Encoding: 319 319 230
Width: 562
GlyphClass: 1
Flags: W
LayerCount: 2
Fore
SplineSet
305 710 m 1,0,-1
 48 710 l 1,1,-1
 48 629 l 1,2,-1
 57 629 l 2,3,4
 77 629 77 629 94 622 c 128,-1,5
 111 615 111 615 111 592 c 2,6,-1
 111 117 l 2,7,8
 111 95 111 95 94 88 c 128,-1,9
 77 81 77 81 57 81 c 2,10,-1
 48 81 l 1,11,-1
 48 0 l 1,12,-1
 516 0 l 1,13,-1
 516 224 l 1,14,-1
 435 224 l 1,15,-1
 423 124 l 2,16,17
 421 106 421 106 411.5 96 c 128,-1,18
 402 86 402 86 381.5 82.5 c 128,-1,19
 361 79 361 79 327 79 c 2,20,-1
 223 79 l 1,21,-1
 223 593 l 2,22,23
 223 615 223 615 242.5 622 c 128,-1,24
 262 629 262 629 292 629 c 2,25,-1
 305 629 l 1,26,-1
 305 710 l 1,0,-1
462 346 m 0,27,28
 424 346 424 346 398.5 370 c 128,-1,29
 373 394 373 394 373 434 c 0,30,31
 373 475 373 475 398.5 499 c 128,-1,32
 424 523 424 523 462 523 c 0,33,34
 503 523 503 523 527.5 499 c 128,-1,35
 552 475 552 475 552 434 c 0,36,37
 552 395 552 395 527.5 370.5 c 128,-1,38
 503 346 503 346 462 346 c 0,27,28
EndSplineSet
Ligature2: "Ligature Substitution lookup 5 subtable" L periodcentered
EndChar

StartChar: Lslash
Encoding: 321 321 231
Width: 562
GlyphClass: 1
Flags: W
LayerCount: 2
Fore
SplineSet
25 178 m 1,0,-1
 434 469 l 1,1,-1
 434 556 l 1,2,-1
 25 265 l 1,3,-1
 25 178 l 1,0,-1
308 710 m 1,4,-1
 49 710 l 1,5,-1
 49 629 l 1,6,-1
 58 629 l 2,7,8
 79 629 79 629 95.5 622 c 128,-1,9
 112 615 112 615 112 592 c 2,10,-1
 112 117 l 2,11,12
 112 95 112 95 95.5 88 c 128,-1,13
 79 81 79 81 59 81 c 2,14,-1
 49 81 l 1,15,-1
 49 0 l 1,16,-1
 518 0 l 1,17,-1
 518 237 l 1,18,-1
 438 237 l 1,19,-1
 426 124 l 2,20,21
 425 106 425 106 414.5 96 c 128,-1,22
 404 86 404 86 383.5 82.5 c 128,-1,23
 363 79 363 79 329 79 c 2,24,-1
 225 79 l 1,25,-1
 225 593 l 2,26,27
 225 615 225 615 244.5 622 c 128,-1,28
 264 629 264 629 294 629 c 2,29,-1
 308 629 l 1,30,-1
 308 710 l 1,4,-1
EndSplineSet
EndChar

StartChar: Eng
Encoding: 330 330 232
Width: 693
GlyphClass: 1
Flags: W
LayerCount: 2
Fore
SplineSet
593 -29 m 2,0,1
 593 -89 593 -89 577.5 -131.5 c 128,-1,2
 562 -174 562 -174 533.5 -200 c 128,-1,3
 505 -226 505 -226 467.5 -238 c 128,-1,4
 430 -250 430 -250 388 -250 c 0,5,6
 354 -250 354 -250 328.5 -244 c 128,-1,7
 303 -238 303 -238 288 -231 c 1,8,-1
 288 -144 l 1,9,10
 299 -149 299 -149 313 -154 c 128,-1,11
 327 -159 327 -159 345 -162.5 c 128,-1,12
 363 -166 363 -166 382 -166 c 0,13,14
 425 -166 425 -166 451 -152.5 c 128,-1,15
 477 -139 477 -139 490 -107.5 c 128,-1,16
 503 -76 503 -76 503 -19 c 2,17,-1
 503 54 l 1,18,-1
 522 -45 l 1,19,-1
 157 674 l 1,20,-1
 198 673 l 1,21,-1
 198 91 l 2,22,23
 198 88 198 88 205 85.5 c 128,-1,24
 212 83 212 83 224 82 c 128,-1,25
 236 81 236 81 248 81 c 2,26,-1
 259 81 l 1,27,-1
 259 0 l 1,28,-1
 47 0 l 1,29,-1
 47 81 l 1,30,-1
 56 81 l 2,31,32
 74 81 74 81 85.5 84 c 128,-1,33
 97 87 97 87 103.5 95 c 128,-1,34
 110 103 110 103 110 118 c 2,35,-1
 110 593 l 2,36,37
 110 608 110 608 103.5 615.5 c 128,-1,38
 97 623 97 623 85.5 626 c 128,-1,39
 74 629 74 629 56 629 c 2,40,-1
 47 629 l 1,41,-1
 47 710 l 1,42,-1
 258 710 l 1,43,-1
 563 80 l 1,44,-1
 504 80 l 1,45,-1
 504 619 l 2,46,47
 504 623 504 623 496.5 625 c 128,-1,48
 489 627 489 627 478 628 c 128,-1,49
 467 629 467 629 455 629 c 2,50,-1
 444 629 l 1,51,-1
 444 710 l 1,52,-1
 655 710 l 1,53,-1
 655 629 l 1,54,-1
 646 629 l 2,55,56
 628 629 628 629 616.5 626 c 128,-1,57
 605 623 605 623 599 615.5 c 128,-1,58
 593 608 593 608 593 593 c 2,59,-1
 593 -29 l 2,0,1
EndSplineSet
Substitution2: "'ss07' Style Set 7 lookup 67 subtable" Eng.afr
EndChar

StartChar: OE
Encoding: 338 338 233
Width: 902
GlyphClass: 1
Flags: W
LayerCount: 2
Fore
SplineSet
518 401 m 1,0,1
 557 404 557 404 596.5 406.5 c 128,-1,2
 636 409 636 409 675.5 411.5 c 128,-1,3
 715 414 715 414 754 416 c 1,4,-1
 754 315 l 1,5,6
 715 317 715 317 675.5 319 c 128,-1,7
 636 321 636 321 596.5 324 c 128,-1,8
 557 327 557 327 518 329 c 1,9,-1
 518 401 l 1,0,1
352 79 m 2,10,-1
 425 79 l 1,11,-1
 425 631 l 1,12,-1
 352 631 l 2,13,14
 305 631 305 631 270.5 616 c 128,-1,15
 236 601 236 601 213.5 567.5 c 128,-1,16
 191 534 191 534 179.5 480.5 c 128,-1,17
 168 427 168 427 168 351 c 256,18,19
 168 275 168 275 179.5 222.5 c 128,-1,20
 191 170 191 170 213.5 138.5 c 128,-1,21
 236 107 236 107 270.5 93 c 128,-1,22
 305 79 305 79 352 79 c 2,10,-1
348 0 m 2,23,24
 277 0 277 0 221.5 21 c 128,-1,25
 166 42 166 42 127.5 85 c 128,-1,26
 89 128 89 128 68.5 194.5 c 128,-1,27
 48 261 48 261 48 351 c 256,28,29
 48 441 48 441 68.5 508.5 c 128,-1,30
 89 576 89 576 127.5 620.5 c 128,-1,31
 166 665 166 665 221.5 687.5 c 128,-1,32
 277 710 277 710 348 710 c 2,33,-1
 831 710 l 1,34,-1
 831 512 l 1,35,-1
 750 512 l 1,36,-1
 741 586 l 2,37,38
 739 604 739 604 732.5 613.5 c 128,-1,39
 726 623 726 623 709.5 627 c 128,-1,40
 693 631 693 631 661 631 c 2,41,-1
 538 631 l 1,42,-1
 538 79 l 1,43,-1
 672 79 l 2,44,45
 697 79 697 79 713 81 c 128,-1,46
 729 83 729 83 738 88 c 128,-1,47
 747 93 747 93 751 102 c 128,-1,48
 755 111 755 111 756 124 c 2,49,-1
 767 223 l 1,50,-1
 849 223 l 1,51,-1
 849 0 l 1,52,-1
 348 0 l 2,23,24
EndSplineSet
EndChar

StartChar: Tbar
Encoding: 358 358 234
Width: 617
GlyphClass: 1
Flags: W
LayerCount: 2
Fore
SplineSet
111 344 m 1,0,-1
 503 344 l 1,1,-1
 503 264 l 1,2,-1
 111 264 l 1,3,-1
 111 344 l 1,0,-1
252 118 m 2,4,-1
 252 631 l 1,5,-1
 204 631 l 2,6,7
 172 631 172 631 157 625 c 128,-1,8
 142 619 142 619 137 605.5 c 128,-1,9
 132 592 132 592 129 571 c 2,10,-1
 119 473 l 1,11,-1
 41 473 l 1,12,-1
 41 710 l 1,13,-1
 575 710 l 1,14,-1
 575 473 l 1,15,-1
 498 473 l 1,16,-1
 487 571 l 2,17,18
 485 592 485 592 480 605.5 c 128,-1,19
 475 619 475 619 459.5 625 c 128,-1,20
 444 631 444 631 412 631 c 2,21,-1
 364 631 l 1,22,-1
 364 117 l 2,23,24
 364 95 364 95 383.5 88 c 128,-1,25
 403 81 403 81 427 81 c 2,26,-1
 443 81 l 1,27,-1
 443 0 l 1,28,-1
 174 0 l 1,29,-1
 174 81 l 1,30,-1
 189 81 l 2,31,32
 213 81 213 81 232.5 88 c 128,-1,33
 252 95 252 95 252 118 c 2,4,-1
EndSplineSet
EndChar

StartChar: Bhook
Encoding: 385 385 235
Width: 699
GlyphClass: 2
Flags: W
AnchorPoint: "Anchor-1" 377 0 basechar 0
AnchorPoint: "Anchor-0" 349 741 basechar 0
LayerCount: 2
Fore
SplineSet
275 409 m 1,0,-1
 402 409 l 2,1,2
 441 409 441 409 464.5 422 c 128,-1,3
 488 435 488 435 499 461 c 128,-1,4
 510 487 510 487 510 527 c 0,5,6
 510 562 510 562 499.5 584.5 c 128,-1,7
 489 607 489 607 466 619 c 128,-1,8
 443 631 443 631 403 631 c 2,9,-1
 313 631 l 1,10,-1
 313 79 l 1,11,-1
 410 79 l 2,12,13
 453 79 453 79 480 93 c 128,-1,14
 507 107 507 107 520 135 c 128,-1,15
 533 163 533 163 533 203 c 0,16,17
 533 245 533 245 519 274.5 c 128,-1,18
 505 304 505 304 476 319 c 128,-1,19
 447 334 447 334 400 334 c 2,20,-1
 275 334 l 1,21,-1
 275 409 l 1,0,-1
183 710 m 2,22,-1
 416 710 l 2,23,24
 467 710 467 710 506 699.5 c 128,-1,25
 545 689 545 689 571.5 667.5 c 128,-1,26
 598 646 598 646 611.5 613 c 128,-1,27
 625 580 625 580 625 535 c 256,28,29
 625 490 625 490 606.5 454 c 128,-1,30
 588 418 588 418 552.5 397.5 c 128,-1,31
 517 377 517 377 463 374 c 1,32,-1
 470 390 l 1,33,-1
 470 353 l 1,34,-1
 463 372 l 1,35,36
 524 368 524 368 565.5 346 c 128,-1,37
 607 324 607 324 628.5 286.5 c 128,-1,38
 650 249 650 249 650 196 c 0,39,40
 650 146 650 146 635 109 c 128,-1,41
 620 72 620 72 591 48 c 128,-1,42
 562 24 562 24 520 12 c 128,-1,43
 478 0 478 0 423 0 c 2,44,-1
 137 0 l 1,45,-1
 137 81 l 1,46,-1
 146 81 l 2,47,48
 167 81 167 81 183.5 88 c 128,-1,49
 200 95 200 95 200 117 c 2,50,-1
 200 631 l 1,51,-1
 185 631 l 2,52,53
 157 631 157 631 139 623.5 c 128,-1,54
 121 616 121 616 112 595.5 c 128,-1,55
 103 575 103 575 103 535 c 0,56,57
 103 512 103 512 105 494 c 128,-1,58
 107 476 107 476 111 464 c 1,59,-1
 11 464 l 1,60,61
 9 475 9 475 7 493 c 128,-1,62
 5 511 5 511 5 531 c 0,63,64
 5 595 5 595 25.5 634 c 128,-1,65
 46 673 46 673 85 691.5 c 128,-1,66
 124 710 124 710 183 710 c 2,22,-1
EndSplineSet
EndChar

StartChar: Dhook
Encoding: 394 394 236
Width: 754
GlyphClass: 2
Flags: W
AnchorPoint: "Anchor-1" 377 0 basechar 0
AnchorPoint: "Anchor-0" 354 741 basechar 0
LayerCount: 2
Fore
SplineSet
183 710 m 2,0,-1
 395 710 l 2,1,2
 467 710 467 710 525 689 c 128,-1,3
 583 668 583 668 623 625 c 128,-1,4
 663 582 663 582 684.5 515.5 c 128,-1,5
 706 449 706 449 706 359 c 256,6,7
 706 269 706 269 684.5 201.5 c 128,-1,8
 663 134 663 134 623 89.5 c 128,-1,9
 583 45 583 45 525 22.5 c 128,-1,10
 467 0 467 0 395 0 c 2,11,-1
 137 0 l 1,12,-1
 137 81 l 1,13,-1
 147 81 l 2,14,15
 167 81 167 81 183.5 88 c 128,-1,16
 200 95 200 95 200 117 c 2,17,-1
 200 631 l 1,18,-1
 185 631 l 2,19,20
 157 631 157 631 139 623.5 c 128,-1,21
 121 616 121 616 112 595.5 c 128,-1,22
 103 575 103 575 103 535 c 0,23,24
 103 512 103 512 105 494 c 128,-1,25
 107 476 107 476 111 464 c 1,26,-1
 11 464 l 1,27,28
 9 475 9 475 7 493.5 c 128,-1,29
 5 512 5 512 5 531 c 0,30,31
 5 595 5 595 25.5 634 c 128,-1,32
 46 673 46 673 85 691.5 c 128,-1,33
 124 710 124 710 183 710 c 2,0,-1
388 631 m 2,34,-1
 313 631 l 1,35,-1
 313 79 l 1,36,-1
 388 79 l 2,37,38
 439 79 439 79 476.5 96 c 128,-1,39
 514 113 514 113 538.5 147.5 c 128,-1,40
 563 182 563 182 575 235 c 128,-1,41
 587 288 587 288 587 359 c 256,42,43
 587 430 587 430 575 481.5 c 128,-1,44
 563 533 563 533 538.5 566 c 128,-1,45
 514 599 514 599 476.5 615 c 128,-1,46
 439 631 439 631 388 631 c 2,34,-1
EndSplineSet
EndChar

StartChar: Schwa
Encoding: 399 399 237
Width: 622
GlyphClass: 1
Flags: W
LayerCount: 2
Fore
SplineSet
298 747 m 0,0,1
 383 747 383 747 445 705 c 128,-1,2
 507 663 507 663 540.5 579.5 c 128,-1,3
 574 496 574 496 574 370 c 0,4,5
 574 278 574 278 555.5 204.5 c 128,-1,6
 537 131 537 131 502 80.5 c 128,-1,7
 467 30 467 30 417.5 3.5 c 128,-1,8
 368 -23 368 -23 306 -23 c 0,9,10
 214 -23 214 -23 158 24.5 c 128,-1,11
 102 72 102 72 76.5 166.5 c 128,-1,12
 51 261 51 261 49 401 c 1,13,-1
 508 401 l 1,14,-1
 508 319 l 1,15,-1
 144 319 l 1,16,-1
 166 344 l 1,17,18
 169 266 169 266 178 211.5 c 128,-1,19
 187 157 187 157 204 123 c 128,-1,20
 221 89 221 89 246.5 73.5 c 128,-1,21
 272 58 272 58 307 58 c 256,22,23
 342 58 342 58 369.5 75 c 128,-1,24
 397 92 397 92 415.5 129 c 128,-1,25
 434 166 434 166 444 225.5 c 128,-1,26
 454 285 454 285 454 370 c 0,27,28
 454 456 454 456 443 513.5 c 128,-1,29
 432 571 432 571 411 604.5 c 128,-1,30
 390 638 390 638 360.5 651.5 c 128,-1,31
 331 665 331 665 294 665 c 0,32,33
 252 665 252 665 222.5 654 c 128,-1,34
 193 643 193 643 168.5 616 c 128,-1,35
 144 589 144 589 117 542 c 1,36,-1
 50 587 l 1,37,38
 77 637 77 637 112 672.5 c 128,-1,39
 147 708 147 708 193 727.5 c 128,-1,40
 239 747 239 747 298 747 c 0,0,1
EndSplineSet
EndChar

StartChar: Khook
Encoding: 408 408 238
Width: 674
GlyphClass: 2
Flags: W
AnchorPoint: "Anchor-1" 344 0 basechar 0
AnchorPoint: "Anchor-0" 384 741 basechar 0
LayerCount: 2
Fore
SplineSet
48 0 m 1,0,-1
 48 81 l 1,1,-1
 57 81 l 2,2,3
 77 81 77 81 94 88 c 128,-1,4
 111 95 111 95 111 118 c 2,5,-1
 111 593 l 2,6,7
 111 615 111 615 94 622 c 128,-1,8
 77 629 77 629 57 629 c 2,9,-1
 48 629 l 1,10,-1
 48 710 l 1,11,-1
 293 710 l 1,12,-1
 293 629 l 1,13,-1
 285 629 l 2,14,15
 275 629 275 629 264 628.5 c 128,-1,16
 253 628 253 628 243.5 626.5 c 128,-1,17
 234 625 234 625 228.5 623.5 c 128,-1,18
 223 622 223 622 223 619 c 2,19,-1
 223 91 l 2,20,21
 223 88 223 88 228.5 86.5 c 128,-1,22
 234 85 234 85 243 83.5 c 128,-1,23
 252 82 252 82 263 81.5 c 128,-1,24
 274 81 274 81 282 81 c 2,25,-1
 289 81 l 1,26,-1
 289 0 l 1,27,-1
 48 0 l 1,0,-1
592 719 m 0,28,29
 625 719 625 719 644.5 705 c 128,-1,30
 664 691 664 691 673 665.5 c 128,-1,31
 682 640 682 640 682 605 c 0,32,33
 682 563 682 563 676 524.5 c 128,-1,34
 670 486 670 486 663 465 c 1,35,-1
 572 465 l 1,36,37
 578 477 578 477 583 499 c 128,-1,38
 588 521 588 521 591 547 c 128,-1,39
 594 573 594 573 594 594 c 0,40,41
 594 610 594 610 589 617 c 128,-1,42
 584 624 584 624 573 624 c 0,43,44
 566 624 566 624 556.5 617 c 128,-1,45
 547 610 547 610 528.5 587 c 128,-1,46
 510 564 510 564 472 515 c 2,47,-1
 347 353 l 1,48,-1
 351 404 l 1,49,-1
 574 105 l 2,50,51
 582 95 582 95 590.5 89.5 c 128,-1,52
 599 84 599 84 608 82.5 c 128,-1,53
 617 81 617 81 626 81 c 2,54,-1
 647 81 l 1,55,-1
 647 0 l 1,56,-1
 386 0 l 1,57,-1
 386 81 l 1,58,-1
 393 81 l 2,59,60
 408 81 408 81 421.5 82 c 128,-1,61
 435 83 435 83 444 85.5 c 128,-1,62
 453 88 453 88 453 91 c 2,63,-1
 260 349 l 1,64,-1
 260 370 l 1,65,-1
 421 578 l 2,66,67
 456 622 456 622 480 649.5 c 128,-1,68
 504 677 504 677 522 692.5 c 128,-1,69
 540 708 540 708 556.5 713.5 c 128,-1,70
 573 719 573 719 592 719 c 0,28,29
EndSplineSet
EndChar

StartChar: Yhook
Encoding: 435 435 239
Width: 641
GlyphClass: 2
Flags: W
AnchorPoint: "Anchor-1" 302 0 basechar 0
AnchorPoint: "Anchor-0" 327 741 basechar 0
LayerCount: 2
Fore
SplineSet
417 574 m 2,0,1
 446 633 446 633 467 664 c 128,-1,2
 488 695 488 695 510.5 707 c 128,-1,3
 533 719 533 719 563 719 c 0,4,5
 597 719 597 719 618 704 c 128,-1,6
 639 689 639 689 648.5 661.5 c 128,-1,7
 658 634 658 634 658 594 c 0,8,9
 658 557 658 557 652.5 520 c 128,-1,10
 647 483 647 483 639 465 c 1,11,-1
 548 465 l 1,12,13
 554 476 554 476 559 496 c 128,-1,14
 564 516 564 516 567 540.5 c 128,-1,15
 570 565 570 565 570 590 c 0,16,17
 570 608 570 608 565.5 616 c 128,-1,18
 561 624 561 624 551 624 c 0,19,20
 542 624 542 624 534 616 c 128,-1,21
 526 608 526 608 514 586.5 c 128,-1,22
 502 565 502 565 482 524 c 2,23,-1
 349 257 l 1,24,-1
 356 293 l 1,25,-1
 356 117 l 2,26,27
 356 95 356 95 374 88 c 128,-1,28
 392 81 392 81 416 81 c 2,29,-1
 433 81 l 1,30,-1
 433 0 l 1,31,-1
 165 0 l 1,32,-1
 165 81 l 1,33,-1
 182 81 l 2,34,35
 206 81 206 81 224.5 88 c 128,-1,36
 243 95 243 95 243 117 c 2,37,-1
 243 293 l 1,38,-1
 248 257 l 1,39,-1
 81 581 l 2,40,41
 72 599 72 599 64 610 c 128,-1,42
 56 621 56 621 48 625 c 128,-1,43
 40 629 40 629 30 629 c 2,44,-1
 21 629 l 1,45,-1
 21 710 l 1,46,-1
 249 710 l 1,47,-1
 249 629 l 1,48,-1
 236 629 l 2,49,50
 222 629 222 629 209.5 627.5 c 128,-1,51
 197 626 197 626 188.5 624 c 128,-1,52
 180 622 180 622 180 618 c 2,53,-1
 344 298 l 1,54,-1
 283 298 l 1,55,-1
 417 574 l 2,0,1
EndSplineSet
EndChar

StartChar: Germandbls
Encoding: 7838 7838 240
Width: 735
GlyphClass: 1
Flags: W
LayerCount: 2
Fore
SplineSet
501 63 m 0,0,1
 530 63 530 63 546 75 c 128,-1,2
 562 87 562 87 568 114 c 128,-1,3
 574 141 574 141 574 185 c 256,4,5
 574 229 574 229 566 255.5 c 128,-1,6
 558 282 558 282 539 300 c 128,-1,7
 520 318 520 318 487.5 332 c 128,-1,8
 455 346 455 346 407 364 c 1,9,-1
 407 441 l 1,10,-1
 532 677 l 1,11,-1
 556 626 l 1,12,-1
 343 626 l 2,13,14
 309 626 309 626 286 616.5 c 128,-1,15
 263 607 263 607 247.5 587 c 128,-1,16
 232 567 232 567 225.5 537.5 c 128,-1,17
 219 508 219 508 219 467 c 2,18,-1
 219 0 l 1,19,-1
 38 0 l 1,20,-1
 38 81 l 1,21,-1
 47 81 l 2,22,23
 75 81 75 81 90.5 88 c 128,-1,24
 106 95 106 95 106 117 c 2,25,-1
 106 465 l 2,26,27
 106 525 106 525 117.5 570.5 c 128,-1,28
 129 616 129 616 154.5 647 c 128,-1,29
 180 678 180 678 221 694 c 128,-1,30
 262 710 262 710 322 710 c 2,31,-1
 618 710 l 1,32,-1
 618 637 l 1,33,-1
 493 394 l 1,34,-1
 463 420 l 1,35,36
 516 402 516 402 558 384.5 c 128,-1,37
 600 367 600 367 629 342.5 c 128,-1,38
 658 318 658 318 673.5 281 c 128,-1,39
 689 244 689 244 689 187 c 0,40,41
 689 124 689 124 671.5 79.5 c 128,-1,42
 654 35 654 35 616.5 10.5 c 128,-1,43
 579 -14 579 -14 521 -14 c 0,44,45
 467 -14 467 -14 432.5 8 c 128,-1,46
 398 30 398 30 381 74.5 c 128,-1,47
 364 119 364 119 360 189 c 1,48,-1
 381 156 l 1,49,-1
 368 0 l 1,50,-1
 298 0 l 1,51,-1
 298 231 l 1,52,-1
 378 231 l 1,53,54
 388 193 388 193 397 162 c 128,-1,55
 406 131 406 131 418 109 c 128,-1,56
 430 87 430 87 450 75 c 128,-1,57
 470 63 470 63 501 63 c 0,0,1
EndSplineSet
EndChar

StartChar: Delta
Encoding: 916 916 241
Width: 636
GlyphClass: 1
Flags: W
LayerCount: 2
Fore
SplineSet
43 0 m 1,0,-1
 43 92 l 1,1,-1
 265 710 l 1,2,-1
 371 710 l 1,3,-1
 593 92 l 1,4,-1
 593 0 l 1,5,-1
 43 0 l 1,0,-1
495 59 m 1,6,-1
 273 695 l 1,7,-1
 343 693 l 1,8,-1
 115 55 l 1,9,-1
 69 97 l 1,10,-1
 543 97 l 1,11,-1
 495 59 l 1,6,-1
EndSplineSet
EndChar

StartChar: Omega
Encoding: 937 937 242
Width: 736
GlyphClass: 1
Flags: W
LayerCount: 2
Fore
SplineSet
367 735 m 0,0,1
 301 735 301 735 248.5 718.5 c 128,-1,2
 196 702 196 702 160 669 c 128,-1,3
 124 636 124 636 105.5 586 c 128,-1,4
 87 536 87 536 87 470 c 0,5,6
 87 432 87 432 92.5 396 c 128,-1,7
 98 360 98 360 112 323 c 128,-1,8
 126 286 126 286 149 244.5 c 128,-1,9
 172 203 172 203 206.5 156.5 c 128,-1,10
 241 110 241 110 288 55 c 1,11,-1
 295 78 l 1,12,-1
 210 78 l 2,13,14
 178 78 178 78 161 81.5 c 128,-1,15
 144 85 144 85 138 95 c 128,-1,16
 132 105 132 105 130 122 c 2,17,-1
 119 216 l 1,18,-1
 44 216 l 1,19,-1
 44 0 l 1,20,-1
 332 0 l 1,21,-1
 332 127 l 1,22,23
 295 173 295 173 270 214 c 128,-1,24
 245 255 245 255 230 294.5 c 128,-1,25
 215 334 215 334 209 375 c 128,-1,26
 203 416 203 416 203 461 c 0,27,28
 203 528 203 528 220 571.5 c 128,-1,29
 237 615 237 615 273.5 635 c 128,-1,30
 310 655 310 655 367 655 c 0,31,32
 425 655 425 655 461 635 c 128,-1,33
 497 615 497 615 514.5 571.5 c 128,-1,34
 532 528 532 528 532 461 c 0,35,36
 532 416 532 416 526 375 c 128,-1,37
 520 334 520 334 505.5 294.5 c 128,-1,38
 491 255 491 255 466 214 c 128,-1,39
 441 173 441 173 404 127 c 1,40,-1
 404 0 l 1,41,-1
 692 0 l 1,42,-1
 692 216 l 1,43,-1
 617 216 l 1,44,-1
 606 122 l 2,45,46
 604 104 604 104 597 94.5 c 128,-1,47
 590 85 590 85 572.5 81.5 c 128,-1,48
 555 78 555 78 523 78 c 2,49,-1
 440 78 l 1,50,-1
 448 55 l 1,51,52
 495 109 495 109 529.5 156 c 128,-1,53
 564 203 564 203 587 244.5 c 128,-1,54
 610 286 610 286 623.5 323 c 128,-1,55
 637 360 637 360 642.5 396 c 128,-1,56
 648 432 648 432 648 470 c 0,57,58
 648 536 648 536 629.5 586 c 128,-1,59
 611 636 611 636 575 669 c 128,-1,60
 539 702 539 702 487 718.5 c 128,-1,61
 435 735 435 735 367 735 c 0,0,1
EndSplineSet
EndChar

StartChar: Djecyr
Encoding: 1026 1026 244
Width: 764
GlyphClass: 2
Flags: W
AnchorPoint: "Anchor-0" 298 741 basechar 0
LayerCount: 2
Fore
SplineSet
721 200 m 0,0,1
 721 147 721 147 707 105 c 128,-1,2
 693 63 693 63 665.5 34.5 c 128,-1,3
 638 6 638 6 599 -8.5 c 128,-1,4
 560 -23 560 -23 509 -23 c 1,5,-1
 509 58 l 1,6,7
 540 58 540 58 561.5 73 c 128,-1,8
 583 88 583 88 593.5 119 c 128,-1,9
 604 150 604 150 604 199 c 0,10,11
 604 270 604 270 571 304.5 c 128,-1,12
 538 339 538 339 477 339 c 0,13,14
 438 339 438 339 401 330.5 c 128,-1,15
 364 322 364 322 331 305 c 1,16,-1
 331 387 l 1,17,18
 367 404 367 404 405 412.5 c 128,-1,19
 443 421 443 421 489 421 c 0,20,21
 568 421 568 421 619.5 394 c 128,-1,22
 671 367 671 367 696 318 c 128,-1,23
 721 269 721 269 721 200 c 0,0,1
164 0 m 1,24,-1
 164 81 l 1,25,-1
 180 81 l 2,26,27
 205 81 205 81 224 88 c 128,-1,28
 243 95 243 95 243 117 c 2,29,-1
 243 631 l 1,30,-1
 204 631 l 2,31,32
 172 631 172 631 157 625 c 128,-1,33
 142 619 142 619 137 605.5 c 128,-1,34
 132 592 132 592 129 571 c 2,35,-1
 119 473 l 1,36,-1
 41 473 l 1,37,-1
 41 710 l 1,38,-1
 581 710 l 1,39,-1
 581 491 l 1,40,-1
 503 491 l 1,41,-1
 493 572 l 2,42,43
 490 593 490 593 485 606 c 128,-1,44
 480 619 480 619 465 625 c 128,-1,45
 450 631 450 631 417 631 c 2,46,-1
 355 631 l 1,47,-1
 355 91 l 2,48,49
 355 88 355 88 366 85.5 c 128,-1,50
 377 83 377 83 391.5 82 c 128,-1,51
 406 81 406 81 418 81 c 2,52,-1
 433 81 l 1,53,-1
 433 0 l 1,54,-1
 164 0 l 1,24,-1
EndSplineSet
EndChar

StartChar: Eukrcyr
Encoding: 1028 1028 245
Width: 632
GlyphClass: 2
Flags: W
AnchorPoint: "Anchor-1" 329 0 basechar 0
AnchorPoint: "Anchor-0" 329 741 basechar 0
LayerCount: 2
Fore
SplineSet
144 401 m 1,0,1
 168 402 168 402 190.5 403 c 128,-1,2
 213 404 213 404 236 405.5 c 128,-1,3
 259 407 259 407 282 408.5 c 128,-1,4
 305 410 305 410 328 411.5 c 128,-1,5
 351 413 351 413 374 414 c 128,-1,6
 397 415 397 415 420 416 c 1,7,-1
 420 315 l 1,8,9
 397 316 397 316 374 317 c 128,-1,10
 351 318 351 318 328 319 c 128,-1,11
 305 320 305 320 282 321.5 c 128,-1,12
 259 323 259 323 236 324.5 c 128,-1,13
 213 326 213 326 190.5 327 c 128,-1,14
 168 328 168 328 144 329 c 1,15,-1
 144 401 l 1,0,1
327 653 m 0,16,17
 285 653 285 653 255 635.5 c 128,-1,18
 225 618 225 618 205.5 582.5 c 128,-1,19
 186 547 186 547 177 490.5 c 128,-1,20
 168 434 168 434 168 357 c 0,21,22
 168 279 168 279 177.5 222 c 128,-1,23
 187 165 187 165 207 128.5 c 128,-1,24
 227 92 227 92 259 74.5 c 128,-1,25
 291 57 291 57 336 57 c 0,26,27
 389 57 389 57 422.5 81.5 c 128,-1,28
 456 106 456 106 476.5 145 c 128,-1,29
 497 184 497 184 509 227 c 1,30,-1
 581 197 l 1,31,32
 562 131 562 131 529 81.5 c 128,-1,33
 496 32 496 32 446 4.5 c 128,-1,34
 396 -23 396 -23 327 -23 c 0,35,36
 264 -23 264 -23 213 1 c 128,-1,37
 162 25 162 25 125 73 c 128,-1,38
 88 121 88 121 68 192 c 128,-1,39
 48 263 48 263 48 357 c 0,40,41
 48 450 48 450 68 520.5 c 128,-1,42
 88 591 88 591 124.5 638.5 c 128,-1,43
 161 686 161 686 210.5 709.5 c 128,-1,44
 260 733 260 733 320 733 c 0,45,46
 374 733 374 733 414 708 c 128,-1,47
 454 683 454 683 478 632 c 128,-1,48
 502 581 502 581 507 506 c 1,49,-1
 482 533 l 1,50,-1
 497 719 l 1,51,-1
 574 719 l 1,52,-1
 574 474 l 1,53,-1
 487 474 l 1,54,55
 471 532 471 532 449 571.5 c 128,-1,56
 427 611 427 611 397 632 c 128,-1,57
 367 653 367 653 327 653 c 0,16,17
EndSplineSet
Substitution2: "'ss01' Style Set 1 lookup 61 subtable" Ieukran.alt1
EndChar

StartChar: Yukrcyr
Encoding: 1031 1031 248
Width: 352
GlyphClass: 2
Flags: W
AnchorPoint: "Anchor-1" 176 0 basechar 0
AnchorPoint: "Anchor-0" 176 920 basechar 0
LayerCount: 2
Fore
SplineSet
156 861 m 0,0,1
 156 823 156 823 137.5 807 c 128,-1,2
 119 791 119 791 87 791 c 0,3,4
 56 791 56 791 37.5 807 c 128,-1,5
 19 823 19 823 19 861 c 0,6,7
 19 898 19 898 37.5 914 c 128,-1,8
 56 930 56 930 87 930 c 0,9,10
 119 930 119 930 137.5 914 c 128,-1,11
 156 898 156 898 156 861 c 0,0,1
333 861 m 0,12,13
 333 823 333 823 314 807 c 128,-1,14
 295 791 295 791 264 791 c 256,15,16
 233 791 233 791 214 807 c 128,-1,17
 195 823 195 823 195 861 c 0,18,19
 195 898 195 898 214 914 c 128,-1,20
 233 930 233 930 264 930 c 256,21,22
 295 930 295 930 314 914 c 128,-1,23
 333 898 333 898 333 861 c 0,12,13
120 118 m 2,24,-1
 120 593 l 2,25,26
 120 615 120 615 102.5 622 c 128,-1,27
 85 629 85 629 61 629 c 2,28,-1
 45 629 l 1,29,-1
 45 710 l 1,30,-1
 307 710 l 1,31,-1
 307 629 l 1,32,-1
 291 629 l 2,33,34
 267 629 267 629 250 622 c 128,-1,35
 233 615 233 615 233 592 c 2,36,-1
 233 117 l 2,37,38
 233 95 233 95 250 88 c 128,-1,39
 267 81 267 81 291 81 c 2,40,-1
 307 81 l 1,41,-1
 307 0 l 1,42,-1
 45 0 l 1,43,-1
 45 81 l 1,44,-1
 61 81 l 2,45,46
 85 81 85 81 102.5 88 c 128,-1,47
 120 95 120 95 120 118 c 2,24,-1
EndSplineSet
EndChar

StartChar: Ljecyr
Encoding: 1033 1033 250
Width: 911
GlyphClass: 2
Flags: W
AnchorPoint: "Anchor-0" 364 741 basechar 0
LayerCount: 2
Fore
SplineSet
211 710 m 1,0,-1
 499 710 l 1,1,-1
 499 627 l 1,2,-1
 211 627 l 1,3,-1
 211 710 l 1,0,-1
146 282 m 2,4,-1
 165 593 l 2,5,6
 166 615 166 615 151.5 622 c 128,-1,7
 137 629 137 629 116 629 c 2,8,-1
 107 629 l 1,9,-1
 107 710 l 1,10,-1
 260 710 l 1,11,-1
 234 276 l 2,12,13
 229 171 229 171 208.5 107 c 128,-1,14
 188 43 188 43 153 14 c 128,-1,15
 118 -15 118 -15 68 -15 c 0,16,17
 52 -15 52 -15 37 -11 c 128,-1,18
 22 -7 22 -7 10 0 c 1,19,-1
 10 103 l 1,20,21
 22 96 22 96 34.5 92 c 128,-1,22
 47 88 47 88 60 88 c 0,23,24
 84 88 84 88 101 107.5 c 128,-1,25
 118 127 118 127 130 169.5 c 128,-1,26
 142 212 142 212 146 282 c 2,4,-1
649 0 m 2,27,-1
 372 0 l 1,28,-1
 372 81 l 1,29,-1
 378 81 l 2,30,31
 393 81 393 81 406 82 c 128,-1,32
 419 83 419 83 428 85 c 128,-1,33
 437 87 437 87 437 91 c 2,34,-1
 437 710 l 1,35,-1
 617 710 l 1,36,-1
 617 629 l 1,37,-1
 604 629 l 2,38,39
 583 629 583 629 566.5 622 c 128,-1,40
 550 615 550 615 550 593 c 2,41,-1
 550 79 l 1,42,-1
 639 79 l 2,43,44
 677 79 677 79 703 95 c 128,-1,45
 729 111 729 111 742.5 141.5 c 128,-1,46
 756 172 756 172 756 216 c 0,47,48
 756 264 756 264 742.5 295.5 c 128,-1,49
 729 327 729 327 703.5 342.5 c 128,-1,50
 678 358 678 358 639 358 c 2,51,-1
 494 358 l 1,52,-1
 494 437 l 1,53,-1
 649 437 l 2,54,55
 716 437 716 437 766 413 c 128,-1,56
 816 389 816 389 844.5 340 c 128,-1,57
 873 291 873 291 873 216 c 0,58,59
 873 149 873 149 843.5 100 c 128,-1,60
 814 51 814 51 763.5 25.5 c 128,-1,61
 713 0 713 0 649 0 c 2,27,-1
EndSplineSet
EndChar

StartChar: Njecyr
Encoding: 1034 1034 251
Width: 943
GlyphClass: 2
Flags: W
AnchorPoint: "Anchor-0" 349 741 basechar 0
LayerCount: 2
Fore
SplineSet
187 429 m 1,0,-1
 505 429 l 1,1,-1
 505 350 l 1,2,-1
 187 350 l 1,3,-1
 187 429 l 1,0,-1
48 0 m 1,4,-1
 48 81 l 1,5,-1
 57 81 l 2,6,7
 77 81 77 81 94 88 c 128,-1,8
 111 95 111 95 111 118 c 2,9,-1
 111 593 l 2,10,11
 111 615 111 615 94 622 c 128,-1,12
 77 629 77 629 57 629 c 2,13,-1
 48 629 l 1,14,-1
 48 710 l 1,15,-1
 294 710 l 1,16,-1
 294 629 l 1,17,-1
 287 629 l 2,18,19
 273 629 273 629 258 628 c 128,-1,20
 243 627 243 627 233 625 c 128,-1,21
 223 623 223 623 223 619 c 2,22,-1
 223 90 l 2,23,24
 223 88 223 88 233 85.5 c 128,-1,25
 243 83 243 83 258 82 c 128,-1,26
 273 81 273 81 287 81 c 2,27,-1
 294 81 l 1,28,-1
 294 0 l 1,29,-1
 48 0 l 1,4,-1
404 0 m 1,30,-1
 404 81 l 1,31,-1
 411 81 l 2,32,33
 425 81 425 81 437.5 82 c 128,-1,34
 450 83 450 83 460 85.5 c 128,-1,35
 470 88 470 88 470 91 c 2,36,-1
 470 620 l 2,37,38
 470 623 470 623 460 625 c 128,-1,39
 450 627 450 627 437.5 628 c 128,-1,40
 425 629 425 629 412 629 c 2,41,-1
 404 629 l 1,42,-1
 404 710 l 1,43,-1
 650 710 l 1,44,-1
 650 629 l 1,45,-1
 641 629 l 2,46,47
 627 629 627 629 613 626 c 128,-1,48
 599 623 599 623 591 615.5 c 128,-1,49
 583 608 583 608 583 592 c 2,50,-1
 583 79 l 1,51,-1
 672 79 l 2,52,53
 707 79 707 79 733 94 c 128,-1,54
 759 109 759 109 773.5 138.5 c 128,-1,55
 788 168 788 168 788 212 c 0,56,57
 788 257 788 257 773.5 288 c 128,-1,58
 759 319 759 319 733 334.5 c 128,-1,59
 707 350 707 350 672 350 c 2,60,-1
 532 350 l 1,61,-1
 532 429 l 1,62,-1
 682 429 l 2,63,64
 748 429 748 429 798.5 404 c 128,-1,65
 849 379 849 379 877 330.5 c 128,-1,66
 905 282 905 282 905 211 c 0,67,68
 905 145 905 145 876 97.5 c 128,-1,69
 847 50 847 50 796 25 c 128,-1,70
 745 0 745 0 682 0 c 2,71,-1
 404 0 l 1,30,-1
EndSplineSet
EndChar

StartChar: Tshecyr
Encoding: 1035 1035 252
Width: 800
GlyphClass: 2
Flags: W
AnchorPoint: "Anchor-0" 288 741 basechar 0
LayerCount: 2
Fore
SplineSet
490 421 m 0,0,1
 569 421 569 421 617 401 c 128,-1,2
 665 381 665 381 687 339 c 128,-1,3
 709 297 709 297 709 231 c 2,4,-1
 709 117 l 2,5,6
 709 95 709 95 724 88 c 128,-1,7
 739 81 739 81 762 81 c 2,8,-1
 771 81 l 1,9,-1
 771 0 l 1,10,-1
 596 0 l 1,11,-1
 596 225 l 2,12,13
 596 268 596 268 580.5 292.5 c 128,-1,14
 565 317 565 317 538 327 c 128,-1,15
 511 337 511 337 477 337 c 0,16,17
 441 337 441 337 402 329.5 c 128,-1,18
 363 322 363 322 331 305 c 1,19,-1
 331 387 l 1,20,21
 367 404 367 404 407.5 412.5 c 128,-1,22
 448 421 448 421 490 421 c 0,0,1
164 0 m 1,23,-1
 164 81 l 1,24,-1
 180 81 l 2,25,26
 205 81 205 81 224 88 c 128,-1,27
 243 95 243 95 243 117 c 2,28,-1
 243 631 l 1,29,-1
 204 631 l 2,30,31
 172 631 172 631 157 625 c 128,-1,32
 142 619 142 619 137 605.5 c 128,-1,33
 132 592 132 592 129 571 c 2,34,-1
 119 473 l 1,35,-1
 41 473 l 1,36,-1
 41 710 l 1,37,-1
 581 710 l 1,38,-1
 581 491 l 1,39,-1
 503 491 l 1,40,-1
 493 572 l 2,41,42
 490 593 490 593 485 606.5 c 128,-1,43
 480 620 480 620 465 625.5 c 128,-1,44
 450 631 450 631 417 631 c 2,45,-1
 355 631 l 1,46,-1
 355 91 l 2,47,48
 355 88 355 88 366 85.5 c 128,-1,49
 377 83 377 83 392 82 c 128,-1,50
 407 81 407 81 420 81 c 2,51,-1
 434 81 l 1,52,-1
 434 0 l 1,53,-1
 164 0 l 1,23,-1
EndSplineSet
EndChar

StartChar: Dzhecyr
Encoding: 1039 1039 253
Width: 712
GlyphClass: 2
Flags: W
AnchorPoint: "Anchor-0" 356 741 basechar 0
LayerCount: 2
Fore
SplineSet
48 710 m 1,0,-1
 293 710 l 1,1,-1
 293 629 l 1,2,-1
 286 629 l 2,3,4
 273 629 273 629 258.5 628 c 128,-1,5
 244 627 244 627 233.5 625 c 128,-1,6
 223 623 223 623 223 620 c 2,7,-1
 223 0 l 1,8,-1
 48 0 l 1,9,-1
 48 81 l 1,10,-1
 57 81 l 2,11,12
 77 81 77 81 94 88 c 128,-1,13
 111 95 111 95 111 118 c 2,14,-1
 111 593 l 2,15,16
 111 615 111 615 94 622 c 128,-1,17
 77 629 77 629 57 629 c 2,18,-1
 48 629 l 1,19,-1
 48 710 l 1,0,-1
418 710 m 1,20,-1
 664 710 l 1,21,-1
 664 629 l 1,22,-1
 655 629 l 2,23,24
 635 629 635 629 618.5 622 c 128,-1,25
 602 615 602 615 602 592 c 2,26,-1
 602 117 l 2,27,28
 602 95 602 95 618.5 88 c 128,-1,29
 635 81 635 81 655 81 c 2,30,-1
 664 81 l 1,31,-1
 664 0 l 1,32,-1
 489 0 l 1,33,-1
 489 620 l 2,34,35
 489 623 489 623 479 625 c 128,-1,36
 469 627 469 627 454.5 628 c 128,-1,37
 440 629 440 629 426 629 c 2,38,-1
 418 629 l 1,39,-1
 418 710 l 1,20,-1
159 0 m 1,40,-1
 159 83 l 1,41,-1
 553 83 l 1,42,-1
 553 0 l 1,43,-1
 510 0 l 2,44,45
 472 0 472 0 450 -5.5 c 128,-1,46
 428 -11 428 -11 418 -22.5 c 128,-1,47
 408 -34 408 -34 406 -56 c 2,48,-1
 395 -179 l 1,49,-1
 317 -179 l 1,50,-1
 306 -56 l 2,51,52
 304 -35 304 -35 294 -23 c 128,-1,53
 284 -11 284 -11 262 -5.5 c 128,-1,54
 240 0 240 0 201 0 c 2,55,-1
 159 0 l 1,40,-1
EndSplineSet
EndChar

StartChar: Becyr
Encoding: 1041 1041 257
Width: 594
GlyphClass: 2
Flags: W
AnchorPoint: "Anchor-0" 303 741 basechar 0
LayerCount: 2
Fore
SplineSet
48 710 m 1,0,-1
 507 710 l 1,1,-1
 507 512 l 1,2,-1
 428 512 l 1,3,-1
 418 586 l 2,4,5
 416 604 416 604 405.5 613.5 c 128,-1,6
 395 623 395 623 374.5 627 c 128,-1,7
 354 631 354 631 321 631 c 2,8,-1
 224 631 l 1,9,-1
 224 79 l 1,10,-1
 317 79 l 2,11,12
 355 79 355 79 381 93.5 c 128,-1,13
 407 108 407 108 420.5 137 c 128,-1,14
 434 166 434 166 434 211 c 0,15,16
 434 255 434 255 420.5 284.5 c 128,-1,17
 407 314 407 314 381 330 c 128,-1,18
 355 346 355 346 317 346 c 2,19,-1
 153 346 l 1,20,-1
 153 425 l 1,21,-1
 327 425 l 2,22,23
 393 425 393 425 443.5 401.5 c 128,-1,24
 494 378 494 378 522.5 330.5 c 128,-1,25
 551 283 551 283 551 210 c 0,26,27
 551 144 551 144 521.5 97 c 128,-1,28
 492 50 492 50 441.5 25 c 128,-1,29
 391 0 391 0 327 0 c 2,30,-1
 48 0 l 1,31,-1
 48 81 l 1,32,-1
 57 81 l 2,33,34
 78 81 78 81 94.5 88 c 128,-1,35
 111 95 111 95 111 117 c 2,36,-1
 111 595 l 2,37,38
 111 615 111 615 94 622 c 128,-1,39
 77 629 77 629 57 629 c 2,40,-1
 48 629 l 1,41,-1
 48 710 l 1,0,-1
EndSplineSet
EndChar

StartChar: Gecyr
Encoding: 1043 1043 259
Width: 556
GlyphClass: 2
Flags: W
AnchorPoint: "Anchor-0" 283 741 basechar 0
LayerCount: 2
Fore
SplineSet
223 631 m 1,0,-1
 223 117 l 2,1,2
 223 103 223 103 233 95 c 128,-1,3
 243 87 243 87 259.5 84 c 128,-1,4
 276 81 276 81 297 81 c 2,5,-1
 311 81 l 1,6,-1
 311 0 l 1,7,-1
 48 0 l 1,8,-1
 48 81 l 1,9,-1
 57 81 l 2,10,11
 77 81 77 81 94 88 c 128,-1,12
 111 95 111 95 111 118 c 2,13,-1
 111 593 l 2,14,15
 111 615 111 615 94 622 c 128,-1,16
 77 629 77 629 57 629 c 2,17,-1
 48 629 l 1,18,-1
 48 710 l 1,19,-1
 515 710 l 1,20,-1
 515 473 l 1,21,-1
 437 473 l 1,22,-1
 426 571 l 2,23,24
 424 596 424 596 413.5 609 c 128,-1,25
 403 622 403 622 382.5 626.5 c 128,-1,26
 362 631 362 631 329 631 c 2,27,-1
 223 631 l 1,0,-1
EndSplineSet
EndChar

StartChar: Decyr
Encoding: 1044 1044 261
Width: 697
GlyphClass: 2
Flags: W
AnchorPoint: "Anchor-0" 377 741 basechar 0
LayerCount: 2
Fore
SplineSet
210 710 m 1,0,-1
 516 710 l 1,1,-1
 516 627 l 1,2,-1
 210 627 l 1,3,-1
 210 710 l 1,0,-1
585 0 m 1,4,-1
 473 0 l 1,5,-1
 473 710 l 1,6,-1
 648 710 l 1,7,-1
 648 629 l 1,8,-1
 639 629 l 2,9,10
 616 629 616 629 600.5 622 c 128,-1,11
 585 615 585 615 585 593 c 2,12,-1
 585 0 l 1,4,-1
571 -56 m 2,13,14
 569 -35 569 -35 559 -23 c 128,-1,15
 549 -11 549 -11 526.5 -5.5 c 128,-1,16
 504 0 504 0 466 0 c 2,17,-1
 213 0 l 2,18,19
 174 0 174 0 152 -5.5 c 128,-1,20
 130 -11 130 -11 120 -23 c 128,-1,21
 110 -35 110 -35 108 -56 c 2,22,-1
 97 -179 l 1,23,-1
 19 -179 l 1,24,-1
 19 83 l 1,25,-1
 660 83 l 1,26,-1
 660 -179 l 1,27,-1
 582 -179 l 1,28,-1
 571 -56 l 2,13,14
154 33 m 1,29,-1
 54 33 l 1,30,31
 74 59 74 59 89 89 c 128,-1,32
 104 119 104 119 115 156.5 c 128,-1,33
 126 194 126 194 133.5 245.5 c 128,-1,34
 141 297 141 297 146 366 c 2,35,-1
 164 593 l 2,36,37
 166 615 166 615 152 622 c 128,-1,38
 138 629 138 629 117 629 c 2,39,-1
 108 629 l 1,40,-1
 108 710 l 1,41,-1
 262 710 l 1,42,-1
 235 361 l 2,43,44
 228 270 228 270 217.5 209.5 c 128,-1,45
 207 149 207 149 191.5 107.5 c 128,-1,46
 176 66 176 66 154 33 c 1,29,-1
EndSplineSet
Substitution2: "'locl' Localized Forms in Cyrillic lookup 12 subtable" De.bgr
EndChar

StartChar: Zhecyr
Encoding: 1046 1046 266
Width: 962
GlyphClass: 2
Flags: W
AnchorPoint: "Anchor-1" 471 0 basechar 0
AnchorPoint: "Anchor-0" 471 741 basechar 0
LayerCount: 2
Fore
SplineSet
685 0 m 1,0,-1
 685 81 l 1,1,-1
 692 81 l 2,2,3
 707 81 707 81 720.5 82 c 128,-1,4
 734 83 734 83 743 85.5 c 128,-1,5
 752 88 752 88 752 91 c 2,6,-1
 568 349 l 1,7,-1
 568 370 l 1,8,-1
 765 618 l 2,9,10
 765 622 765 622 756.5 624 c 128,-1,11
 748 626 748 626 734 627.5 c 128,-1,12
 720 629 720 629 707 629 c 2,13,-1
 699 629 l 1,14,-1
 699 710 l 1,15,-1
 920 710 l 1,16,-1
 920 629 l 1,17,-1
 902 629 l 2,18,19
 892 629 892 629 884 627 c 128,-1,20
 876 625 876 625 868 619 c 128,-1,21
 860 613 860 613 852 601 c 2,22,-1
 652 354 l 1,23,-1
 659 404 l 1,24,-1
 871 106 l 2,25,26
 879 95 879 95 887.5 89.5 c 128,-1,27
 896 84 896 84 905.5 82.5 c 128,-1,28
 915 81 915 81 925 81 c 2,29,-1
 944 81 l 1,30,-1
 944 0 l 1,31,-1
 685 0 l 1,0,-1
274 0 m 1,32,-1
 18 0 l 1,33,-1
 18 81 l 1,34,-1
 38 81 l 2,35,36
 47 81 47 81 56.5 82.5 c 128,-1,37
 66 84 66 84 75 89.5 c 128,-1,38
 84 95 84 95 92 106 c 2,39,-1
 303 404 l 1,40,-1
 304 353 l 1,41,-1
 106 601 l 2,42,43
 96 613 96 613 88.5 619 c 128,-1,44
 81 625 81 625 73.5 627 c 128,-1,45
 66 629 66 629 54 629 c 2,46,-1
 37 629 l 1,47,-1
 37 710 l 1,48,-1
 260 710 l 1,49,-1
 260 629 l 1,50,-1
 252 629 l 2,51,52
 238 629 238 629 224.5 627.5 c 128,-1,53
 211 626 211 626 202.5 624 c 128,-1,54
 194 622 194 622 194 618 c 2,55,-1
 391 370 l 1,56,-1
 391 349 l 1,57,-1
 207 91 l 2,58,59
 207 88 207 88 216 85.5 c 128,-1,60
 225 83 225 83 238.5 82 c 128,-1,61
 252 81 252 81 267 81 c 2,62,-1
 274 81 l 1,63,-1
 274 0 l 1,32,-1
362 0 m 1,64,-1
 362 81 l 1,65,-1
 369 81 l 2,66,67
 377 81 377 81 386.5 81.5 c 128,-1,68
 396 82 396 82 404.5 83.5 c 128,-1,69
 413 85 413 85 418 86.5 c 128,-1,70
 423 88 423 88 423 91 c 2,71,-1
 423 620 l 2,72,73
 423 623 423 623 417.5 624 c 128,-1,74
 412 625 412 625 403 626.5 c 128,-1,75
 394 628 394 628 384 628.5 c 128,-1,76
 374 629 374 629 366 629 c 2,77,-1
 358 629 l 1,78,-1
 358 710 l 1,79,-1
 601 710 l 1,80,-1
 601 629 l 1,81,-1
 593 629 l 2,82,83
 584 629 584 629 574 628.5 c 128,-1,84
 564 628 564 628 555.5 626.5 c 128,-1,85
 547 625 547 625 541.5 623.5 c 128,-1,86
 536 622 536 622 536 619 c 2,87,-1
 536 90 l 2,88,89
 536 87 536 87 541 86 c 128,-1,90
 546 85 546 85 554 83.5 c 128,-1,91
 562 82 562 82 572 81.5 c 128,-1,92
 582 81 582 81 591 81 c 2,93,-1
 597 81 l 1,94,-1
 597 0 l 1,95,-1
 362 0 l 1,64,-1
EndSplineSet
EndChar

StartChar: Zecyr
Encoding: 1047 1047 269
Width: 609
GlyphClass: 2
Flags: W
AnchorPoint: "Anchor-1" 329 0 basechar 0
AnchorPoint: "Anchor-0" 329 741 basechar 0
LayerCount: 2
Fore
SplineSet
348 -23 m 0,0,1
 281 -23 281 -23 235.5 1 c 128,-1,2
 190 25 190 25 164 74.5 c 128,-1,3
 138 124 138 124 132 200 c 1,4,-1
 159 171 l 1,5,-1
 144 -9 l 1,6,-1
 67 -9 l 1,7,-1
 67 231 l 1,8,-1
 154 231 l 1,9,10
 170 176 170 176 193 137.5 c 128,-1,11
 216 99 216 99 250.5 79 c 128,-1,12
 285 59 285 59 332 59 c 0,13,14
 371 59 371 59 395 73.5 c 128,-1,15
 419 88 419 88 431 117.5 c 128,-1,16
 443 147 443 147 443 191 c 0,17,18
 443 230 443 230 431.5 259.5 c 128,-1,19
 420 289 420 289 391.5 305 c 128,-1,20
 363 321 363 321 313 319 c 0,21,22
 300 318 300 318 286 317.5 c 128,-1,23
 272 317 272 317 258.5 316 c 128,-1,24
 245 315 245 315 233 314 c 1,25,-1
 233 415 l 1,26,27
 247 415 247 415 260 414.5 c 128,-1,28
 273 414 273 414 286.5 413.5 c 128,-1,29
 300 413 300 413 313 413 c 0,30,31
 353 412 353 412 376.5 426.5 c 128,-1,32
 400 441 400 441 410.5 470 c 128,-1,33
 421 499 421 499 421 539 c 0,34,35
 421 573 421 573 412 598.5 c 128,-1,36
 403 624 403 624 383 637.5 c 128,-1,37
 363 651 363 651 330 651 c 0,38,39
 288 651 288 651 256 632.5 c 128,-1,40
 224 614 224 614 201.5 576 c 128,-1,41
 179 538 179 538 164 479 c 1,42,-1
 77 479 l 1,43,-1
 77 719 l 1,44,-1
 153 719 l 1,45,-1
 168 539 l 1,46,-1
 142 510 l 1,47,48
 147 566 147 566 162.5 608 c 128,-1,49
 178 650 178 650 204 677.5 c 128,-1,50
 230 705 230 705 265 719 c 128,-1,51
 300 733 300 733 343 733 c 0,52,53
 406 733 406 733 449.5 710 c 128,-1,54
 493 687 493 687 515 646.5 c 128,-1,55
 537 606 537 606 537 551 c 256,56,57
 537 496 537 496 514 458.5 c 128,-1,58
 491 421 491 421 453.5 399 c 128,-1,59
 416 377 416 377 371 372 c 1,60,-1
 377 394 l 1,61,-1
 377 342 l 1,62,-1
 371 369 l 1,63,64
 429 365 429 365 471.5 343.5 c 128,-1,65
 514 322 514 322 537 283.5 c 128,-1,66
 560 245 560 245 560 190 c 0,67,68
 560 139 560 139 545.5 100 c 128,-1,69
 531 61 531 61 503.5 33.5 c 128,-1,70
 476 6 476 6 436.5 -8.5 c 128,-1,71
 397 -23 397 -23 348 -23 c 0,0,1
EndSplineSet
EndChar

StartChar: Icyr
Encoding: 1048 1048 270
Width: 728
GlyphClass: 2
Flags: W
AnchorPoint: "Anchor-0" 364 741 basechar 0
LayerCount: 2
Fore
SplineSet
170 202 m 1,0,-1
 505 574 l 1,1,-1
 558 517 l 1,2,-1
 223 145 l 1,3,-1
 170 202 l 1,0,-1
48 0 m 1,4,-1
 48 81 l 1,5,-1
 57 81 l 2,6,7
 77 81 77 81 94 88 c 128,-1,8
 111 95 111 95 111 118 c 2,9,-1
 111 593 l 2,10,11
 111 615 111 615 94 622 c 128,-1,12
 77 629 77 629 57 629 c 2,13,-1
 48 629 l 1,14,-1
 48 710 l 1,15,-1
 294 710 l 1,16,-1
 294 629 l 1,17,-1
 287 629 l 2,18,19
 273 629 273 629 258 628 c 128,-1,20
 243 627 243 627 233 625 c 128,-1,21
 223 623 223 623 223 619 c 2,22,-1
 223 90 l 2,23,24
 223 88 223 88 233 85.5 c 128,-1,25
 243 83 243 83 258 82 c 128,-1,26
 273 81 273 81 287 81 c 2,27,-1
 294 81 l 1,28,-1
 294 0 l 1,29,-1
 48 0 l 1,4,-1
434 0 m 1,30,-1
 434 81 l 1,31,-1
 441 81 l 2,32,33
 455 81 455 81 469.5 82 c 128,-1,34
 484 83 484 83 494.5 85.5 c 128,-1,35
 505 88 505 88 505 91 c 2,36,-1
 505 620 l 2,37,38
 505 623 505 623 494.5 625 c 128,-1,39
 484 627 484 627 469.5 628 c 128,-1,40
 455 629 455 629 441 629 c 2,41,-1
 434 629 l 1,42,-1
 434 710 l 1,43,-1
 680 710 l 1,44,-1
 680 629 l 1,45,-1
 671 629 l 2,46,47
 652 629 652 629 635 622 c 128,-1,48
 618 615 618 615 618 592 c 2,49,-1
 618 117 l 2,50,51
 618 95 618 95 635 88 c 128,-1,52
 652 81 652 81 671 81 c 2,53,-1
 680 81 l 1,54,-1
 680 0 l 1,55,-1
 434 0 l 1,30,-1
EndSplineSet
EndChar

StartChar: Elcyr
Encoding: 1051 1051 276
Width: 688
GlyphClass: 2
Flags: W
AnchorPoint: "Anchor-0" 379 741 basechar 0
LayerCount: 2
Fore
SplineSet
212 710 m 1,0,-1
 526 710 l 1,1,-1
 526 627 l 1,2,-1
 212 627 l 1,3,-1
 212 710 l 1,0,-1
394 0 m 1,4,-1
 394 81 l 1,5,-1
 401 81 l 2,6,7
 416 81 416 81 430 82 c 128,-1,8
 444 83 444 83 454 85.5 c 128,-1,9
 464 88 464 88 464 90 c 2,10,-1
 464 710 l 1,11,-1
 640 710 l 1,12,-1
 640 629 l 1,13,-1
 631 629 l 2,14,15
 611 629 611 629 594 622 c 128,-1,16
 577 615 577 615 577 592 c 2,17,-1
 577 117 l 2,18,19
 577 95 577 95 594 88 c 128,-1,20
 611 81 611 81 631 81 c 2,21,-1
 640 81 l 1,22,-1
 640 0 l 1,23,-1
 394 0 l 1,4,-1
146 282 m 2,24,-1
 164 593 l 2,25,26
 166 615 166 615 151.5 622 c 128,-1,27
 137 629 137 629 117 629 c 2,28,-1
 107 629 l 1,29,-1
 107 710 l 1,30,-1
 260 710 l 1,31,-1
 234 276 l 2,32,33
 229 171 229 171 208 107 c 128,-1,34
 187 43 187 43 152.5 14 c 128,-1,35
 118 -15 118 -15 68 -15 c 0,36,37
 53 -15 53 -15 37.5 -11 c 128,-1,38
 22 -7 22 -7 10 0 c 1,39,-1
 10 103 l 1,40,41
 22 96 22 96 34.5 92 c 128,-1,42
 47 88 47 88 60 88 c 0,43,44
 84 88 84 88 101 107.5 c 128,-1,45
 118 127 118 127 130 169.5 c 128,-1,46
 142 212 142 212 146 282 c 2,24,-1
EndSplineSet
Substitution2: "'locl' Localized Forms in Cyrillic lookup 12 subtable" El.bgr
EndChar

StartChar: Pecyr
Encoding: 1055 1055 281
Width: 712
GlyphClass: 2
Flags: W
AnchorPoint: "Anchor-0" 356 741 basechar 0
LayerCount: 2
Fore
SplineSet
186 710 m 1,0,-1
 526 710 l 1,1,-1
 526 627 l 1,2,-1
 186 627 l 1,3,-1
 186 710 l 1,0,-1
48 0 m 1,4,-1
 48 81 l 1,5,-1
 57 81 l 2,6,7
 77 81 77 81 94 88 c 128,-1,8
 111 95 111 95 111 118 c 2,9,-1
 111 593 l 2,10,11
 111 615 111 615 94 622 c 128,-1,12
 77 629 77 629 57 629 c 2,13,-1
 48 629 l 1,14,-1
 48 710 l 1,15,-1
 223 710 l 1,16,-1
 223 90 l 2,17,18
 223 88 223 88 233 85.5 c 128,-1,19
 243 83 243 83 258 82 c 128,-1,20
 273 81 273 81 287 81 c 2,21,-1
 294 81 l 1,22,-1
 294 0 l 1,23,-1
 48 0 l 1,4,-1
418 0 m 1,24,-1
 418 81 l 1,25,-1
 425 81 l 2,26,27
 439 81 439 81 453.5 82 c 128,-1,28
 468 83 468 83 478.5 85.5 c 128,-1,29
 489 88 489 88 489 90 c 2,30,-1
 489 710 l 1,31,-1
 664 710 l 1,32,-1
 664 629 l 1,33,-1
 655 629 l 2,34,35
 636 629 636 629 619 622 c 128,-1,36
 602 615 602 615 602 592 c 2,37,-1
 602 117 l 2,38,39
 602 95 602 95 619 88 c 128,-1,40
 636 81 636 81 655 81 c 2,41,-1
 664 81 l 1,42,-1
 664 0 l 1,43,-1
 418 0 l 1,24,-1
EndSplineSet
EndChar

StartChar: Ucyr
Encoding: 1059 1059 285
Width: 590
GlyphClass: 2
Flags: W
AnchorPoint: "Anchor-1" 195 0 basechar 0
AnchorPoint: "Anchor-0" 301 741 basechar 0
LayerCount: 2
Fore
SplineSet
362 199 m 2,0,1
 340 145 340 145 319.5 103.5 c 128,-1,2
 299 62 299 62 277 34 c 128,-1,3
 255 6 255 6 229.5 -8.5 c 128,-1,4
 204 -23 204 -23 171 -23 c 0,5,6
 152 -23 152 -23 136.5 -18.5 c 128,-1,7
 121 -14 121 -14 110 -5 c 1,8,-1
 110 96 l 1,9,10
 121 89 121 89 138 83 c 128,-1,11
 155 77 155 77 170 77 c 0,12,13
 195 77 195 77 215 91 c 128,-1,14
 235 105 235 105 253 137 c 128,-1,15
 271 169 271 169 291 223 c 2,16,-1
 435 607 l 2,17,18
 435 614 435 614 429 618.5 c 128,-1,19
 423 623 423 623 412.5 626 c 128,-1,20
 402 629 402 629 392 629 c 2,21,-1
 383 629 l 1,22,-1
 383 710 l 1,23,-1
 571 710 l 1,24,-1
 571 629 l 1,25,-1
 561 629 l 2,26,27
 550 629 550 629 541.5 624 c 128,-1,28
 533 619 533 619 525 607.5 c 128,-1,29
 517 596 517 596 509 575 c 2,30,-1
 362 199 l 2,0,1
338 227 m 1,31,-1
 267 130 l 1,32,-1
 79 582 l 2,33,34
 72 601 72 601 65 611 c 128,-1,35
 58 621 58 621 49.5 625 c 128,-1,36
 41 629 41 629 30 629 c 2,37,-1
 20 629 l 1,38,-1
 20 710 l 1,39,-1
 248 710 l 1,40,-1
 248 629 l 1,41,-1
 237 629 l 2,42,43
 222 629 222 629 208.5 627.5 c 128,-1,44
 195 626 195 626 186 624 c 128,-1,45
 177 622 177 622 177 619 c 2,46,-1
 338 227 l 1,31,-1
EndSplineSet
EndChar

StartChar: Efcyr
Encoding: 1060 1060 290
Width: 803
GlyphClass: 2
Flags: W
AnchorPoint: "Anchor-1" 402 0 basechar 0
AnchorPoint: "Anchor-0" 402 741 basechar 0
LayerCount: 2
Fore
SplineSet
350 92 m 2,0,-1
 350 618 l 2,1,2
 350 640 350 640 332 647 c 128,-1,3
 314 654 314 654 286 654 c 2,4,-1
 270 654 l 1,5,-1
 270 735 l 1,6,-1
 532 735 l 1,7,-1
 532 654 l 1,8,-1
 516 654 l 2,9,10
 490 654 490 654 471.5 647 c 128,-1,11
 453 640 453 640 453 618 c 2,12,-1
 453 92 l 2,13,14
 453 70 453 70 471.5 63 c 128,-1,15
 490 56 490 56 516 56 c 2,16,-1
 532 56 l 1,17,-1
 532 -25 l 1,18,-1
 270 -25 l 1,19,-1
 270 56 l 1,20,-1
 286 56 l 2,21,22
 314 56 314 56 332 63 c 128,-1,23
 350 70 350 70 350 92 c 2,0,-1
350 615 m 1,24,-1
 350 534 l 1,25,26
 283 534 283 534 241.5 514 c 128,-1,27
 200 494 200 494 181 455 c 128,-1,28
 162 416 162 416 162 360 c 256,29,30
 162 304 162 304 181 264.5 c 128,-1,31
 200 225 200 225 241.5 205 c 128,-1,32
 283 185 283 185 350 185 c 1,33,-1
 350 104 l 1,34,35
 247 104 247 104 179 136 c 128,-1,36
 111 168 111 168 77 225 c 128,-1,37
 43 282 43 282 43 360 c 0,38,39
 43 437 43 437 77.5 494 c 128,-1,40
 112 551 112 551 180.5 583 c 128,-1,41
 249 615 249 615 350 615 c 1,24,-1
453 104 m 1,42,-1
 453 185 l 1,43,44
 521 185 521 185 562 205 c 128,-1,45
 603 225 603 225 622 264.5 c 128,-1,46
 641 304 641 304 641 360 c 256,47,48
 641 416 641 416 622 455 c 128,-1,49
 603 494 603 494 562 514 c 128,-1,50
 521 534 521 534 453 534 c 1,51,-1
 453 615 l 1,52,53
 556 615 556 615 624.5 583 c 128,-1,54
 693 551 693 551 727 494 c 128,-1,55
 761 437 761 437 761 359 c 0,56,57
 761 282 761 282 726 225 c 128,-1,58
 691 168 691 168 622.5 136 c 128,-1,59
 554 104 554 104 453 104 c 1,42,-1
EndSplineSet
EndChar

StartChar: Tsecyr
Encoding: 1062 1062 292
Width: 714
GlyphClass: 2
Flags: W
AnchorPoint: "Anchor-0" 357 741 basechar 0
LayerCount: 2
Fore
SplineSet
179 0 m 1,0,-1
 179 83 l 1,1,-1
 520 83 l 1,2,-1
 520 0 l 1,3,-1
 179 0 l 1,0,-1
48 710 m 1,4,-1
 293 710 l 1,5,-1
 293 629 l 1,6,-1
 286 629 l 2,7,8
 273 629 273 629 258.5 628 c 128,-1,9
 244 627 244 627 233.5 625 c 128,-1,10
 223 623 223 623 223 620 c 2,11,-1
 223 0 l 1,12,-1
 48 0 l 1,13,-1
 48 81 l 1,14,-1
 57 81 l 2,15,16
 77 81 77 81 94 88 c 128,-1,17
 111 95 111 95 111 118 c 2,18,-1
 111 593 l 2,19,20
 111 615 111 615 94 622 c 128,-1,21
 77 629 77 629 57 629 c 2,22,-1
 48 629 l 1,23,-1
 48 710 l 1,4,-1
418 710 m 1,24,-1
 664 710 l 1,25,-1
 664 629 l 1,26,-1
 655 629 l 2,27,28
 635 629 635 629 618.5 622 c 128,-1,29
 602 615 602 615 602 593 c 2,30,-1
 602 0 l 1,31,-1
 489 0 l 1,32,-1
 489 620 l 2,33,34
 489 623 489 623 479 625 c 128,-1,35
 469 627 469 627 454.5 628 c 128,-1,36
 440 629 440 629 426 629 c 2,37,-1
 418 629 l 1,38,-1
 418 710 l 1,24,-1
463 0 m 1,39,-1
 463 83 l 1,40,-1
 676 83 l 1,41,-1
 676 -179 l 1,42,-1
 598 -179 l 1,43,-1
 587 -56 l 2,44,45
 585 -35 585 -35 575 -23 c 128,-1,46
 565 -11 565 -11 542.5 -5.5 c 128,-1,47
 520 0 520 0 482 0 c 2,48,-1
 463 0 l 1,39,-1
EndSplineSet
EndChar

StartChar: Checyr
Encoding: 1063 1063 293
Width: 691
GlyphClass: 2
Flags: W
AnchorPoint: "Anchor-0" 338 741 basechar 0
LayerCount: 2
Fore
SplineSet
398 0 m 1,0,-1
 398 81 l 1,1,-1
 405 81 l 2,2,3
 419 81 419 81 433.5 82 c 128,-1,4
 448 83 448 83 458 85.5 c 128,-1,5
 468 88 468 88 468 91 c 2,6,-1
 468 620 l 2,7,8
 468 623 468 623 457.5 625 c 128,-1,9
 447 627 447 627 433 628 c 128,-1,10
 419 629 419 629 405 629 c 2,11,-1
 398 629 l 1,12,-1
 398 710 l 1,13,-1
 643 710 l 1,14,-1
 643 629 l 1,15,-1
 634 629 l 2,16,17
 614 629 614 629 597 622 c 128,-1,18
 580 615 580 615 580 592 c 2,19,-1
 580 117 l 2,20,21
 580 95 580 95 597 88 c 128,-1,22
 614 81 614 81 634 81 c 2,23,-1
 643 81 l 1,24,-1
 643 0 l 1,25,-1
 398 0 l 1,0,-1
318 268 m 0,26,27
 240 268 240 268 190 286 c 128,-1,28
 140 304 140 304 115.5 346 c 128,-1,29
 91 388 91 388 91 459 c 2,30,-1
 91 593 l 2,31,32
 91 615 91 615 74.5 622 c 128,-1,33
 58 629 58 629 38 629 c 2,34,-1
 29 629 l 1,35,-1
 29 710 l 1,36,-1
 275 710 l 1,37,-1
 275 629 l 1,38,-1
 267 629 l 2,39,40
 254 629 254 629 239 628 c 128,-1,41
 224 627 224 627 214 625 c 128,-1,42
 204 623 204 623 204 619 c 2,43,-1
 204 465 l 2,44,45
 204 425 204 425 217 400 c 128,-1,46
 230 375 230 375 258 363.5 c 128,-1,47
 286 352 286 352 333 352 c 0,48,49
 371 352 371 352 413 359 c 128,-1,50
 455 366 455 366 488 384 c 1,51,-1
 488 302 l 1,52,53
 450 285 450 285 406.5 276.5 c 128,-1,54
 363 268 363 268 318 268 c 0,26,27
EndSplineSet
EndChar

StartChar: Shacyr
Encoding: 1064 1064 294
Width: 989
GlyphClass: 2
Flags: W
AnchorPoint: "Anchor-0" 484 741 basechar 0
LayerCount: 2
Fore
SplineSet
809 0 m 1,0,-1
 185 0 l 1,1,-1
 185 83 l 1,2,-1
 809 83 l 1,3,-1
 809 0 l 1,0,-1
941 710 m 1,4,-1
 941 629 l 1,5,-1
 932 629 l 2,6,7
 912 629 912 629 895 622 c 128,-1,8
 878 615 878 615 878 592 c 2,9,-1
 878 117 l 2,10,11
 878 95 878 95 895 88 c 128,-1,12
 912 81 912 81 932 81 c 2,13,-1
 941 81 l 1,14,-1
 941 0 l 1,15,-1
 765 0 l 1,16,-1
 765 620 l 2,17,18
 765 623 765 623 755.5 625 c 128,-1,19
 746 627 746 627 731 628 c 128,-1,20
 716 629 716 629 702 629 c 2,21,-1
 694 629 l 1,22,-1
 694 710 l 1,23,-1
 941 710 l 1,4,-1
294 710 m 1,24,-1
 294 629 l 1,25,-1
 287 629 l 2,26,27
 274 629 274 629 259 628 c 128,-1,28
 244 627 244 627 233.5 625 c 128,-1,29
 223 623 223 623 223 620 c 2,30,-1
 223 0 l 1,31,-1
 48 0 l 1,32,-1
 48 81 l 1,33,-1
 57 81 l 2,34,35
 77 81 77 81 94 88 c 128,-1,36
 111 95 111 95 111 118 c 2,37,-1
 111 593 l 2,38,39
 111 615 111 615 94 622 c 128,-1,40
 77 629 77 629 57 629 c 2,41,-1
 48 629 l 1,42,-1
 48 710 l 1,43,-1
 294 710 l 1,24,-1
373 710 m 1,44,-1
 616 710 l 1,45,-1
 616 629 l 1,46,-1
 609 629 l 2,47,48
 596 629 596 629 583.5 628 c 128,-1,49
 571 627 571 627 561 625 c 128,-1,50
 551 623 551 623 551 620 c 2,51,-1
 551 0 l 1,52,-1
 438 0 l 1,53,-1
 438 619 l 2,54,55
 438 623 438 623 428 625 c 128,-1,56
 418 627 418 627 405.5 628 c 128,-1,57
 393 629 393 629 380 629 c 2,58,-1
 373 629 l 1,59,-1
 373 710 l 1,44,-1
EndSplineSet
EndChar

StartChar: Shchacyr
Encoding: 1065 1065 295
Width: 990
GlyphClass: 2
Flags: W
AnchorPoint: "Anchor-0" 485 741 basechar 0
LayerCount: 2
Fore
SplineSet
802 0 m 1,0,-1
 185 0 l 1,1,-1
 185 83 l 1,2,-1
 802 83 l 1,3,-1
 802 0 l 1,0,-1
293 710 m 1,4,-1
 293 629 l 1,5,-1
 286 629 l 2,6,7
 273 629 273 629 258.5 628 c 128,-1,8
 244 627 244 627 233.5 625 c 128,-1,9
 223 623 223 623 223 620 c 2,10,-1
 223 0 l 1,11,-1
 48 0 l 1,12,-1
 48 81 l 1,13,-1
 57 81 l 2,14,15
 77 81 77 81 94 88 c 128,-1,16
 111 95 111 95 111 118 c 2,17,-1
 111 593 l 2,18,19
 111 615 111 615 94 622 c 128,-1,20
 77 629 77 629 57 629 c 2,21,-1
 48 629 l 1,22,-1
 48 710 l 1,23,-1
 293 710 l 1,4,-1
694 710 m 1,24,-1
 941 710 l 1,25,-1
 941 629 l 1,26,-1
 932 629 l 2,27,28
 912 629 912 629 895 622 c 128,-1,29
 878 615 878 615 878 593 c 2,30,-1
 878 0 l 1,31,-1
 765 0 l 1,32,-1
 765 620 l 2,33,34
 765 623 765 623 755.5 625 c 128,-1,35
 746 627 746 627 731 628 c 128,-1,36
 716 629 716 629 702 629 c 2,37,-1
 694 629 l 1,38,-1
 694 710 l 1,24,-1
758 0 m 2,39,-1
 739 0 l 1,40,-1
 739 83 l 1,41,-1
 952 83 l 1,42,-1
 952 -179 l 1,43,-1
 874 -179 l 1,44,-1
 863 -56 l 2,45,46
 861 -35 861 -35 851 -23 c 128,-1,47
 841 -11 841 -11 819 -5.5 c 128,-1,48
 797 0 797 0 758 0 c 2,39,-1
373 710 m 1,49,-1
 616 710 l 1,50,-1
 616 629 l 1,51,-1
 609 629 l 2,52,53
 596 629 596 629 583.5 628 c 128,-1,54
 571 627 571 627 561 625 c 128,-1,55
 551 623 551 623 551 620 c 2,56,-1
 551 0 l 1,57,-1
 438 0 l 1,58,-1
 438 619 l 2,59,60
 438 623 438 623 428 625 c 128,-1,61
 418 627 418 627 405.5 628 c 128,-1,62
 393 629 393 629 380 629 c 2,63,-1
 373 629 l 1,64,-1
 373 710 l 1,49,-1
EndSplineSet
EndChar

StartChar: Hardcyr
Encoding: 1066 1066 296
Width: 707
GlyphClass: 2
Flags: W
AnchorPoint: "Anchor-0" 248 741 basechar 0
LayerCount: 2
Fore
SplineSet
445 0 m 2,0,-1
 166 0 l 1,1,-1
 166 81 l 1,2,-1
 175 81 l 2,3,4
 197 81 197 81 215.5 88 c 128,-1,5
 234 95 234 95 234 117 c 2,6,-1
 234 631 l 1,7,-1
 204 631 l 2,8,9
 172 631 172 631 157 625 c 128,-1,10
 142 619 142 619 137 605.5 c 128,-1,11
 132 592 132 592 129 571 c 2,12,-1
 119 473 l 1,13,-1
 41 473 l 1,14,-1
 41 710 l 1,15,-1
 429 710 l 1,16,-1
 429 629 l 1,17,-1
 412 629 l 2,18,19
 394 629 394 629 379 628 c 128,-1,20
 364 627 364 627 355 625 c 128,-1,21
 346 623 346 623 346 619 c 2,22,-1
 346 79 l 1,23,-1
 435 79 l 2,24,25
 474 79 474 79 499.5 95 c 128,-1,26
 525 111 525 111 538.5 141.5 c 128,-1,27
 552 172 552 172 552 217 c 0,28,29
 552 264 552 264 538.5 295.5 c 128,-1,30
 525 327 525 327 499.5 342.5 c 128,-1,31
 474 358 474 358 435 358 c 2,32,-1
 271 358 l 1,33,-1
 271 437 l 1,34,-1
 446 437 l 2,35,36
 512 437 512 437 562 413 c 128,-1,37
 612 389 612 389 640.5 340 c 128,-1,38
 669 291 669 291 669 216 c 0,39,40
 669 149 669 149 639.5 100 c 128,-1,41
 610 51 610 51 559.5 25.5 c 128,-1,42
 509 0 509 0 445 0 c 2,0,-1
EndSplineSet
EndChar

StartChar: Ylongcyr
Encoding: 1067 1067 297
Width: 871
GlyphClass: 2
Flags: W
AnchorPoint: "Anchor-1" 427 0 basechar 0
AnchorPoint: "Anchor-0" 427 741 basechar 0
LayerCount: 2
Fore
SplineSet
648 91 m 2,0,-1
 648 620 l 2,1,2
 648 623 648 623 637.5 625 c 128,-1,3
 627 627 627 627 613 628 c 128,-1,4
 599 629 599 629 585 629 c 2,5,-1
 578 629 l 1,6,-1
 578 710 l 1,7,-1
 823 710 l 1,8,-1
 823 629 l 1,9,-1
 814 629 l 2,10,11
 788 629 788 629 774 622 c 128,-1,12
 760 615 760 615 760 592 c 2,13,-1
 760 117 l 2,14,15
 760 95 760 95 774 88 c 128,-1,16
 788 81 788 81 814 81 c 2,17,-1
 823 81 l 1,18,-1
 823 0 l 1,19,-1
 578 0 l 1,20,-1
 578 81 l 1,21,-1
 585 81 l 2,22,23
 599 81 599 81 613.5 82 c 128,-1,24
 628 83 628 83 638 85.5 c 128,-1,25
 648 88 648 88 648 91 c 2,0,-1
327 0 m 2,26,-1
 48 0 l 1,27,-1
 48 81 l 1,28,-1
 56 81 l 2,29,30
 77 81 77 81 94 88 c 128,-1,31
 111 95 111 95 111 118 c 2,32,-1
 111 593 l 2,33,34
 111 615 111 615 94 622 c 128,-1,35
 77 629 77 629 57 629 c 2,36,-1
 48 629 l 1,37,-1
 48 710 l 1,38,-1
 311 710 l 1,39,-1
 311 629 l 1,40,-1
 293 629 l 2,41,42
 275 629 275 629 259.5 628 c 128,-1,43
 244 627 244 627 234 625 c 128,-1,44
 224 623 224 623 224 619 c 2,45,-1
 224 79 l 1,46,-1
 317 79 l 2,47,48
 355 79 355 79 381 95 c 128,-1,49
 407 111 407 111 420 141.5 c 128,-1,50
 433 172 433 172 433 217 c 0,51,52
 433 264 433 264 420 295.5 c 128,-1,53
 407 327 407 327 381 342.5 c 128,-1,54
 355 358 355 358 317 358 c 2,55,-1
 172 358 l 1,56,-1
 172 437 l 1,57,-1
 328 437 l 2,58,59
 393 437 393 437 443.5 413 c 128,-1,60
 494 389 494 389 522.5 340 c 128,-1,61
 551 291 551 291 551 217 c 0,62,63
 551 149 551 149 521.5 100 c 128,-1,64
 492 51 492 51 441.5 25.5 c 128,-1,65
 391 0 391 0 327 0 c 2,26,-1
EndSplineSet
EndChar

StartChar: Softcyr
Encoding: 1068 1068 298
Width: 589
GlyphClass: 2
Flags: W
AnchorPoint: "Anchor-0" 170 741 basechar 0
LayerCount: 2
Fore
SplineSet
327 0 m 2,0,-1
 48 0 l 1,1,-1
 48 81 l 1,2,-1
 56 81 l 2,3,4
 77 81 77 81 94 88 c 128,-1,5
 111 95 111 95 111 118 c 2,6,-1
 111 593 l 2,7,8
 111 615 111 615 94 622 c 128,-1,9
 77 629 77 629 57 629 c 2,10,-1
 48 629 l 1,11,-1
 48 710 l 1,12,-1
 311 710 l 1,13,-1
 311 629 l 1,14,-1
 293 629 l 2,15,16
 275 629 275 629 259.5 628 c 128,-1,17
 244 627 244 627 234 625 c 128,-1,18
 224 623 224 623 224 619 c 2,19,-1
 224 79 l 1,20,-1
 317 79 l 2,21,22
 355 79 355 79 381 95 c 128,-1,23
 407 111 407 111 420 141.5 c 128,-1,24
 433 172 433 172 433 217 c 0,25,26
 433 264 433 264 420 295.5 c 128,-1,27
 407 327 407 327 381 342.5 c 128,-1,28
 355 358 355 358 317 358 c 2,29,-1
 172 358 l 1,30,-1
 172 437 l 1,31,-1
 328 437 l 2,32,33
 393 437 393 437 443.5 413 c 128,-1,34
 494 389 494 389 522.5 340 c 128,-1,35
 551 291 551 291 551 217 c 0,36,37
 551 149 551 149 521.5 100 c 128,-1,38
 492 51 492 51 441.5 25.5 c 128,-1,39
 391 0 391 0 327 0 c 2,0,-1
EndSplineSet
EndChar

StartChar: Ereversedcyr
Encoding: 1069 1069 299
Width: 641
GlyphClass: 2
Flags: W
AnchorPoint: "Anchor-1" 308 0 basechar 0
AnchorPoint: "Anchor-0" 308 741 basechar 0
LayerCount: 2
Fore
SplineSet
497 399 m 1,0,-1
 497 327 l 1,1,2
 463 325 463 325 428.5 323.5 c 128,-1,3
 394 322 394 322 359.5 320 c 128,-1,4
 325 318 325 318 290.5 316.5 c 128,-1,5
 256 315 256 315 221 313 c 1,6,-1
 221 414 l 1,7,8
 253 413 253 413 287 411 c 128,-1,9
 321 409 321 409 356.5 407 c 128,-1,10
 392 405 392 405 427.5 403 c 128,-1,11
 463 401 463 401 497 399 c 1,0,-1
327 -23 m 0,12,13
 271 -23 271 -23 229.5 2 c 128,-1,14
 188 27 188 27 163.5 78 c 128,-1,15
 139 129 139 129 133 205 c 1,16,-1
 159 176 l 1,17,-1
 144 -9 l 1,18,-1
 67 -9 l 1,19,-1
 67 236 l 1,20,-1
 154 236 l 1,21,22
 170 179 170 179 191.5 139 c 128,-1,23
 213 99 213 99 243.5 78 c 128,-1,24
 274 57 274 57 315 57 c 0,25,26
 357 57 357 57 387 74.5 c 128,-1,27
 417 92 417 92 436 128 c 128,-1,28
 455 164 455 164 464 220.5 c 128,-1,29
 473 277 473 277 473 355 c 0,30,31
 473 435 473 435 461.5 491.5 c 128,-1,32
 450 548 450 548 429 584 c 128,-1,33
 408 620 408 620 380 636.5 c 128,-1,34
 352 653 352 653 319 653 c 0,35,36
 275 653 275 653 244 632.5 c 128,-1,37
 213 612 213 612 191.5 572.5 c 128,-1,38
 170 533 170 533 154 474 c 1,39,-1
 67 474 l 1,40,-1
 67 719 l 1,41,-1
 144 719 l 1,42,-1
 159 534 l 1,43,-1
 134 506 l 1,44,45
 139 582 139 582 163.5 632.5 c 128,-1,46
 188 683 188 683 229.5 708 c 128,-1,47
 271 733 271 733 327 733 c 0,48,49
 384 733 384 733 432.5 709.5 c 128,-1,50
 481 686 481 686 517 639 c 128,-1,51
 553 592 553 592 573 521 c 128,-1,52
 593 450 593 450 593 355 c 0,53,54
 593 263 593 263 573 192.5 c 128,-1,55
 553 122 553 122 517 74.5 c 128,-1,56
 481 27 481 27 432.5 2 c 128,-1,57
 384 -23 384 -23 327 -23 c 0,12,13
EndSplineSet
Substitution2: "'ss01' Style Set 1 lookup 61 subtable" Ecyr.alt1
EndChar

StartChar: Yucyr
Encoding: 1070 1070 300
Width: 931
GlyphClass: 2
Flags: W
AnchorPoint: "Anchor-1" 484 0 basechar 0
AnchorPoint: "Anchor-0" 484 741 basechar 0
LayerCount: 2
Fore
SplineSet
166 407 m 1,0,-1
 381 407 l 1,1,-1
 381 325 l 1,2,-1
 166 325 l 1,3,-1
 166 407 l 1,0,-1
48 0 m 1,4,-1
 48 81 l 1,5,-1
 57 81 l 2,6,7
 77 81 77 81 94 88 c 128,-1,8
 111 95 111 95 111 118 c 2,9,-1
 111 593 l 2,10,11
 111 615 111 615 94 622 c 128,-1,12
 77 629 77 629 57 629 c 2,13,-1
 48 629 l 1,14,-1
 48 710 l 1,15,-1
 294 710 l 1,16,-1
 294 630 l 1,17,-1
 287 630 l 2,18,19
 276 630 276 630 265 629 c 128,-1,20
 254 628 254 628 245 626.5 c 128,-1,21
 236 625 236 625 229.5 623.5 c 128,-1,22
 223 622 223 622 223 619 c 2,23,-1
 223 90 l 2,24,25
 223 87 223 87 229.5 86 c 128,-1,26
 236 85 236 85 245.5 83.5 c 128,-1,27
 255 82 255 82 266 81.5 c 128,-1,28
 277 81 277 81 286 81 c 2,29,-1
 294 81 l 1,30,-1
 294 0 l 1,31,-1
 48 0 l 1,4,-1
604 -23 m 256,32,33
 541 -23 541 -23 489.5 1.5 c 128,-1,34
 438 26 438 26 401 74 c 128,-1,35
 364 122 364 122 344 192.5 c 128,-1,36
 324 263 324 263 324 355 c 0,37,38
 324 448 324 448 344 518.5 c 128,-1,39
 364 589 364 589 401 636.5 c 128,-1,40
 438 684 438 684 489.5 708.5 c 128,-1,41
 541 733 541 733 604 733 c 256,42,43
 667 733 667 733 718 708.5 c 128,-1,44
 769 684 769 684 806 636.5 c 128,-1,45
 843 589 843 589 863 518.5 c 128,-1,46
 883 448 883 448 883 355 c 0,47,48
 883 263 883 263 863 192.5 c 128,-1,49
 843 122 843 122 806 74 c 128,-1,50
 769 26 769 26 718 1.5 c 128,-1,51
 667 -23 667 -23 604 -23 c 256,32,33
604 59 m 256,52,53
 644 59 644 59 674 76 c 128,-1,54
 704 93 704 93 723.5 129 c 128,-1,55
 743 165 743 165 753 220.5 c 128,-1,56
 763 276 763 276 763 355 c 0,57,58
 763 433 763 433 753 489 c 128,-1,59
 743 545 743 545 723.5 581 c 128,-1,60
 704 617 704 617 674 634 c 128,-1,61
 644 651 644 651 604 651 c 256,62,63
 564 651 564 651 533.5 634 c 128,-1,64
 503 617 503 617 483 581 c 128,-1,65
 463 545 463 545 453.5 489 c 128,-1,66
 444 433 444 433 444 355 c 256,67,68
 444 277 444 277 453.5 221 c 128,-1,69
 463 165 463 165 483.5 129 c 128,-1,70
 504 93 504 93 534 76 c 128,-1,71
 564 59 564 59 604 59 c 256,52,53
EndSplineSet
EndChar

StartChar: Yacyr
Encoding: 1071 1071 301
Width: 641
GlyphClass: 2
Flags: W
AnchorPoint: "Anchor-1" 321 0 basechar 0
AnchorPoint: "Anchor-0" 353 741 basechar 0
LayerCount: 2
Fore
SplineSet
319 323 m 1,0,-1
 170 0 l 1,1,-1
 25 0 l 1,2,-1
 25 81 l 1,3,-1
 32 81 l 2,4,5
 51 81 51 81 65.5 86 c 128,-1,6
 80 91 80 91 93.5 104.5 c 128,-1,7
 107 118 107 118 119 143 c 2,8,-1
 228 371 l 1,9,-1
 319 323 l 1,0,-1
418 91 m 2,10,-1
 418 631 l 1,11,-1
 319 631 l 2,12,13
 280 631 280 631 255 616 c 128,-1,14
 230 601 230 601 218.5 572.5 c 128,-1,15
 207 544 207 544 207 504 c 0,16,17
 207 461 207 461 218.5 430.5 c 128,-1,18
 230 400 230 400 255 383.5 c 128,-1,19
 280 367 280 367 324 367 c 2,20,-1
 432 367 l 1,21,-1
 432 288 l 1,22,-1
 285 288 l 1,23,-1
 261 301 l 1,24,25
 211 310 211 310 172 332.5 c 128,-1,26
 133 355 133 355 111.5 396.5 c 128,-1,27
 90 438 90 438 90 504 c 256,28,29
 90 570 90 570 116 616 c 128,-1,30
 142 662 142 662 191.5 686 c 128,-1,31
 241 710 241 710 311 710 c 2,32,-1
 594 710 l 1,33,-1
 594 629 l 1,34,-1
 584 629 l 2,35,36
 564 629 564 629 547.5 622 c 128,-1,37
 531 615 531 615 531 592 c 2,38,-1
 531 117 l 2,39,40
 531 95 531 95 547.5 88 c 128,-1,41
 564 81 564 81 584 81 c 2,42,-1
 594 81 l 1,43,-1
 594 0 l 1,44,-1
 333 0 l 1,45,-1
 333 81 l 1,46,-1
 348 81 l 2,47,48
 361 81 361 81 374 81.5 c 128,-1,49
 387 82 387 82 396.5 83.5 c 128,-1,50
 406 85 406 85 412 86.5 c 128,-1,51
 418 88 418 88 418 91 c 2,10,-1
EndSplineSet
EndChar

StartChar: Geupcyr
Encoding: 1168 1168 302
Width: 551
GlyphClass: 2
Flags: W
AnchorPoint: "Anchor-0" 259 741 basechar 0
LayerCount: 2
Fore
SplineSet
223 631 m 1,0,-1
 223 117 l 2,1,2
 223 103 223 103 233 95 c 128,-1,3
 243 87 243 87 259.5 84 c 128,-1,4
 276 81 276 81 297 81 c 2,5,-1
 311 81 l 1,6,-1
 311 0 l 1,7,-1
 48 0 l 1,8,-1
 48 81 l 1,9,-1
 57 81 l 2,10,11
 77 81 77 81 94 88 c 128,-1,12
 111 95 111 95 111 118 c 2,13,-1
 111 593 l 2,14,15
 111 615 111 615 94 622 c 128,-1,16
 77 629 77 629 57 629 c 2,17,-1
 48 629 l 1,18,-1
 48 710 l 1,19,-1
 317 710 l 2,20,21
 356 710 356 710 379.5 715 c 128,-1,22
 403 720 403 720 413.5 732.5 c 128,-1,23
 424 745 424 745 426 767 c 2,24,-1
 437 889 l 1,25,-1
 515 889 l 1,26,-1
 515 631 l 1,27,-1
 223 631 l 1,0,-1
EndSplineSet
EndChar

StartChar: Gestrokecyr
Encoding: 1170 1170 303
Width: 556
GlyphClass: 2
Flags: W
AnchorPoint: "Anchor-0" 283 741 basechar 0
LayerCount: 2
Fore
SplineSet
41 400 m 1,0,-1
 374 400 l 1,1,-1
 374 322 l 1,2,-1
 41 322 l 1,3,-1
 41 400 l 1,0,-1
223 631 m 1,4,-1
 223 117 l 2,5,6
 223 103 223 103 233 95 c 128,-1,7
 243 87 243 87 259.5 84 c 128,-1,8
 276 81 276 81 297 81 c 2,9,-1
 311 81 l 1,10,-1
 311 0 l 1,11,-1
 48 0 l 1,12,-1
 48 81 l 1,13,-1
 57 81 l 2,14,15
 77 81 77 81 94 88 c 128,-1,16
 111 95 111 95 111 118 c 2,17,-1
 111 593 l 2,18,19
 111 615 111 615 94 622 c 128,-1,20
 77 629 77 629 57 629 c 2,21,-1
 48 629 l 1,22,-1
 48 710 l 1,23,-1
 515 710 l 1,24,-1
 515 475 l 1,25,-1
 437 475 l 1,26,-1
 427 571 l 2,27,28
 424 596 424 596 413.5 609 c 128,-1,29
 403 622 403 622 382.5 626.5 c 128,-1,30
 362 631 362 631 329 631 c 2,31,-1
 223 631 l 1,4,-1
EndSplineSet
EndChar

StartChar: Zhetailcyr
Encoding: 1174 1174 304
Width: 962
GlyphClass: 2
Flags: W
AnchorPoint: "Anchor-0" 471 741 basechar 0
LayerCount: 2
Fore
SplineSet
685 0 m 1,0,-1
 685 81 l 1,1,-1
 692 81 l 2,2,3
 707 81 707 81 720.5 82 c 128,-1,4
 734 83 734 83 743 85.5 c 128,-1,5
 752 88 752 88 752 91 c 2,6,-1
 568 349 l 1,7,-1
 568 370 l 1,8,-1
 765 618 l 2,9,10
 765 622 765 622 756.5 624 c 128,-1,11
 748 626 748 626 734 627.5 c 128,-1,12
 720 629 720 629 707 629 c 2,13,-1
 699 629 l 1,14,-1
 699 710 l 1,15,-1
 920 710 l 1,16,-1
 920 629 l 1,17,-1
 902 629 l 2,18,19
 892 629 892 629 884 627 c 128,-1,20
 876 625 876 625 868 619 c 128,-1,21
 860 613 860 613 852 601 c 2,22,-1
 652 353 l 1,23,-1
 659 404 l 1,24,-1
 887 83 l 1,25,-1
 887 0 l 1,26,-1
 685 0 l 1,0,-1
274 0 m 1,27,-1
 18 0 l 1,28,-1
 18 81 l 1,29,-1
 38 81 l 2,30,31
 47 81 47 81 56.5 82.5 c 128,-1,32
 66 84 66 84 75 89.5 c 128,-1,33
 84 95 84 95 92 106 c 2,34,-1
 303 404 l 1,35,-1
 304 353 l 1,36,-1
 106 601 l 2,37,38
 96 613 96 613 88.5 619 c 128,-1,39
 81 625 81 625 73.5 627 c 128,-1,40
 66 629 66 629 54 629 c 2,41,-1
 37 629 l 1,42,-1
 37 710 l 1,43,-1
 260 710 l 1,44,-1
 260 629 l 1,45,-1
 252 629 l 2,46,47
 238 629 238 629 224.5 627.5 c 128,-1,48
 211 626 211 626 202.5 624 c 128,-1,49
 194 622 194 622 194 618 c 2,50,-1
 391 370 l 1,51,-1
 391 349 l 1,52,-1
 207 91 l 2,53,54
 207 88 207 88 216 85.5 c 128,-1,55
 225 83 225 83 238.5 82 c 128,-1,56
 252 81 252 81 267 81 c 2,57,-1
 274 81 l 1,58,-1
 274 0 l 1,27,-1
751 0 m 2,59,-1
 744 0 l 1,60,-1
 762 83 l 1,61,-1
 945 83 l 1,62,-1
 945 -179 l 1,63,-1
 867 -179 l 1,64,-1
 856 -56 l 2,65,66
 854 -35 854 -35 844 -23 c 128,-1,67
 834 -11 834 -11 812 -5.5 c 128,-1,68
 790 0 790 0 751 0 c 2,59,-1
362 0 m 1,69,-1
 362 81 l 1,70,-1
 369 81 l 2,71,72
 377 81 377 81 386.5 81.5 c 128,-1,73
 396 82 396 82 404.5 83.5 c 128,-1,74
 413 85 413 85 418 86.5 c 128,-1,75
 423 88 423 88 423 91 c 2,76,-1
 423 620 l 2,77,78
 423 623 423 623 417.5 624 c 128,-1,79
 412 625 412 625 403 626.5 c 128,-1,80
 394 628 394 628 384 628.5 c 128,-1,81
 374 629 374 629 366 629 c 2,82,-1
 358 629 l 1,83,-1
 358 710 l 1,84,-1
 601 710 l 1,85,-1
 601 629 l 1,86,-1
 593 629 l 2,87,88
 584 629 584 629 574 628.5 c 128,-1,89
 564 628 564 628 555.5 626.5 c 128,-1,90
 547 625 547 625 541.5 623.5 c 128,-1,91
 536 622 536 622 536 619 c 2,92,-1
 536 90 l 2,93,94
 536 87 536 87 541 86 c 128,-1,95
 546 85 546 85 554 83.5 c 128,-1,96
 562 82 562 82 572 81.5 c 128,-1,97
 582 81 582 81 591 81 c 2,98,-1
 597 81 l 1,99,-1
 597 0 l 1,100,-1
 362 0 l 1,69,-1
EndSplineSet
EndChar

StartChar: Katailcyr
Encoding: 1178 1178 306
Width: 665
GlyphClass: 2
Flags: W
AnchorPoint: "Anchor-0" 340 741 basechar 0
LayerCount: 2
Fore
SplineSet
48 0 m 1,0,-1
 48 81 l 1,1,-1
 57 81 l 2,2,3
 77 81 77 81 94 88 c 128,-1,4
 111 95 111 95 111 118 c 2,5,-1
 111 593 l 2,6,7
 111 615 111 615 94 622 c 128,-1,8
 77 629 77 629 57 629 c 2,9,-1
 48 629 l 1,10,-1
 48 710 l 1,11,-1
 293 710 l 1,12,-1
 293 629 l 1,13,-1
 285 629 l 2,14,15
 275 629 275 629 264 628.5 c 128,-1,16
 253 628 253 628 243.5 626.5 c 128,-1,17
 234 625 234 625 228.5 623.5 c 128,-1,18
 223 622 223 622 223 619 c 2,19,-1
 223 91 l 2,20,21
 223 88 223 88 228.5 86.5 c 128,-1,22
 234 85 234 85 243 83.5 c 128,-1,23
 252 82 252 82 263 81.5 c 128,-1,24
 274 81 274 81 282 81 c 2,25,-1
 289 81 l 1,26,-1
 289 0 l 1,27,-1
 48 0 l 1,0,-1
386 0 m 1,28,-1
 386 81 l 1,29,-1
 393 81 l 2,30,31
 408 81 408 81 421.5 82 c 128,-1,32
 435 83 435 83 444 85.5 c 128,-1,33
 453 88 453 88 453 91 c 2,34,-1
 260 349 l 1,35,-1
 260 370 l 1,36,-1
 467 618 l 2,37,38
 467 622 467 622 458.5 624 c 128,-1,39
 450 626 450 626 436 627.5 c 128,-1,40
 422 629 422 629 409 629 c 2,41,-1
 401 629 l 1,42,-1
 401 710 l 1,43,-1
 623 710 l 1,44,-1
 623 629 l 1,45,-1
 604 629 l 2,46,47
 594 629 594 629 587 626.5 c 128,-1,48
 580 624 580 624 572.5 618.5 c 128,-1,49
 565 613 565 613 555 601 c 2,50,-1
 347 353 l 1,51,-1
 351 404 l 1,52,-1
 590 83 l 1,53,-1
 590 0 l 1,54,-1
 386 0 l 1,28,-1
454 0 m 2,55,-1
 448 0 l 1,56,-1
 466 83 l 1,57,-1
 648 83 l 1,58,-1
 648 -179 l 1,59,-1
 570 -179 l 1,60,-1
 559 -56 l 2,61,62
 557 -35 557 -35 547 -23 c 128,-1,63
 537 -11 537 -11 515 -5.5 c 128,-1,64
 493 0 493 0 454 0 c 2,55,-1
EndSplineSet
EndChar

StartChar: Kaverticalstrokecyr
Encoding: 1180 1180 307
Width: 769
GlyphClass: 2
Flags: W
AnchorPoint: "Anchor-0" 400 741 basechar 0
LayerCount: 2
Fore
SplineSet
288 171 m 1,0,-1
 288 544 l 1,1,-1
 371 544 l 1,2,-1
 371 171 l 1,3,-1
 288 171 l 1,0,-1
48 0 m 1,4,-1
 48 81 l 1,5,-1
 57 81 l 2,6,7
 77 81 77 81 94 88 c 128,-1,8
 111 95 111 95 111 118 c 2,9,-1
 111 593 l 2,10,11
 111 615 111 615 94 622 c 128,-1,12
 77 629 77 629 57 629 c 2,13,-1
 48 629 l 1,14,-1
 48 710 l 1,15,-1
 293 710 l 1,16,-1
 293 629 l 1,17,-1
 285 629 l 2,18,19
 275 629 275 629 264 628.5 c 128,-1,20
 253 628 253 628 243.5 626.5 c 128,-1,21
 234 625 234 625 228.5 623.5 c 128,-1,22
 223 622 223 622 223 619 c 2,23,-1
 223 91 l 2,24,25
 223 88 223 88 228.5 86.5 c 128,-1,26
 234 85 234 85 243 83.5 c 128,-1,27
 252 82 252 82 263 81.5 c 128,-1,28
 274 81 274 81 282 81 c 2,29,-1
 289 81 l 1,30,-1
 289 0 l 1,31,-1
 48 0 l 1,4,-1
494 0 m 1,32,-1
 494 81 l 1,33,-1
 502 81 l 2,34,35
 517 81 517 81 530.5 82 c 128,-1,36
 544 83 544 83 552 85.5 c 128,-1,37
 560 88 560 88 560 91 c 2,38,-1
 398 349 l 1,39,-1
 398 370 l 1,40,-1
 576 618 l 2,41,42
 576 622 576 622 567.5 624 c 128,-1,43
 559 626 559 626 545 627.5 c 128,-1,44
 531 629 531 629 518 629 c 2,45,-1
 509 629 l 1,46,-1
 509 710 l 1,47,-1
 729 710 l 1,48,-1
 729 629 l 1,49,-1
 710 629 l 2,50,51
 696 629 696 629 684.5 624 c 128,-1,52
 673 619 673 619 660 601 c 2,53,-1
 482 353 l 1,54,-1
 491 405 l 1,55,-1
 679 105 l 2,56,57
 685 94 685 94 694.5 88.5 c 128,-1,58
 704 83 704 83 714 82 c 128,-1,59
 724 81 724 81 734 81 c 2,60,-1
 751 81 l 1,61,-1
 751 0 l 1,62,-1
 494 0 l 1,32,-1
EndSplineSet
EndChar

StartChar: Kabashkcyr
Encoding: 1184 1184 308
Width: 793
GlyphClass: 2
Flags: W
AnchorPoint: "Anchor-0" 468 741 basechar 0
LayerCount: 2
Fore
SplineSet
513 0 m 1,0,-1
 513 81 l 1,1,-1
 520 81 l 2,2,3
 536 81 536 81 549 82 c 128,-1,4
 562 83 562 83 571 85.5 c 128,-1,5
 580 88 580 88 580 91 c 2,6,-1
 387 349 l 1,7,-1
 387 370 l 1,8,-1
 594 618 l 2,9,10
 594 622 594 622 585.5 624 c 128,-1,11
 577 626 577 626 563.5 627.5 c 128,-1,12
 550 629 550 629 536 629 c 2,13,-1
 528 629 l 1,14,-1
 528 710 l 1,15,-1
 750 710 l 1,16,-1
 750 629 l 1,17,-1
 732 629 l 2,18,19
 722 629 722 629 714.5 626.5 c 128,-1,20
 707 624 707 624 699.5 618.5 c 128,-1,21
 692 613 692 613 682 601 c 2,22,-1
 474 353 l 1,23,-1
 479 404 l 1,24,-1
 701 105 l 2,25,26
 709 95 709 95 717.5 89.5 c 128,-1,27
 726 84 726 84 735.5 82.5 c 128,-1,28
 745 81 745 81 753 81 c 2,29,-1
 774 81 l 1,30,-1
 774 0 l 1,31,-1
 513 0 l 1,0,-1
175 0 m 1,32,-1
 175 81 l 1,33,-1
 184 81 l 2,34,35
 204 81 204 81 221 88 c 128,-1,36
 238 95 238 95 238 118 c 2,37,-1
 238 631 l 1,38,-1
 204 631 l 2,39,40
 172 631 172 631 157 625 c 128,-1,41
 142 619 142 619 137 605.5 c 128,-1,42
 132 592 132 592 129 571 c 2,43,-1
 119 473 l 1,44,-1
 41 473 l 1,45,-1
 41 710 l 1,46,-1
 420 710 l 1,47,-1
 420 629 l 1,48,-1
 413 629 l 2,49,50
 400 629 400 629 385.5 628 c 128,-1,51
 371 627 371 627 361 625 c 128,-1,52
 351 623 351 623 351 619 c 2,53,-1
 351 91 l 2,54,55
 351 88 351 88 360.5 85.5 c 128,-1,56
 370 83 370 83 384 82 c 128,-1,57
 398 81 398 81 410 81 c 2,58,-1
 416 81 l 1,59,-1
 416 0 l 1,60,-1
 175 0 l 1,32,-1
EndSplineSet
EndChar

StartChar: Entailcyr
Encoding: 1186 1186 309
Width: 722
GlyphClass: 2
Flags: W
AnchorPoint: "Anchor-0" 361 741 basechar 0
LayerCount: 2
Fore
SplineSet
187 407 m 1,0,-1
 528 407 l 1,1,-1
 528 325 l 1,2,-1
 187 325 l 1,3,-1
 187 407 l 1,0,-1
48 0 m 1,4,-1
 48 81 l 1,5,-1
 57 81 l 2,6,7
 77 81 77 81 94 88 c 128,-1,8
 111 95 111 95 111 118 c 2,9,-1
 111 593 l 2,10,11
 111 615 111 615 94 622 c 128,-1,12
 77 629 77 629 57 629 c 2,13,-1
 48 629 l 1,14,-1
 48 710 l 1,15,-1
 294 710 l 1,16,-1
 294 630 l 1,17,-1
 287 630 l 2,18,19
 276 630 276 630 265 629 c 128,-1,20
 254 628 254 628 245 626.5 c 128,-1,21
 236 625 236 625 229.5 623.5 c 128,-1,22
 223 622 223 622 223 619 c 2,23,-1
 223 90 l 2,24,25
 223 87 223 87 229.5 86 c 128,-1,26
 236 85 236 85 245.5 83.5 c 128,-1,27
 255 82 255 82 266 81.5 c 128,-1,28
 277 81 277 81 286 81 c 2,29,-1
 294 81 l 1,30,-1
 294 0 l 1,31,-1
 48 0 l 1,4,-1
427 0 m 1,32,-1
 427 80 l 1,33,-1
 433 80 l 2,34,35
 444 80 444 80 455 81 c 128,-1,36
 466 82 466 82 475.5 83.5 c 128,-1,37
 485 85 485 85 491 86.5 c 128,-1,38
 497 88 497 88 497 91 c 2,39,-1
 497 620 l 2,40,41
 497 623 497 623 491 624 c 128,-1,42
 485 625 485 625 475.5 626.5 c 128,-1,43
 466 628 466 628 455 628.5 c 128,-1,44
 444 629 444 629 434 629 c 2,45,-1
 427 629 l 1,46,-1
 427 710 l 1,47,-1
 672 710 l 1,48,-1
 672 629 l 1,49,-1
 663 629 l 2,50,51
 643 629 643 629 626.5 622 c 128,-1,52
 610 615 610 615 610 593 c 2,53,-1
 610 0 l 1,54,-1
 427 0 l 1,32,-1
490 0 m 2,55,-1
 481 0 l 1,56,-1
 500 83 l 1,57,-1
 684 83 l 1,58,-1
 684 -179 l 1,59,-1
 606 -179 l 1,60,-1
 595 -56 l 2,61,62
 593 -35 593 -35 583 -23 c 128,-1,63
 573 -11 573 -11 550.5 -5.5 c 128,-1,64
 528 0 528 0 490 0 c 2,55,-1
EndSplineSet
EndChar

StartChar: Tetailcyr
Encoding: 1196 1196 311
Width: 617
GlyphClass: 2
Flags: W
AnchorPoint: "Anchor-0" 302 741 basechar 0
LayerCount: 2
Fore
SplineSet
252 117 m 2,0,-1
 252 631 l 1,1,-1
 204 631 l 2,2,3
 172 631 172 631 157 625 c 128,-1,4
 142 619 142 619 137 605.5 c 128,-1,5
 132 592 132 592 129 571 c 2,6,-1
 119 473 l 1,7,-1
 41 473 l 1,8,-1
 41 710 l 1,9,-1
 575 710 l 1,10,-1
 575 473 l 1,11,-1
 498 473 l 1,12,-1
 487 571 l 2,13,14
 485 592 485 592 480 605.5 c 128,-1,15
 475 619 475 619 459.5 625 c 128,-1,16
 444 631 444 631 412 631 c 2,17,-1
 364 631 l 1,18,-1
 364 0 l 1,19,-1
 174 0 l 1,20,-1
 174 81 l 1,21,-1
 189 81 l 2,22,23
 213 81 213 81 232.5 88 c 128,-1,24
 252 95 252 95 252 117 c 2,0,-1
260 0 m 2,25,-1
 247 0 l 1,26,-1
 247 83 l 1,27,-1
 454 83 l 1,28,-1
 454 -179 l 1,29,-1
 376 -179 l 1,30,-1
 365 -56 l 2,31,32
 363 -35 363 -35 353 -23 c 128,-1,33
 343 -11 343 -11 321 -5.5 c 128,-1,34
 299 0 299 0 260 0 c 2,25,-1
EndSplineSet
EndChar

StartChar: Ustraightstrokecyr
Encoding: 1200 1200 313
Width: 596
GlyphClass: 2
Flags: W
AnchorPoint: "Anchor-1" 298 0 basechar 0
AnchorPoint: "Anchor-0" 298 741 basechar 0
LayerCount: 2
Fore
SplineSet
125 278 m 1,0,-1
 471 278 l 1,1,-1
 471 196 l 1,2,-1
 125 196 l 1,3,-1
 125 278 l 1,0,-1
242 293 m 1,4,-1
 248 266 l 1,5,-1
 81 581 l 2,6,7
 72 599 72 599 64 610 c 128,-1,8
 56 621 56 621 48 625 c 128,-1,9
 40 629 40 629 30 629 c 2,10,-1
 21 629 l 1,11,-1
 21 710 l 1,12,-1
 249 710 l 1,13,-1
 249 629 l 1,14,-1
 236 629 l 2,15,16
 222 629 222 629 209.5 627.5 c 128,-1,17
 197 626 197 626 188.5 624 c 128,-1,18
 180 622 180 622 180 618 c 2,19,-1
 344 305 l 1,20,-1
 282 305 l 1,21,-1
 434 607 l 2,22,23
 434 614 434 614 426.5 618.5 c 128,-1,24
 419 623 419 623 409.5 626 c 128,-1,25
 400 629 400 629 392 629 c 2,26,-1
 382 629 l 1,27,-1
 382 710 l 1,28,-1
 570 710 l 1,29,-1
 570 629 l 1,30,-1
 561 629 l 2,31,32
 554 629 554 629 545.5 624 c 128,-1,33
 537 619 537 619 528 607 c 128,-1,34
 519 595 519 595 508 575 c 2,35,-1
 348 266 l 1,36,-1
 354 293 l 1,37,-1
 354 117 l 2,38,39
 354 95 354 95 372.5 88 c 128,-1,40
 391 81 391 81 416 81 c 2,41,-1
 432 81 l 1,42,-1
 432 0 l 1,43,-1
 164 0 l 1,44,-1
 164 81 l 1,45,-1
 181 81 l 2,46,47
 206 81 206 81 224 88 c 128,-1,48
 242 95 242 95 242 117 c 2,49,-1
 242 293 l 1,4,-1
EndSplineSet
EndChar

StartChar: Xatailcyr
Encoding: 1202 1202 314
Width: 637
GlyphClass: 2
Flags: W
AnchorPoint: "Anchor-0" 325 741 basechar 0
LayerCount: 2
Fore
SplineSet
32 629 m 1,0,-1
 32 710 l 1,1,-1
 280 710 l 1,2,-1
 280 629 l 1,3,-1
 267 629 l 2,4,5
 252 629 252 629 240 628 c 128,-1,6
 228 627 228 627 220 625 c 128,-1,7
 212 623 212 623 212 620 c 2,8,-1
 354 392 l 1,9,-1
 368 386 l 1,10,-1
 556 83 l 1,11,-1
 556 0 l 1,12,-1
 357 0 l 1,13,-1
 357 81 l 1,14,-1
 371 81 l 2,15,16
 386 81 386 81 398.5 82 c 128,-1,17
 411 83 411 83 418.5 85.5 c 128,-1,18
 426 88 426 88 426 90 c 2,19,-1
 272 341 l 1,20,-1
 258 346 l 1,21,-1
 101 595 l 2,22,23
 88 618 88 618 73 623.5 c 128,-1,24
 58 629 58 629 43 629 c 2,25,-1
 32 629 l 1,0,-1
23 0 m 1,26,-1
 23 81 l 1,27,-1
 39 81 l 2,28,29
 50 81 50 81 62 90.5 c 128,-1,30
 74 100 74 100 89 126 c 2,31,-1
 246 381 l 1,32,-1
 318 342 l 1,33,-1
 169 97 l 2,34,35
 169 93 169 93 177.5 89.5 c 128,-1,36
 186 86 186 86 197 83.5 c 128,-1,37
 208 81 208 81 218 81 c 2,38,-1
 232 81 l 1,39,-1
 232 0 l 1,40,-1
 23 0 l 1,26,-1
379 349 m 1,41,-1
 312 392 l 1,42,-1
 452 612 l 2,43,44
 452 618 452 618 443 621.5 c 128,-1,45
 434 625 434 625 422.5 627 c 128,-1,46
 411 629 411 629 400 629 c 2,47,-1
 389 629 l 1,48,-1
 389 710 l 1,49,-1
 595 710 l 1,50,-1
 595 629 l 1,51,-1
 584 629 l 2,52,53
 572 629 572 629 560.5 620 c 128,-1,54
 549 611 549 611 531 585 c 2,55,-1
 379 349 l 1,41,-1
426 0 m 2,56,-1
 419 0 l 1,57,-1
 437 83 l 1,58,-1
 620 83 l 1,59,-1
 620 -179 l 1,60,-1
 542 -179 l 1,61,-1
 531 -56 l 2,62,63
 529 -35 529 -35 519 -23 c 128,-1,64
 509 -11 509 -11 487 -5.5 c 128,-1,65
 465 0 465 0 426 0 c 2,56,-1
EndSplineSet
EndChar

StartChar: Chetailcyr
Encoding: 1206 1206 315
Width: 692
GlyphClass: 2
Flags: W
AnchorPoint: "Anchor-0" 339 741 basechar 0
LayerCount: 2
Fore
SplineSet
319 268 m 0,0,1
 240 268 240 268 190 286 c 128,-1,2
 140 304 140 304 115.5 346 c 128,-1,3
 91 388 91 388 91 459 c 2,4,-1
 91 593 l 2,5,6
 91 615 91 615 74.5 622 c 128,-1,7
 58 629 58 629 38 629 c 2,8,-1
 29 629 l 1,9,-1
 29 710 l 1,10,-1
 275 710 l 1,11,-1
 275 629 l 1,12,-1
 267 629 l 2,13,14
 254 629 254 629 239 628 c 128,-1,15
 224 627 224 627 214 625 c 128,-1,16
 204 623 204 623 204 619 c 2,17,-1
 204 465 l 2,18,19
 204 426 204 426 217 401 c 128,-1,20
 230 376 230 376 258 364 c 128,-1,21
 286 352 286 352 332 352 c 0,22,23
 371 352 371 352 413 359 c 128,-1,24
 455 366 455 366 488 384 c 1,25,-1
 488 302 l 1,26,27
 450 285 450 285 406.5 276.5 c 128,-1,28
 363 268 363 268 319 268 c 0,0,1
398 0 m 1,29,-1
 398 81 l 1,30,-1
 404 81 l 2,31,32
 418 81 418 81 433 82 c 128,-1,33
 448 83 448 83 458 85.5 c 128,-1,34
 468 88 468 88 468 91 c 2,35,-1
 468 620 l 2,36,37
 468 623 468 623 457.5 625 c 128,-1,38
 447 627 447 627 433 628 c 128,-1,39
 419 629 419 629 405 629 c 2,40,-1
 398 629 l 1,41,-1
 398 710 l 1,42,-1
 643 710 l 1,43,-1
 643 629 l 1,44,-1
 634 629 l 2,45,46
 614 629 614 629 597 622 c 128,-1,47
 580 615 580 615 580 593 c 2,48,-1
 580 0 l 1,49,-1
 398 0 l 1,29,-1
461 0 m 2,50,-1
 452 0 l 1,51,-1
 471 83 l 1,52,-1
 655 83 l 1,53,-1
 655 -179 l 1,54,-1
 577 -179 l 1,55,-1
 566 -56 l 2,56,57
 564 -35 564 -35 554 -23 c 128,-1,58
 544 -11 544 -11 521.5 -5.5 c 128,-1,59
 499 0 499 0 461 0 c 2,50,-1
EndSplineSet
EndChar

StartChar: Chevertcyr
Encoding: 1208 1208 316
Width: 714
GlyphClass: 2
Flags: W
AnchorPoint: "Anchor-0" 350 741 basechar 0
LayerCount: 2
Fore
SplineSet
421 0 m 1,0,-1
 421 81 l 1,1,-1
 428 81 l 2,2,3
 443 81 443 81 457 82 c 128,-1,4
 471 83 471 83 481 85.5 c 128,-1,5
 491 88 491 88 491 91 c 2,6,-1
 491 620 l 2,7,8
 491 623 491 623 481 625 c 128,-1,9
 471 627 471 627 456.5 628 c 128,-1,10
 442 629 442 629 429 629 c 2,11,-1
 421 629 l 1,12,-1
 421 710 l 1,13,-1
 667 710 l 1,14,-1
 667 629 l 1,15,-1
 658 629 l 2,16,17
 638 629 638 629 621 622 c 128,-1,18
 604 615 604 615 604 592 c 2,19,-1
 604 117 l 2,20,21
 604 95 604 95 621 88 c 128,-1,22
 638 81 638 81 658 81 c 2,23,-1
 667 81 l 1,24,-1
 667 0 l 1,25,-1
 421 0 l 1,0,-1
329 268 m 0,26,27
 246 268 246 268 193.5 286 c 128,-1,28
 141 304 141 304 116 346 c 128,-1,29
 91 388 91 388 91 459 c 2,30,-1
 91 593 l 2,31,32
 91 615 91 615 74.5 622 c 128,-1,33
 58 629 58 629 38 629 c 2,34,-1
 29 629 l 1,35,-1
 29 710 l 1,36,-1
 275 710 l 1,37,-1
 275 629 l 1,38,-1
 267 629 l 2,39,40
 254 629 254 629 239 628 c 128,-1,41
 224 627 224 627 214 625 c 128,-1,42
 204 623 204 623 204 619 c 2,43,-1
 204 465 l 2,44,45
 204 426 204 426 218 400.5 c 128,-1,46
 232 375 232 375 262.5 363.5 c 128,-1,47
 293 352 293 352 343 352 c 0,48,49
 384 352 384 352 430 358 c 128,-1,50
 476 364 476 364 511 384 c 1,51,-1
 511 301 l 1,52,53
 471 285 471 285 424.5 276.5 c 128,-1,54
 378 268 378 268 329 268 c 0,26,27
311 158 m 1,55,-1
 311 531 l 1,56,-1
 393 531 l 1,57,-1
 393 158 l 1,58,-1
 311 158 l 1,55,-1
EndSplineSet
EndChar

StartChar: Shhacyr
Encoding: 1210 1210 317
Width: 691
GlyphClass: 1
Flags: W
LayerCount: 2
Fore
SplineSet
293 710 m 1,0,-1
 293 629 l 1,1,-1
 286 629 l 2,2,3
 273 629 273 629 258.5 628 c 128,-1,4
 244 627 244 627 233.5 625 c 128,-1,5
 223 623 223 623 223 619 c 2,6,-1
 223 90 l 2,7,8
 223 88 223 88 233.5 85.5 c 128,-1,9
 244 83 244 83 258.5 82 c 128,-1,10
 273 81 273 81 286 81 c 2,11,-1
 293 81 l 1,12,-1
 293 0 l 1,13,-1
 48 0 l 1,14,-1
 48 81 l 1,15,-1
 57 81 l 2,16,17
 77 81 77 81 94 88 c 128,-1,18
 111 95 111 95 111 118 c 2,19,-1
 111 593 l 2,20,21
 111 615 111 615 94 622 c 128,-1,22
 77 629 77 629 57 629 c 2,23,-1
 48 629 l 1,24,-1
 48 710 l 1,25,-1
 293 710 l 1,0,-1
373 442 m 0,26,27
 450 442 450 442 500.5 424 c 128,-1,28
 551 406 551 406 575.5 364 c 128,-1,29
 600 322 600 322 600 251 c 2,30,-1
 600 117 l 2,31,32
 600 95 600 95 616.5 88 c 128,-1,33
 633 81 633 81 653 81 c 2,34,-1
 662 81 l 1,35,-1
 662 0 l 1,36,-1
 416 0 l 1,37,-1
 416 81 l 1,38,-1
 423 81 l 2,39,40
 438 81 438 81 452.5 82 c 128,-1,41
 467 83 467 83 477 85.5 c 128,-1,42
 487 88 487 88 487 91 c 2,43,-1
 487 245 l 2,44,45
 487 285 487 285 474 310 c 128,-1,46
 461 335 461 335 432.5 346.5 c 128,-1,47
 404 358 404 358 358 358 c 0,48,49
 321 358 321 358 278.5 351 c 128,-1,50
 236 344 236 344 203 326 c 1,51,-1
 203 408 l 1,52,53
 241 425 241 425 284.5 433.5 c 128,-1,54
 328 442 328 442 373 442 c 0,26,27
EndSplineSet
EndChar

StartChar: Obarcyr
Encoding: 1256 1256 320
Width: 669
GlyphClass: 2
Flags: W
AnchorPoint: "Anchor-1" 328 0 basechar 0
AnchorPoint: "Anchor-0" 328 741 basechar 0
LayerCount: 2
Fore
SplineSet
107 407 m 1,0,-1
 562 407 l 1,1,-1
 562 325 l 1,2,-1
 107 325 l 1,3,-1
 107 407 l 1,0,-1
335 -23 m 256,4,5
 270 -23 270 -23 217.5 1.5 c 128,-1,6
 165 26 165 26 127 74 c 128,-1,7
 89 122 89 122 68.5 192.5 c 128,-1,8
 48 263 48 263 48 355 c 0,9,10
 48 448 48 448 68.5 518.5 c 128,-1,11
 89 589 89 589 127 636.5 c 128,-1,12
 165 684 165 684 217.5 708.5 c 128,-1,13
 270 733 270 733 335 733 c 256,14,15
 400 733 400 733 452.5 708.5 c 128,-1,16
 505 684 505 684 542.5 636.5 c 128,-1,17
 580 589 580 589 600.5 518.5 c 128,-1,18
 621 448 621 448 621 355 c 0,19,20
 621 263 621 263 600.5 192.5 c 128,-1,21
 580 122 580 122 542.5 74 c 128,-1,22
 505 26 505 26 452.5 1.5 c 128,-1,23
 400 -23 400 -23 335 -23 c 256,4,5
335 59 m 256,24,25
 377 59 377 59 408.5 76 c 128,-1,26
 440 93 440 93 460.5 129 c 128,-1,27
 481 165 481 165 491 220.5 c 128,-1,28
 501 276 501 276 501 355 c 0,29,30
 501 433 501 433 491 489 c 128,-1,31
 481 545 481 545 460.5 581 c 128,-1,32
 440 617 440 617 408.5 634 c 128,-1,33
 377 651 377 651 335 651 c 256,34,35
 293 651 293 651 261.5 634 c 128,-1,36
 230 617 230 617 209 581 c 128,-1,37
 188 545 188 545 178 489 c 128,-1,38
 168 433 168 433 168 355 c 256,39,40
 168 277 168 277 178 221 c 128,-1,41
 188 165 188 165 209 129 c 128,-1,42
 230 93 230 93 261.5 76 c 128,-1,43
 293 59 293 59 335 59 c 256,24,25
EndSplineSet
EndChar

StartChar: Hastrokecyr
Encoding: 1278 1278 321
Width: 632
GlyphClass: 2
Flags: W
AnchorPoint: "Anchor-1" 297 0 basechar 0
AnchorPoint: "Anchor-0" 322 741 basechar 0
LayerCount: 2
Fore
SplineSet
132 408 m 1,0,-1
 496 408 l 1,1,-1
 496 326 l 1,2,-1
 132 326 l 1,3,-1
 132 408 l 1,0,-1
32 629 m 1,4,-1
 32 710 l 1,5,-1
 280 710 l 1,6,-1
 280 629 l 1,7,-1
 267 629 l 2,8,9
 252 629 252 629 240 628 c 128,-1,10
 228 627 228 627 220 625 c 128,-1,11
 212 623 212 623 212 620 c 2,12,-1
 354 392 l 1,13,-1
 367 386 l 1,14,-1
 537 115 l 2,15,16
 551 93 551 93 565.5 87 c 128,-1,17
 580 81 580 81 595 81 c 2,18,-1
 610 81 l 1,19,-1
 610 0 l 1,20,-1
 357 0 l 1,21,-1
 357 81 l 1,22,-1
 371 81 l 2,23,24
 386 81 386 81 398.5 82 c 128,-1,25
 411 83 411 83 418.5 85.5 c 128,-1,26
 426 88 426 88 426 90 c 2,27,-1
 272 341 l 1,28,-1
 260 346 l 1,29,-1
 101 595 l 2,30,31
 88 618 88 618 73 623.5 c 128,-1,32
 58 629 58 629 43 629 c 2,33,-1
 32 629 l 1,4,-1
23 0 m 1,34,-1
 23 81 l 1,35,-1
 39 81 l 2,36,37
 50 81 50 81 62 90.5 c 128,-1,38
 74 100 74 100 89 126 c 2,39,-1
 248 381 l 1,40,-1
 318 342 l 1,41,-1
 169 97 l 2,42,43
 169 93 169 93 177.5 89.5 c 128,-1,44
 186 86 186 86 197 83.5 c 128,-1,45
 208 81 208 81 218 81 c 2,46,-1
 232 81 l 1,47,-1
 232 0 l 1,48,-1
 23 0 l 1,34,-1
378 349 m 1,49,-1
 312 392 l 1,50,-1
 452 612 l 2,51,52
 452 618 452 618 443 621.5 c 128,-1,53
 434 625 434 625 422.5 627 c 128,-1,54
 411 629 411 629 400 629 c 2,55,-1
 389 629 l 1,56,-1
 389 710 l 1,57,-1
 595 710 l 1,58,-1
 595 629 l 1,59,-1
 584 629 l 2,60,61
 572 629 572 629 560.5 620 c 128,-1,62
 549 611 549 611 531 585 c 2,63,-1
 378 349 l 1,49,-1
EndSplineSet
EndChar

StartChar: a
Encoding: 97 97 322
Width: 523
GlyphClass: 2
Flags: W
AnchorPoint: "Anchor-2" 393 -10 basechar 0
AnchorPoint: "Anchor-1" 269 0 basechar 0
AnchorPoint: "Anchor-0" 242 565 basechar 0
LayerCount: 2
Fore
SplineSet
341 350 m 1,0,-1
 341 287 l 1,1,2
 290 277 290 277 256 265.5 c 128,-1,3
 222 254 222 254 201.5 241.5 c 128,-1,4
 181 229 181 229 171 214.5 c 128,-1,5
 161 200 161 200 157.5 182 c 128,-1,6
 154 164 154 164 154 142 c 0,7,8
 154 112 154 112 162 95.5 c 128,-1,9
 170 79 170 79 183.5 72.5 c 128,-1,10
 197 66 197 66 214 66 c 0,11,12
 235 66 235 66 256 73.5 c 128,-1,13
 277 81 277 81 298.5 101 c 128,-1,14
 320 121 320 121 340 156 c 1,15,-1
 346 97 l 1,16,17
 330 62 330 62 307 37 c 128,-1,18
 284 12 284 12 255 0 c 128,-1,19
 226 -12 226 -12 191 -12 c 0,20,21
 145 -12 145 -12 113.5 4.5 c 128,-1,22
 82 21 82 21 65.5 54 c 128,-1,23
 49 87 49 87 49 138 c 0,24,25
 49 184 49 184 62 217.5 c 128,-1,26
 75 251 75 251 107 275 c 128,-1,27
 139 299 139 299 196 317 c 128,-1,28
 253 335 253 335 341 350 c 1,0,-1
362 0 m 1,29,-1
 340 113 l 1,30,-1
 337 121 l 1,31,-1
 337 414 l 2,32,33
 337 442 337 442 331.5 460.5 c 128,-1,34
 326 479 326 479 308 488.5 c 128,-1,35
 290 498 290 498 250 498 c 0,36,37
 198 498 198 498 164 485.5 c 128,-1,38
 130 473 130 473 115 461 c 1,39,40
 114 465 114 465 118 475 c 128,-1,41
 122 485 122 485 130.5 495.5 c 128,-1,42
 139 506 139 506 150 513.5 c 128,-1,43
 161 521 161 521 175 520 c 1,44,-1
 175 395 l 1,45,-1
 76 395 l 1,46,-1
 76 528 l 1,47,48
 91 539 91 539 115.5 550 c 128,-1,49
 140 561 140 561 175.5 568 c 128,-1,50
 211 575 211 575 256 575 c 0,51,52
 299 575 299 575 333.5 567.5 c 128,-1,53
 368 560 368 560 392.5 543 c 128,-1,54
 417 526 417 526 431 499 c 128,-1,55
 445 472 445 472 445 433 c 2,56,-1
 445 115 l 2,57,58
 445 101 445 101 449 93.5 c 128,-1,59
 453 86 453 86 464 81 c 128,-1,60
 475 76 475 76 494 71 c 2,61,-1
 502 69 l 1,62,-1
 502 0 l 1,63,-1
 362 0 l 1,29,-1
EndSplineSet
Substitution2: "'ss06' Style Set 6 lookup 66 subtable" a.alt
EndChar

StartChar: aogonek
Encoding: 261 261 331
Width: 523
GlyphClass: 1
Flags: W
LayerCount: 2
Fore
SplineSet
209 -159 m 0,0,1
 209 -135 209 -135 217 -116.5 c 128,-1,2
 225 -98 225 -98 245 -78 c 128,-1,3
 265 -58 265 -58 300.5 -30.5 c 128,-1,4
 336 -3 336 -3 391 37 c 1,5,-1
 421 3 l 1,6,7
 389 -27 389 -27 368.5 -48 c 128,-1,8
 348 -69 348 -69 336.5 -85 c 128,-1,9
 325 -101 325 -101 320.5 -116.5 c 128,-1,10
 316 -132 316 -132 316 -150 c 0,11,12
 316 -166 316 -166 324.5 -178 c 128,-1,13
 333 -190 333 -190 351 -190 c 0,14,15
 373 -190 373 -190 389.5 -175 c 128,-1,16
 406 -160 406 -160 417 -145 c 1,17,-1
 455 -183 l 1,18,19
 433 -214 433 -214 402.5 -233 c 128,-1,20
 372 -252 372 -252 323 -252 c 256,21,22
 274 -252 274 -252 241.5 -229.5 c 128,-1,23
 209 -207 209 -207 209 -159 c 0,0,1
502 0 m 1,24,-1
 364 0 l 1,25,-1
 342 113 l 1,26,-1
 334 121 l 1,27,-1
 334 414 l 2,28,29
 334 442 334 442 328.5 460.5 c 128,-1,30
 323 479 323 479 305.5 488.5 c 128,-1,31
 288 498 288 498 250 498 c 0,32,33
 198 498 198 498 163 489.5 c 128,-1,34
 128 481 128 481 115 470 c 1,35,36
 114 474 114 474 117.5 482.5 c 128,-1,37
 121 491 121 491 129 500 c 128,-1,38
 137 509 137 509 147.5 515 c 128,-1,39
 158 521 158 521 171 520 c 1,40,-1
 171 395 l 1,41,-1
 73 395 l 1,42,-1
 73 528 l 1,43,44
 87 539 87 539 111.5 550 c 128,-1,45
 136 561 136 561 172 568 c 128,-1,46
 208 575 208 575 256 575 c 0,47,48
 298 575 298 575 332 567.5 c 128,-1,49
 366 560 366 560 390.5 543 c 128,-1,50
 415 526 415 526 428 499 c 128,-1,51
 441 472 441 472 441 433 c 2,52,-1
 441 115 l 2,53,54
 441 102 441 102 445.5 94 c 128,-1,55
 450 86 450 86 462 81.5 c 128,-1,56
 474 77 474 77 494 71 c 2,57,-1
 502 69 l 1,58,-1
 502 0 l 1,24,-1
43 138 m 0,59,60
 43 184 43 184 56.5 217.5 c 128,-1,61
 70 251 70 251 103 274.5 c 128,-1,62
 136 298 136 298 193.5 316.5 c 128,-1,63
 251 335 251 335 341 350 c 1,64,-1
 341 287 l 1,65,66
 288 276 288 276 252.5 265 c 128,-1,67
 217 254 217 254 196 241.5 c 128,-1,68
 175 229 175 229 165 214 c 128,-1,69
 155 199 155 199 152 181.5 c 128,-1,70
 149 164 149 164 149 142 c 0,71,72
 149 112 149 112 156.5 95.5 c 128,-1,73
 164 79 164 79 177.5 72.5 c 128,-1,74
 191 66 191 66 208 66 c 0,75,76
 230 66 230 66 252.5 73.5 c 128,-1,77
 275 81 275 81 297.5 101 c 128,-1,78
 320 121 320 121 340 156 c 1,79,-1
 346 97 l 1,80,81
 330 62 330 62 306 37 c 128,-1,82
 282 12 282 12 251.5 0 c 128,-1,83
 221 -12 221 -12 186 -12 c 0,84,85
 140 -12 140 -12 108 4.5 c 128,-1,86
 76 21 76 21 59.5 54 c 128,-1,87
 43 87 43 87 43 138 c 0,59,60
EndSplineSet
Substitution2: "'ss06' Style Set 6 lookup 66 subtable" aogonek.alt
EndChar

StartChar: acaron
Encoding: 462 462 332
Width: 523
GlyphClass: 1
Flags: W
LayerCount: 2
Fore
SplineSet
215 656 m 1,0,-1
 286 656 l 1,1,-1
 404 823 l 1,2,-1
 404 846 l 1,3,-1
 346 846 l 1,4,-1
 198 709 l 1,5,-1
 302 712 l 1,6,-1
 156 846 l 1,7,-1
 95 846 l 1,8,-1
 95 823 l 1,9,-1
 215 656 l 1,0,-1
341 350 m 1,10,-1
 341 287 l 1,11,12
 290 277 290 277 256 265.5 c 128,-1,13
 222 254 222 254 201.5 241.5 c 128,-1,14
 181 229 181 229 171 214.5 c 128,-1,15
 161 200 161 200 157.5 182 c 128,-1,16
 154 164 154 164 154 142 c 0,17,18
 154 112 154 112 162 95.5 c 128,-1,19
 170 79 170 79 183.5 72.5 c 128,-1,20
 197 66 197 66 214 66 c 0,21,22
 235 66 235 66 256 73.5 c 128,-1,23
 277 81 277 81 298.5 101 c 128,-1,24
 320 121 320 121 340 156 c 1,25,-1
 346 97 l 1,26,27
 330 62 330 62 307 37 c 128,-1,28
 284 12 284 12 255 0 c 128,-1,29
 226 -12 226 -12 191 -12 c 0,30,31
 145 -12 145 -12 113.5 4.5 c 128,-1,32
 82 21 82 21 65.5 54 c 128,-1,33
 49 87 49 87 49 138 c 0,34,35
 49 184 49 184 62 217.5 c 128,-1,36
 75 251 75 251 107 275 c 128,-1,37
 139 299 139 299 196 317 c 128,-1,38
 253 335 253 335 341 350 c 1,10,-1
362 0 m 1,39,-1
 340 113 l 1,40,-1
 337 121 l 1,41,-1
 337 414 l 2,42,43
 337 442 337 442 331.5 460.5 c 128,-1,44
 326 479 326 479 308 488.5 c 128,-1,45
 290 498 290 498 250 498 c 0,46,47
 198 498 198 498 164 485.5 c 128,-1,48
 130 473 130 473 115 461 c 1,49,50
 114 465 114 465 118 475 c 128,-1,51
 122 485 122 485 130.5 495.5 c 128,-1,52
 139 506 139 506 150 513.5 c 128,-1,53
 161 521 161 521 175 520 c 1,54,-1
 175 395 l 1,55,-1
 76 395 l 1,56,-1
 76 528 l 1,57,58
 91 539 91 539 115.5 550 c 128,-1,59
 140 561 140 561 175.5 568 c 128,-1,60
 211 575 211 575 256 575 c 0,61,62
 299 575 299 575 333.5 567.5 c 128,-1,63
 368 560 368 560 392.5 543 c 128,-1,64
 417 526 417 526 431 499 c 128,-1,65
 445 472 445 472 445 433 c 2,66,-1
 445 115 l 2,67,68
 445 101 445 101 449 93.5 c 128,-1,69
 453 86 453 86 464 81 c 128,-1,70
 475 76 475 76 494 71 c 2,71,-1
 502 69 l 1,72,-1
 502 0 l 1,73,-1
 362 0 l 1,39,-1
EndSplineSet
Substitution2: "'ss06' Style Set 6 lookup 66 subtable" acaron.alt
EndChar

StartChar: adblgrave
Encoding: 513 513 334
Width: 523
GlyphClass: 1
Flags: W
LayerCount: 2
Fore
SplineSet
352 802 m 2,0,-1
 378 690 l 1,1,-1
 375 659 l 1,2,-1
 335 659 l 1,3,-1
 269 741 l 2,4,5
 252 762 252 762 242.5 779.5 c 128,-1,6
 233 797 233 797 233 817 c 0,7,8
 233 841 233 841 246.5 855.5 c 128,-1,9
 260 870 260 870 284 870 c 0,10,11
 312 870 312 870 329 850.5 c 128,-1,12
 346 831 346 831 352 802 c 2,0,-1
181 802 m 2,13,-1
 204 690 l 1,14,-1
 204 659 l 1,15,-1
 162 659 l 1,16,-1
 97 741 l 2,17,18
 80 762 80 762 70.5 779.5 c 128,-1,19
 61 797 61 797 61 817 c 0,20,21
 61 841 61 841 75 855.5 c 128,-1,22
 89 870 89 870 112 870 c 0,23,24
 140 870 140 870 157 850.5 c 128,-1,25
 174 831 174 831 181 802 c 2,13,-1
341 350 m 1,26,-1
 341 287 l 1,27,28
 290 277 290 277 256 265.5 c 128,-1,29
 222 254 222 254 201.5 241.5 c 128,-1,30
 181 229 181 229 171 214.5 c 128,-1,31
 161 200 161 200 157.5 182 c 128,-1,32
 154 164 154 164 154 142 c 0,33,34
 154 112 154 112 162 95.5 c 128,-1,35
 170 79 170 79 183.5 72.5 c 128,-1,36
 197 66 197 66 214 66 c 0,37,38
 235 66 235 66 256 73.5 c 128,-1,39
 277 81 277 81 298.5 101 c 128,-1,40
 320 121 320 121 340 156 c 1,41,-1
 346 97 l 1,42,43
 330 62 330 62 307 37 c 128,-1,44
 284 12 284 12 255 0 c 128,-1,45
 226 -12 226 -12 191 -12 c 0,46,47
 145 -12 145 -12 113.5 4.5 c 128,-1,48
 82 21 82 21 65.5 54 c 128,-1,49
 49 87 49 87 49 138 c 0,50,51
 49 184 49 184 62 217.5 c 128,-1,52
 75 251 75 251 107 275 c 128,-1,53
 139 299 139 299 196 317 c 128,-1,54
 253 335 253 335 341 350 c 1,26,-1
362 0 m 1,55,-1
 340 113 l 1,56,-1
 337 121 l 1,57,-1
 337 414 l 2,58,59
 337 442 337 442 331.5 460.5 c 128,-1,60
 326 479 326 479 308 488.5 c 128,-1,61
 290 498 290 498 250 498 c 0,62,63
 198 498 198 498 164 485.5 c 128,-1,64
 130 473 130 473 115 461 c 1,65,66
 114 465 114 465 118 475 c 128,-1,67
 122 485 122 485 130.5 495.5 c 128,-1,68
 139 506 139 506 150 513.5 c 128,-1,69
 161 521 161 521 175 520 c 1,70,-1
 175 395 l 1,71,-1
 76 395 l 1,72,-1
 76 528 l 1,73,74
 91 539 91 539 115.5 550 c 128,-1,75
 140 561 140 561 175.5 568 c 128,-1,76
 211 575 211 575 256 575 c 0,77,78
 299 575 299 575 333.5 567.5 c 128,-1,79
 368 560 368 560 392.5 543 c 128,-1,80
 417 526 417 526 431 499 c 128,-1,81
 445 472 445 472 445 433 c 2,82,-1
 445 115 l 2,83,84
 445 101 445 101 449 93.5 c 128,-1,85
 453 86 453 86 464 81 c 128,-1,86
 475 76 475 76 494 71 c 2,87,-1
 502 69 l 1,88,-1
 502 0 l 1,89,-1
 362 0 l 1,55,-1
EndSplineSet
Substitution2: "'ss06' Style Set 6 lookup 66 subtable" adblgrave.alt
EndChar

StartChar: ainvertedbreve
Encoding: 515 515 335
Width: 523
GlyphClass: 1
Flags: W
LayerCount: 2
Fore
SplineSet
246 830 m 0,0,1
 193 830 193 830 160.5 815 c 128,-1,2
 128 800 128 800 112.5 764 c 128,-1,3
 97 728 97 728 97 665 c 1,4,-1
 176 665 l 1,5,6
 178 701 178 701 183 721 c 128,-1,7
 188 741 188 741 201.5 748 c 128,-1,8
 215 755 215 755 244 755 c 0,9,10
 272 755 272 755 285.5 748 c 128,-1,11
 299 741 299 741 305 721 c 128,-1,12
 311 701 311 701 312 665 c 1,13,-1
 395 665 l 1,14,15
 396 728 396 728 380 764 c 128,-1,16
 364 800 364 800 331 815 c 128,-1,17
 298 830 298 830 246 830 c 0,0,1
341 350 m 1,18,-1
 341 287 l 1,19,20
 290 277 290 277 256 265.5 c 128,-1,21
 222 254 222 254 201.5 241.5 c 128,-1,22
 181 229 181 229 171 214.5 c 128,-1,23
 161 200 161 200 157.5 182 c 128,-1,24
 154 164 154 164 154 142 c 0,25,26
 154 112 154 112 162 95.5 c 128,-1,27
 170 79 170 79 183.5 72.5 c 128,-1,28
 197 66 197 66 214 66 c 0,29,30
 235 66 235 66 256 73.5 c 128,-1,31
 277 81 277 81 298.5 101 c 128,-1,32
 320 121 320 121 340 156 c 1,33,-1
 346 97 l 1,34,35
 330 62 330 62 307 37 c 128,-1,36
 284 12 284 12 255 0 c 128,-1,37
 226 -12 226 -12 191 -12 c 0,38,39
 145 -12 145 -12 113.5 4.5 c 128,-1,40
 82 21 82 21 65.5 54 c 128,-1,41
 49 87 49 87 49 138 c 0,42,43
 49 184 49 184 62 217.5 c 128,-1,44
 75 251 75 251 107 275 c 128,-1,45
 139 299 139 299 196 317 c 128,-1,46
 253 335 253 335 341 350 c 1,18,-1
362 0 m 1,47,-1
 340 113 l 1,48,-1
 337 121 l 1,49,-1
 337 414 l 2,50,51
 337 442 337 442 331.5 460.5 c 128,-1,52
 326 479 326 479 308 488.5 c 128,-1,53
 290 498 290 498 250 498 c 0,54,55
 198 498 198 498 164 485.5 c 128,-1,56
 130 473 130 473 115 461 c 1,57,58
 114 465 114 465 118 475 c 128,-1,59
 122 485 122 485 130.5 495.5 c 128,-1,60
 139 506 139 506 150 513.5 c 128,-1,61
 161 521 161 521 175 520 c 1,62,-1
 175 395 l 1,63,-1
 76 395 l 1,64,-1
 76 528 l 1,65,66
 91 539 91 539 115.5 550 c 128,-1,67
 140 561 140 561 175.5 568 c 128,-1,68
 211 575 211 575 256 575 c 0,69,70
 299 575 299 575 333.5 567.5 c 128,-1,71
 368 560 368 560 392.5 543 c 128,-1,72
 417 526 417 526 431 499 c 128,-1,73
 445 472 445 472 445 433 c 2,74,-1
 445 115 l 2,75,76
 445 101 445 101 449 93.5 c 128,-1,77
 453 86 453 86 464 81 c 128,-1,78
 475 76 475 76 494 71 c 2,79,-1
 502 69 l 1,80,-1
 502 0 l 1,81,-1
 362 0 l 1,47,-1
EndSplineSet
Substitution2: "'ss06' Style Set 6 lookup 66 subtable" ainvertedbreve.alt
EndChar

StartChar: b
Encoding: 98 98 348
Width: 570
GlyphClass: 2
Flags: W
AnchorPoint: "Anchor-1" 349 0 basechar 0
AnchorPoint: "Anchor-0" 329 755 basechar 0
LayerCount: 2
Fore
SplineSet
330 -13 m 0,0,1
 293 -13 293 -13 262 0.5 c 128,-1,2
 231 14 231 14 206.5 42.5 c 128,-1,3
 182 71 182 71 163 113 c 1,4,-1
 167 170 l 1,5,6
 189 135 189 135 212.5 114 c 128,-1,7
 236 93 236 93 261.5 83.5 c 128,-1,8
 287 74 287 74 314 74 c 0,9,10
 340 74 340 74 360 86.5 c 128,-1,11
 380 99 380 99 393 124.5 c 128,-1,12
 406 150 406 150 413 190 c 128,-1,13
 420 230 420 230 420 285 c 0,14,15
 420 343 420 343 413 382 c 128,-1,16
 406 421 406 421 392.5 444.5 c 128,-1,17
 379 468 379 468 360.5 478 c 128,-1,18
 342 488 342 488 319 488 c 0,19,20
 290 488 290 488 264.5 478 c 128,-1,21
 239 468 239 468 215 444 c 128,-1,22
 191 420 191 420 166 380 c 1,23,-1
 164 438 l 1,24,25
 183 482 183 482 209 513 c 128,-1,26
 235 544 235 544 267.5 559.5 c 128,-1,27
 300 575 300 575 338 575 c 0,28,29
 402 575 402 575 445.5 538.5 c 128,-1,30
 489 502 489 502 510 437 c 128,-1,31
 531 372 531 372 531 285 c 0,32,33
 531 199 531 199 507 131 c 128,-1,34
 483 63 483 63 438.5 25 c 128,-1,35
 394 -13 394 -13 330 -13 c 0,0,1
78 657 m 2,36,37
 78 671 78 671 72 679 c 128,-1,38
 66 687 66 687 54.5 691.5 c 128,-1,39
 43 696 43 696 28 700 c 2,40,-1
 20 702 l 1,41,-1
 20 780 l 1,42,-1
 186 780 l 1,43,-1
 186 123 l 1,44,-1
 187 121 l 1,45,-1
 152 -14 l 1,46,-1
 78 -14 l 1,47,-1
 78 657 l 2,36,37
EndSplineSet
EndChar

StartChar: c
Encoding: 99 99 349
Width: 492
GlyphClass: 2
Flags: W
AnchorPoint: "Anchor-1" 272 0 basechar 0
AnchorPoint: "Anchor-0" 263 565 basechar 0
LayerCount: 2
Fore
SplineSet
275 69 m 0,0,1
 305 69 305 69 325.5 77 c 128,-1,2
 346 85 346 85 361.5 102 c 128,-1,3
 377 119 377 119 389 146 c 1,4,-1
 451 112 l 1,5,6
 436 73 436 73 409.5 45 c 128,-1,7
 383 17 383 17 348.5 2 c 128,-1,8
 314 -13 314 -13 272 -13 c 0,9,10
 198 -13 198 -13 146.5 21 c 128,-1,11
 95 55 95 55 67 121 c 128,-1,12
 39 187 39 187 39 282 c 0,13,14
 39 375 39 375 66 440.5 c 128,-1,15
 93 506 93 506 145.5 540.5 c 128,-1,16
 198 575 198 575 273 575 c 0,17,18
 316 575 316 575 348.5 569.5 c 128,-1,19
 381 564 381 564 402.5 556.5 c 128,-1,20
 424 549 424 549 433 543 c 1,21,-1
 433 376 l 1,22,-1
 332 376 l 1,23,-1
 332 518 l 1,24,25
 341 518 341 518 350 512 c 128,-1,26
 359 506 359 506 366.5 497.5 c 128,-1,27
 374 489 374 489 378 481 c 128,-1,28
 382 473 382 473 383 468 c 1,29,30
 364 477 364 477 337.5 485.5 c 128,-1,31
 311 494 311 494 276 494 c 0,32,33
 229 494 229 494 201.5 470.5 c 128,-1,34
 174 447 174 447 162.5 400 c 128,-1,35
 151 353 151 353 151 282 c 0,36,37
 151 225 151 225 157.5 184.5 c 128,-1,38
 164 144 164 144 178 118.5 c 128,-1,39
 192 93 192 93 216.5 81 c 128,-1,40
 241 69 241 69 275 69 c 0,0,1
EndSplineSet
EndChar

StartChar: ccaron
Encoding: 269 269 354
Width: 492
GlyphClass: 1
Flags: W
LayerCount: 2
Fore
SplineSet
226 656 m 1,0,-1
 297 656 l 1,1,-1
 415 823 l 1,2,-1
 415 846 l 1,3,-1
 357 846 l 1,4,-1
 209 709 l 1,5,-1
 313 712 l 1,6,-1
 167 846 l 1,7,-1
 106 846 l 1,8,-1
 106 823 l 1,9,-1
 226 656 l 1,0,-1
275 69 m 0,10,11
 305 69 305 69 325.5 77 c 128,-1,12
 346 85 346 85 361.5 102 c 128,-1,13
 377 119 377 119 389 146 c 1,14,-1
 451 112 l 1,15,16
 436 73 436 73 409.5 45 c 128,-1,17
 383 17 383 17 348.5 2 c 128,-1,18
 314 -13 314 -13 272 -13 c 0,19,20
 198 -13 198 -13 146.5 21 c 128,-1,21
 95 55 95 55 67 121 c 128,-1,22
 39 187 39 187 39 282 c 0,23,24
 39 375 39 375 66 440.5 c 128,-1,25
 93 506 93 506 145.5 540.5 c 128,-1,26
 198 575 198 575 273 575 c 0,27,28
 316 575 316 575 348.5 569.5 c 128,-1,29
 381 564 381 564 402.5 556.5 c 128,-1,30
 424 549 424 549 433 543 c 1,31,-1
 433 376 l 1,32,-1
 332 376 l 1,33,-1
 332 518 l 1,34,35
 341 518 341 518 350 512 c 128,-1,36
 359 506 359 506 366.5 497.5 c 128,-1,37
 374 489 374 489 378 481 c 128,-1,38
 382 473 382 473 383 468 c 1,39,40
 364 477 364 477 337.5 485.5 c 128,-1,41
 311 494 311 494 276 494 c 0,42,43
 229 494 229 494 201.5 470.5 c 128,-1,44
 174 447 174 447 162.5 400 c 128,-1,45
 151 353 151 353 151 282 c 0,46,47
 151 225 151 225 157.5 184.5 c 128,-1,48
 164 144 164 144 178 118.5 c 128,-1,49
 192 93 192 93 216.5 81 c 128,-1,50
 241 69 241 69 275 69 c 0,10,11
EndSplineSet
EndChar

StartChar: d
Encoding: 100 100 356
Width: 575
GlyphClass: 2
Flags: W
AnchorPoint: "Anchor-2" 544 735 basechar 0
AnchorPoint: "Anchor-1" 268 0 basechar 0
LayerCount: 2
Fore
SplineSet
493 115 m 2,0,1
 493 94 493 94 505.5 86.5 c 128,-1,2
 518 79 518 79 542 71 c 2,3,-1
 550 69 l 1,4,-1
 550 0 l 1,5,-1
 417 0 l 1,6,-1
 394 122 l 1,7,-1
 385 122 l 1,8,-1
 385 657 l 2,9,10
 385 671 385 671 378 678.5 c 128,-1,11
 371 686 371 686 358 690.5 c 128,-1,12
 345 695 345 695 325 700 c 2,13,-1
 318 702 l 1,14,-1
 318 780 l 1,15,-1
 493 780 l 1,16,-1
 493 115 l 2,0,1
241 575 m 0,17,18
 277 575 277 575 307.5 562 c 128,-1,19
 338 549 338 549 363 521 c 128,-1,20
 388 493 388 493 406 449 c 1,21,-1
 403 394 l 1,22,23
 382 429 382 429 358.5 449.5 c 128,-1,24
 335 470 335 470 310 479 c 128,-1,25
 285 488 285 488 257 488 c 0,26,27
 231 488 231 488 211.5 476 c 128,-1,28
 192 464 192 464 178.5 439 c 128,-1,29
 165 414 165 414 158 373.5 c 128,-1,30
 151 333 151 333 151 278 c 0,31,32
 151 220 151 220 158.5 181 c 128,-1,33
 166 142 166 142 179 118 c 128,-1,34
 192 94 192 94 211 84 c 128,-1,35
 230 74 230 74 252 74 c 0,36,37
 281 74 281 74 306.5 84.5 c 128,-1,38
 332 95 332 95 356.5 119 c 128,-1,39
 381 143 381 143 405 182 c 1,40,-1
 406 125 l 1,41,42
 387 80 387 80 361.5 49.5 c 128,-1,43
 336 19 336 19 303.5 3 c 128,-1,44
 271 -13 271 -13 232 -13 c 0,45,46
 170 -13 170 -13 126.5 23.5 c 128,-1,47
 83 60 83 60 61 125.5 c 128,-1,48
 39 191 39 191 39 277 c 0,49,50
 39 364 39 364 63 431 c 128,-1,51
 87 498 87 498 132 536.5 c 128,-1,52
 177 575 177 575 241 575 c 0,17,18
EndSplineSet
EndChar

StartChar: e
Encoding: 101 101 360
Width: 499
GlyphClass: 2
Flags: W
AnchorPoint: "Anchor-2" 394 1 basechar 0
AnchorPoint: "Anchor-1" 274 0 basechar 0
AnchorPoint: "Anchor-0" 254 565 basechar 0
LayerCount: 2
Fore
SplineSet
147 276 m 0,0,1
 147 213 147 213 156.5 172.5 c 128,-1,2
 166 132 166 132 184 109 c 128,-1,3
 202 86 202 86 226.5 77 c 128,-1,4
 251 68 251 68 280 68 c 0,5,6
 311 68 311 68 332 76.5 c 128,-1,7
 353 85 353 85 369 102.5 c 128,-1,8
 385 120 385 120 398 145 c 1,9,-1
 459 110 l 1,10,11
 443 72 443 72 416.5 44.5 c 128,-1,12
 390 17 390 17 354 2 c 128,-1,13
 318 -13 318 -13 273 -13 c 0,14,15
 204 -13 204 -13 151.5 18 c 128,-1,16
 99 49 99 49 69 113.5 c 128,-1,17
 39 178 39 178 39 276 c 0,18,19
 39 371 39 371 66 438 c 128,-1,20
 93 505 93 505 143 540 c 128,-1,21
 193 575 193 575 260 575 c 0,22,23
 312 575 312 575 349.5 556 c 128,-1,24
 387 537 387 537 411.5 497 c 128,-1,25
 436 457 436 457 448 395 c 128,-1,26
 460 333 460 333 460 248 c 1,27,-1
 115 248 l 1,28,-1
 115 324 l 1,29,-1
 377 324 l 1,30,-1
 356 293 l 1,31,32
 356 351 356 351 350 390 c 128,-1,33
 344 429 344 429 332 452 c 128,-1,34
 320 475 320 475 302.5 485 c 128,-1,35
 285 495 285 495 262 495 c 0,36,37
 234 495 234 495 212.5 484 c 128,-1,38
 191 473 191 473 176.5 447.5 c 128,-1,39
 162 422 162 422 154.5 380 c 128,-1,40
 147 338 147 338 147 276 c 0,0,1
EndSplineSet
EndChar

StartChar: eogonek
Encoding: 281 281 368
Width: 499
GlyphClass: 1
Flags: W
LayerCount: 2
Fore
SplineSet
347 39 m 1,0,-1
 345 1 l 1,1,2
 328 -5 328 -5 311 -9 c 128,-1,3
 294 -13 294 -13 275 -13 c 0,4,5
 205 -13 205 -13 152 18 c 128,-1,6
 99 49 99 49 69 113.5 c 128,-1,7
 39 178 39 178 39 276 c 0,8,9
 39 371 39 371 65.5 438 c 128,-1,10
 92 505 92 505 142.5 540 c 128,-1,11
 193 575 193 575 261 575 c 0,12,13
 312 575 312 575 349.5 556 c 128,-1,14
 387 537 387 537 411.5 497.5 c 128,-1,15
 436 458 436 458 448 396.5 c 128,-1,16
 460 335 460 335 460 251 c 1,17,-1
 107 251 l 1,18,-1
 107 324 l 1,19,-1
 375 324 l 1,20,-1
 357 293 l 1,21,22
 357 352 357 352 350.5 391 c 128,-1,23
 344 430 344 430 332.5 453.5 c 128,-1,24
 321 477 321 477 303.5 487 c 128,-1,25
 286 497 286 497 262 497 c 0,26,27
 235 497 235 497 213 485.5 c 128,-1,28
 191 474 191 474 176.5 448.5 c 128,-1,29
 162 423 162 423 154 380.5 c 128,-1,30
 146 338 146 338 146 276 c 0,31,32
 146 213 146 213 156 172.5 c 128,-1,33
 166 132 166 132 183.5 109 c 128,-1,34
 201 86 201 86 225.5 77 c 128,-1,35
 250 68 250 68 279 68 c 0,36,37
 313 68 313 68 334.5 77 c 128,-1,38
 356 86 356 86 371 104 c 128,-1,39
 386 122 386 122 400 148 c 1,40,-1
 459 110 l 1,41,42
 449 87 449 87 434 66 c 128,-1,43
 419 45 419 45 386 17 c 0,44,45
 348 -15 348 -15 325.5 -40 c 128,-1,46
 303 -65 303 -65 291.5 -85.5 c 128,-1,47
 280 -106 280 -106 276 -122 c 128,-1,48
 272 -138 272 -138 272 -151 c 0,49,50
 272 -167 272 -167 280.5 -178.5 c 128,-1,51
 289 -190 289 -190 305 -190 c 0,52,53
 324 -190 324 -190 340 -175.5 c 128,-1,54
 356 -161 356 -161 367 -145 c 1,55,-1
 405 -184 l 1,56,57
 382 -214 382 -214 353 -233 c 128,-1,58
 324 -252 324 -252 279 -252 c 0,59,60
 247 -252 247 -252 221.5 -242 c 128,-1,61
 196 -232 196 -232 180.5 -211 c 128,-1,62
 165 -190 165 -190 165 -160 c 0,63,64
 165 -135 165 -135 173 -115.5 c 128,-1,65
 181 -96 181 -96 201 -75 c 128,-1,66
 221 -54 221 -54 256 -27 c 128,-1,67
 291 0 291 0 347 39 c 1,0,-1
EndSplineSet
EndChar

